<?xml version="1.0" encoding="utf-8"?>
<!-- Generator: Adobe Illustrator 20.1.0, SVG Export Plug-In . SVG Version: 6.00 Build 0)  -->
<svg version="1.1" id="Capa_1" xmlns="http://www.w3.org/2000/svg" xmlns:xlink="http://www.w3.org/1999/xlink" x="0px" y="0px"
	 viewBox="0 0 356 63" enable-background="new 0 0 356 63" xml:space="preserve">
<g>
	<path d="M20.353,15.118h9.347L24.11,50.385h-9.347L20.353,15.118z"/>
	<path d="M32.012,15.118h9.443l7.227,18.26l2.843-18.26h9.347l-5.589,35.267h-9.347l-7.323-17.778l-2.794,17.778h-9.395
		L32.012,15.118z"/>
	<path d="M62.703,15.118h9.443l7.227,18.26l2.843-18.26h9.347l-5.589,35.267h-9.347l-7.323-17.778l-2.794,17.778h-9.395
		L62.703,15.118z"/>
	<path d="M107.606,14.877c8.335,0,14.358,2.794,11.756,19.32c-2.457,15.562-8.72,16.381-17.393,16.381s-14.357-2.746-11.804-18.79
		C92.767,15.262,99.512,14.877,107.606,14.877z M103.27,42.195c4.143,0,5.541-1.735,6.745-9.202c1.301-8.191,0.674-9.732-3.71-9.732
		c-4.24,0-5.444,1.108-6.793,9.732C98.356,40.364,98.548,42.195,103.27,42.195z"/>
	<path d="M130.203,15.118l1.879,23.8l9.78-23.8h10.31l-16.14,35.267h-11.274l-4.384-35.267H130.203z"/>
	<path d="M156.702,15.118h11.033l5.107,35.267h-9.588l-1.012-6.167h-9.058l-2.746,6.167h-10.358L156.702,15.118z M161.617,36.269
		l-1.108-9.443l-3.951,9.443H161.617z"/>
	<path d="M179.878,15.118h14.935c4.866,0,8.383,2.987,7.371,11.274c-1.06,8.961-5.782,9.636-7.371,9.877l5.011,14.116h-6.263
		l-4.336-13.731l-7.082-0.53l-2.264,14.261h-5.589L179.878,15.118z M191.633,31.691c2.553,0,4.481-1.445,4.914-5.733
		c0.482-4.866-0.578-5.733-2.939-5.733h-8.913l-1.783,11.467H191.633z"/>
	<path d="M207.243,15.118h5.637l-3.228,20.428c-1.205,7.516,0.289,9.828,5.685,9.828c5.541,0,7.853-2.746,8.961-9.828l3.228-20.428
		h5.637l-3.132,20.91c-1.59,9.925-5.733,14.598-15.369,14.598c-7.42,0-12.575-3.083-10.599-15.61L207.243,15.118z"/>
	<path d="M236.923,15.118h5.541l11.274,25.005l3.951-25.005h5.589l-5.589,35.267h-5.492l-11.322-24.812l-3.902,24.812h-5.637
		L236.923,15.118z"/>
</g>
<g>
	<g>
		<path fill="#070308" d="M323.865,49.717l-0.185-2.256c4.075-0.335,7.776-2.236,10.421-5.354s3.917-7.08,3.583-11.154
			c-0.69-8.413-8.101-14.694-16.509-14.004l-0.185-2.256c9.656-0.794,18.157,6.419,18.95,16.075
			c0.384,4.678-1.077,9.225-4.113,12.804C332.791,47.15,328.542,49.333,323.865,49.717z"/>
	</g>
	<g>
		
			<ellipse transform="matrix(0.6469 -0.7626 0.7626 0.6469 76.0155 261.626)" fill="#070308" cx="320.51" cy="48.732" rx="0.865" ry="0.865"/>
	</g>
	<g>
		
			<ellipse transform="matrix(0.6469 -0.7626 0.7626 0.6469 91.1992 230.3678)" fill="#070308" cx="294.349" cy="16.707" rx="0.865" ry="0.865"/>
	</g>
	<g>
		
			<ellipse transform="matrix(0.6469 -0.7626 0.7626 0.6469 73.3496 216.8557)" fill="#070308" cx="270.834" cy="29.225" rx="0.934" ry="0.934"/>
	</g>
	<g>
		
			<rect x="295.475" y="27.839" transform="matrix(0.0133 -0.9999 0.9999 0.0133 244.0834 344.5147)" fill="#070308" width="2.264" height="41.484"/>
	</g>
	<g>
		
			<rect x="283.854" y="27.091" transform="matrix(0.0133 -0.9999 0.9999 0.0133 238.9462 326.6476)" fill="#070308" width="2.264" height="30.317"/>
	</g>
	<g>
		
			<rect x="305.464" y="39.869" transform="matrix(0.0133 -0.9999 0.9999 0.0133 259.9772 348.539)" fill="#070308" width="2.264" height="5.336"/>
	</g>
	<g>
		
			<rect x="297.892" y="29.567" transform="matrix(0.0133 -0.9999 0.9999 0.0133 258.8278 334.7361)" fill="#070308" width="2.264" height="13.308"/>
	</g>
	<g>
		
			<rect x="290.103" y="15.292" transform="matrix(0.0133 -0.9999 0.9999 0.0133 257.5283 320.6439)" fill="#070308" width="2.264" height="29.08"/>
	</g>
	<g>
		
			<rect x="280.487" y="15.372" transform="matrix(0.0165 -0.9999 0.9999 0.0165 253.96 304.207)" fill="#070308" width="2.264" height="15.27"/>
	</g>
	<g>
		
			<rect x="299.844" y="15.978" transform="matrix(0.0133 -0.9999 0.9999 0.0133 273.6844 323.9289)" fill="#070308" width="2.264" height="14.622"/>
	</g>
	<g>
		
			<rect x="297.926" y="15.262" transform="matrix(0.9995 -0.0319 0.0319 0.9995 -0.3662 9.838)" fill="#070308" width="20.419" height="2.264"/>
	</g>
	<g>
		
			<rect x="287.188" y="14.154" transform="matrix(0.0133 -0.9999 0.9999 0.0133 267.667 304.8932)" fill="#070308" width="2.264" height="5.337"/>
	</g>
</g>
</svg>
