<?xml version="1.0" encoding="utf-8"?>
<!-- Generator: Adobe Illustrator 20.1.0, SVG Export Plug-In . SVG Version: 6.00 Build 0)  -->
<svg version="1.1" id="Capa_1" xmlns="http://www.w3.org/2000/svg" xmlns:xlink="http://www.w3.org/1999/xlink" x="0px" y="0px"
	 viewBox="0 0 250.842 348.392" enable-background="new 0 0 250.842 348.392" xml:space="preserve">
<g>
	<path fill="#865B57" d="M36.464,120.803c0,0,8.667,4.938,29.667-15.865l30,8.188c0,0,17.667,37.343,15.667,44.343
		s-3.667,15.667-3,19.667l-12.667-1.333c0,0-3-36-11.333-47.667c0,0-41.042,33.53-54.042,15
		C30.756,143.136,17.881,121.308,36.464,120.803z"/>
	<path fill="#F0E734" d="M90.585,113.22c0,0,2.417,7.613,17.263,8.083c14.846,0.47,32.96-33.053,32.755-36.409l-15.906-8.264
		L90.585,113.22z"/>
	<g>
		<polygon fill="#EDCEA7" points="79.798,244.47 79.798,250.136 72.849,248.803 69.798,238.47 		"/>
		<path fill="#F0E734" d="M88.131,254.136c0,0,3,7.333,0,9.333c0,0-25.777-17.333-54.388-18c0,0,1.895-4.635,6.722-7
			C44.461,236.511,49.131,233.136,88.131,254.136z"/>
		
			<ellipse transform="matrix(0.2999 -0.954 0.954 0.2999 -200.3758 236.2095)" fill="#FFFFFF" cx="60.738" cy="254.618" rx="5.812" ry="29"/>
		<path fill="#AB6E6A" d="M84.131,207.021c-9,8.218,0,43.115,0,43.115c-5-3.667-16.667-7.333-16.667-7.333
			s-32.333-51.333-20.333-67.561s49,5.894,49,5.894l8.667,3.667v34.333L84.131,207.021z"/>
		<path fill="#865B57" d="M117.631,178.557c0,0-12.833,6.246-23.906,1.226l9.177,38.312c0,0,16.671,10.21,32.063,8.541
			C134.964,226.636,134.964,186.224,117.631,178.557z"/>
	</g>
	<path fill="#A7D1F0" d="M195.464,166.136l-64.667-70.61c0,0-15.708,27.462-38.042,20.36l18.375,36.25c0,0,8.333,8.667,4.333,16.333
		s-3.333,11.333-3.333,11.333s5.667,9.333,26.333,0c20.667-9.333,57.736,4.148,57.736,4.148S198.464,175.47,195.464,166.136z"/>
	<path fill="#865B57" d="M130.798,95.527c0,0,0.333,61.943,68.667,80.276l10.062-0.028c0,0,16.604-33.972,11.604-54.638
		c0,0-16,9.333-35.667,1.333c0,0,8.667-5.667,8-10c-0.667-4.333-27.667-24.333-28.667-33S139.131,72.376,130.798,95.527z"/>
	<polygon fill="#2F302D" points="51.704,261.225 51.51,264.745 53.777,269.042 99.216,268.372 102.247,264.866 102.476,260.706 
		99.96,257.897 55.779,259.972 	"/>
	<polygon points="97.131,280.136 97.964,284.97 126.798,283.803 127.631,279.136 	"/>
	<polygon points="99.131,286.303 100.298,290.47 126.131,288.386 126.131,284.97 	"/>
	<polygon points="100.298,291.803 126.131,290.47 126.131,292.803 100.298,292.803 	"/>
	<rect x="100.298" y="294.47" width="25.833" height="3.333"/>
	<polygon points="101.464,299.136 127.631,298.47 127.631,301.47 102.62,300.803 	"/>
	<polygon points="103.756,302.136 127.631,302.803 127.631,305.136 104.494,303.636 	"/>
	<polygon points="104.494,305.136 103.756,307.136 127.631,307.97 127.631,306.553 	"/>
	<polygon points="103.756,308.636 128.464,309.803 129.615,312.136 103.756,312.834 	"/>
	<polygon points="129.615,314.803 103.756,314.803 102.62,318.303 131.964,316.553 	"/>
	<polygon points="133.131,318.303 106.464,319.97 106.464,322.97 134.631,320.636 	"/>
	<polygon points="133.798,322.97 108.464,325.136 108.464,327.136 133.798,325.053 	"/>
	<polygon points="132.798,327.803 110.381,329.636 111.298,331.636 132.798,329.72 	"/>
	<polygon points="132.798,331.636 112.631,336.136 113.214,337.47 133.798,333.518 	"/>
	<g>
		<path fill="#DEA6A6" d="M138.606,113.17c0,0,1.934-0.13,4.823-0.433c1.445-0.148,3.127-0.352,4.927-0.574
			c1.799-0.23,3.712-0.512,5.617-0.836c0.948-0.185,1.901-0.342,2.827-0.547c0.924-0.214,1.846-0.371,2.716-0.601
			c0.881-0.189,1.731-0.38,2.528-0.584c0.802-0.19,1.562-0.37,2.239-0.602c0.685-0.213,1.329-0.371,1.86-0.606
			c0.531-0.228,1.044-0.352,1.398-0.567c0.738-0.386,1.184-0.599,1.184-0.599l0.061,0.079c0,0-0.374,0.305-1.069,0.825
			c-0.331,0.296-0.816,0.486-1.34,0.784c-0.525,0.301-1.144,0.571-1.833,0.833c-0.682,0.288-1.441,0.526-2.245,0.778
			c-0.798,0.281-1.667,0.452-2.556,0.675c-0.893,0.209-1.827,0.348-2.773,0.511c-0.946,0.161-1.913,0.272-2.876,0.412
			c-3.857,0.513-7.729,0.823-10.637,0.968c-2.907,0.154-4.846,0.184-4.846,0.184L138.606,113.17z"/>
	</g>
	<g>
		<path fill="#DEA6A6" d="M185.492,122.511c0,0-1.437,1.007-3.662,2.414c-2.22,1.416-5.252,3.196-8.404,4.769
			c-0.792,0.385-1.57,0.801-2.368,1.147c-0.79,0.364-1.572,0.712-2.352,1c-0.779,0.285-1.535,0.562-2.282,0.737
			c-0.369,0.097-0.728,0.192-1.076,0.283c-0.355,0.067-0.698,0.131-1.027,0.194c-0.328,0.065-0.644,0.115-0.945,0.16
			c-0.306,0.017-0.597,0.034-0.87,0.05c-0.544,0.03-1.013,0.077-1.408,0c-0.781-0.084-1.212-0.151-1.212-0.151l0.011-0.099
			c0,0,0.445-0.049,1.196-0.101c0.375-0.005,0.827-0.124,1.343-0.217c0.257-0.05,0.53-0.103,0.818-0.159
			c0.284-0.084,0.581-0.177,0.894-0.258c0.311-0.084,0.636-0.172,0.972-0.263c0.33-0.115,0.671-0.235,1.022-0.357
			c0.351-0.119,0.712-0.241,1.081-0.366c0.365-0.14,0.738-0.283,1.117-0.429c0.77-0.256,1.547-0.581,2.346-0.89
			c0.803-0.297,1.594-0.666,2.397-1.004c6.368-2.865,12.354-6.544,12.354-6.544L185.492,122.511z"/>
	</g>
	<polygon fill="#D5CB2E" points="92.212,156.766 104.798,233.941 109.615,232.994 104.798,149.87 	"/>
	<polygon fill="#F9F187" points="112.797,232.994 110.648,149.136 104.798,149.87 109.615,232.994 	"/>
	<polygon fill="#C85224" points="103.298,229.303 85.464,240.303 83.131,249.636 88.631,275.47 96.131,279.136 128.798,277.803 
		133.798,271.303 129.615,233.97 111.956,227.47 	"/>
	<circle fill="#AB6E6A" cx="103.756" cy="264.928" r="6.625"/>
	<circle fill="#DEA6A6" cx="104.494" cy="265.141" r="4.196"/>
	<g>
		<polygon fill="#EDCEA7" points="148.675,241.945 148.675,247.612 141.727,246.278 138.675,235.945 		"/>
		<path fill="#F0E734" d="M157.008,251.612c0,0,3,7.333,0,9.333c0,0-25.777-17.333-54.388-18c0,0,1.895-4.635,6.722-7
			C113.338,233.987,118.008,230.612,157.008,251.612z"/>
		
			<ellipse transform="matrix(0.2999 -0.954 0.954 0.2999 -149.7441 300.1496)" fill="#FFFFFF" cx="129.615" cy="252.093" rx="5.812" ry="29"/>
	</g>
	<polygon fill="#2F302D" points="121.242,258.671 121.242,262.195 123.742,266.362 169.075,263.195 171.909,259.529 
		171.909,255.362 169.242,252.695 125.242,257.195 	"/>
	<path fill="#AB6E6A" d="M196.2,183.951c0,0,25.819,33.824-2.736,47.185c-22.083,10.333-42.393-4.947-42.393-4.947
		s-1.94,7.947,3.726,19.947l-19.333-6.333c0,0-20.667-31.667-11.667-67.333c0,0,5.952-5.5,18.114,5.031
		C141.911,177.501,166.798,171.242,196.2,183.951z"/>
	<g>
		<path fill="#FFFFFF" d="M141.929,177.454c0,0,0.515,0.178,1.384,0.561c0.872,0.378,2.096,0.968,3.528,1.745
			c1.44,0.764,3.072,1.74,4.789,2.837c0.846,0.566,1.741,1.123,2.611,1.745c0.878,0.61,1.774,1.226,2.643,1.878
			c1.764,1.269,3.494,2.589,5.068,3.883c0.767,0.671,1.534,1.289,2.214,1.93c0.679,0.641,1.321,1.247,1.913,1.806
			c1.178,1.125,2.1,2.126,2.748,2.821c0.648,0.696,1.005,1.106,1.005,1.106l-0.069,0.072c0,0-0.436-0.327-1.176-0.922
			c-0.375-0.292-0.82-0.657-1.325-1.081c-0.51-0.418-1.085-0.89-1.712-1.405c-1.248-1.033-2.705-2.237-4.265-3.528
			c-0.758-0.671-1.574-1.324-2.385-2.011c-0.808-0.691-1.652-1.364-2.498-2.034c-3.387-2.679-6.954-5.128-9.734-6.794
			c-1.387-0.838-2.577-1.481-3.426-1.896c-0.848-0.421-1.348-0.621-1.348-0.621L141.929,177.454z"/>
	</g>
	<g>
		<path fill="#FFFFFF" d="M151.022,226.192c0,0-0.088-1.252-0.069-3.131c0.005-1.879,0.135-4.379,0.301-6.876
			c0.078-1.249,0.148-2.5,0.265-3.666c0.138-1.165,0.31-2.246,0.492-3.168c0.082-0.462,0.192-0.881,0.271-1.255
			c0.081-0.374,0.158-0.698,0.233-0.964c0.136-0.533,0.233-0.836,0.233-0.836l0.099,0.013c0,0,0.018,0.317,0.017,0.867
			c0.013,0.552-0.027,1.333-0.06,2.271c-0.036,0.938-0.137,2.024-0.251,3.187c-0.161,1.158-0.332,2.393-0.504,3.628
			c-0.322,2.473-0.572,4.953-0.748,6.815c-0.168,1.863-0.18,3.109-0.18,3.109L151.022,226.192z"/>
	</g>
	<polygon fill="#C6C7C7" points="81.494,113.219 87.448,123.789 96.568,129.194 106.298,130.012 118.024,119.636 118.024,108.593 
		120.748,99.658 127.855,80.598 113.881,77.386 88.635,98.968 	"/>
	<g>
		<path fill="#865B57" d="M140.486,57.364c0,0-2.317-17.153,31.603-14.574c33.921,2.579,50.322-14.105,56.176-24.874
			c0,0-6.52,39.182-52.059,31.176C144.052,43.438,140.486,57.364,140.486,57.364z"/>
		<path fill="#865B57" d="M139.316,60.104c0,0,1.542-17.24,34.048-7.207s52.197-2.6,60.292-11.804c0,0-15.042,36.763-57.674,18.862
			C145.881,47.315,139.316,60.104,139.316,60.104z"/>
		<path fill="#AB6E6A" d="M139.199,60.339c0,0,5.084-16.545,34.802,0.01s51.601,8.281,61.43,0.956c0,0-22.339,32.844-60.331,6.491
			C148.273,49.189,139.199,60.339,139.199,60.339z"/>
		<path fill="#AB6E6A" d="M136.652,62.112c0,0,1.463-21.398,37.431-14.361s57.5-11.652,66.297-24.254
			c0,0-16.075,47.535-63.313,32.488C143.712,45.359,136.652,62.112,136.652,62.112z"/>
		<path fill="#FFFFFF" d="M131.164,54.461l1.611-0.749l1.304-0.311l2.433-1.183l1.332,0.341c0,0,6.769,3.798,4.399,10.03
			l-3.402,1.193l-0.957,1.69l-0.936,0.664l-1.672,0.862l-3.019-0.773c0,0-0.974-8.407-5.253-10.636l1.291-1.346l2.121-0.101
			L131.164,54.461z"/>
		<path fill="#EDCEA7" d="M51.264,68.636c0,0,5.383,20,0,29.75s-4.133,18.5,14.617,21.25s42.25,0.75,60.25-39l1.724-16.5
			c0,0-4.81-32.442-42.442-25C52.546,45.636,51.264,68.636,51.264,68.636z"/>
		
			<ellipse transform="matrix(0.7861 -0.6181 0.6181 0.7861 -16.0363 95.3597)" fill="#EDCEA7" cx="129.75" cy="70.848" rx="11.202" ry="7.697"/>
		<path fill="#AB6E6A" d="M110.732,69.636c0,0,5.933,3.231,9.184,0.036c0,0,0.466,9.464-6.034,7.714c0,0,12.199,2,13.974-13.25
			c0,0,4.776-25.75-27.474-30.5s-44.5,10.75-50.5,19.25s-7.75,16-24,14c0,0,11.314,7.687,19.732,0.25c0,0-6.971,7,2.398,13.5
			c0,0-6.881-8.25,7.869-20.75c0,0-6,17.173,10,10.962c0,0-13-5.212-2.5-12.462c0,0,3.508,13,18.254,1.25c0,0-13.504-2.25-5.254-8.5
			c0,0,4.912,9,15.831,8.5c0,0-10.423-8.5-1.627-12.25c0,0-8.454,8.25,12.796,15.25c0,0-7.25-7.75,0.25-9c0,0,4.583,4.5,2.667,11.75
			c0,0,3.982,0,5.658-7.25c0,0,3.627,6-1.224,8.25c0,0,3.399,1,5.399-4C116.131,62.386,118.582,68.636,110.732,69.636z"/>
		<path fill="#AB6E6A" d="M128.105,73.136c0,0,20.978-25.636-17.373-44.318S49.881,52.886,49.881,52.886l46.25-11.25l27.5,17
			L128.105,73.136z"/>
		<g>
			<path fill="#654641" d="M68.66,77.912c0,0-0.326-0.74-1.038-1.696c-0.368-0.469-0.815-0.995-1.339-1.51
				c-0.524-0.514-1.107-1.031-1.728-1.499c-0.322-0.222-0.631-0.453-0.972-0.635c-0.342-0.18-0.65-0.385-0.958-0.575
				c-0.302-0.198-0.581-0.409-0.834-0.632c-0.268-0.201-0.511-0.412-0.735-0.615c-0.224-0.209-0.429-0.4-0.61-0.569
				c-0.182-0.175-0.339-0.335-0.465-0.478c-0.254-0.281-0.389-0.477-0.389-0.477l0.082-0.182c0,0,0.23-0.018,0.615,0.012
				c0.384,0.032,0.936,0.087,1.543,0.295c0.305,0.1,0.639,0.209,0.974,0.359c0.331,0.159,0.667,0.353,1.002,0.572
				c0.33,0.226,0.628,0.524,0.932,0.816c0.306,0.289,0.584,0.624,0.886,0.92c0.585,0.621,1.133,1.274,1.568,1.944
				c0.452,0.655,0.784,1.323,1.045,1.896c0.512,1.158,0.616,2.002,0.616,2.002L68.66,77.912z"/>
		</g>
		<g>
			<path fill="#654641" d="M80.281,74.754c0,0-0.013-1.401,0.548-3.402c0.136-0.501,0.297-1.04,0.499-1.6
				c0.176-0.572,0.451-1.135,0.692-1.741c0.28-0.584,0.554-1.201,0.876-1.802c0.332-0.595,0.64-1.222,1.016-1.805
				c0.357-0.595,0.71-1.197,1.093-1.763c0.377-0.571,0.736-1.149,1.162-1.64c0.425-0.493,0.84-0.967,1.276-1.375
				c0.438-0.405,0.864-0.776,1.268-1.105c0.792-0.675,1.554-1.12,2.076-1.439c0.528-0.312,0.851-0.462,0.851-0.462l0.135,0.147
				c0,0-0.165,0.322-0.492,0.834c-0.162,0.258-0.367,0.56-0.607,0.9c-0.249,0.331-0.515,0.715-0.809,1.127
				c-0.293,0.413-0.623,0.846-0.984,1.29c-0.338,0.464-0.707,0.938-1.11,1.412c-0.412,0.466-0.838,0.948-1.27,1.438
				c-0.455,0.476-0.846,1.01-1.263,1.53c-0.422,0.517-0.777,1.077-1.159,1.612c-0.372,0.54-0.696,1.097-1.028,1.628
				c-0.296,0.548-0.607,1.069-0.856,1.585c-0.269,0.508-0.495,1.001-0.694,1.462c-0.392,0.923-0.661,1.72-0.815,2.287
				c-0.158,0.567-0.207,0.897-0.207,0.897L80.281,74.754z"/>
		</g>
		<circle fill="#A7D1F0" cx="65.611" cy="79.857" r="1.97"/>
		<circle fill="#A7D1F0" cx="86.689" cy="75.629" r="2.558"/>
		<g>
			<path fill="#6E5D4B" d="M71.596,92.292c0,0-0.091-0.194-0.209-0.547c-0.115-0.354-0.267-0.87-0.316-1.524
				c-0.019-0.326-0.026-0.689,0.061-1.071c0.059-0.388,0.255-0.774,0.513-1.137c0.288-0.34,0.663-0.628,1.087-0.807
				c0.434-0.192,0.848-0.27,1.342-0.348c0.418-0.034,0.829-0.069,1.313-0.031c0.463,0.027,0.898,0.123,1.314,0.276
				c0.41,0.156,0.781,0.382,1.09,0.639c0.313,0.254,0.562,0.54,0.764,0.818c0.396,0.565,0.583,1.102,0.661,1.482
				c0.087,0.378,0.08,0.603,0.08,0.603l-0.097,0.023c0,0-0.103-0.188-0.306-0.487c-0.107-0.147-0.237-0.322-0.391-0.512
				c-0.156-0.19-0.344-0.386-0.553-0.588c-0.429-0.395-0.978-0.76-1.629-1.009c-0.315-0.143-0.681-0.239-1.037-0.314
				c-0.339-0.083-0.77-0.091-1.194-0.1c-0.341,0.031-0.763,0.064-1.103,0.187c-0.353,0.113-0.653,0.307-0.902,0.546
				c-0.221,0.261-0.406,0.554-0.497,0.878c-0.115,0.314-0.148,0.644-0.167,0.946c-0.028,0.61,0.058,1.129,0.129,1.485
				c0.074,0.358,0.14,0.556,0.14,0.556L71.596,92.292z"/>
		</g>
		<g>
			<path fill="#6E5D4B" d="M58.493,99.281c0,0,0.493,0.6,1.658,1.285c0.574,0.348,1.303,0.72,2.171,1.069
				c0.864,0.359,1.873,0.679,2.984,0.98c0.558,0.143,1.147,0.263,1.752,0.403c0.612,0.106,1.245,0.215,1.896,0.328
				c1.309,0.177,2.692,0.345,4.132,0.429c0.717,0.068,1.451,0.075,2.193,0.099c0.741,0.025,1.492,0.05,2.249,0.029
				c0.749-0.014,1.539-0.006,2.267-0.037c0.767-0.064,1.537-0.127,2.307-0.191l0.577-0.05l0.555-0.11l1.107-0.22
				c0.367-0.076,0.736-0.136,1.099-0.225l1.07-0.34c0.713-0.219,1.419-0.434,2.074-0.757c0.662-0.302,1.341-0.548,1.936-0.934
				c1.255-0.65,2.37-1.447,3.382-2.254c1.01-0.813,1.884-1.685,2.623-2.548c1.501-1.715,2.47-3.379,3.092-4.565
				c0.611-1.196,0.861-1.927,0.861-1.927l0.097,0.025c0,0-0.141,0.772-0.637,2.046c-0.244,0.638-0.581,1.399-1.043,2.235
				c-0.462,0.834-1.021,1.763-1.755,2.69c-0.726,0.93-1.596,1.879-2.616,2.778c-1.014,0.905-2.203,1.727-3.507,2.437
				c-0.633,0.395-1.35,0.642-2.05,0.945c-0.692,0.328-1.439,0.526-2.188,0.733l-1.124,0.318c-0.383,0.081-0.776,0.134-1.164,0.202
				l-1.169,0.192l-0.585,0.095l-0.579,0.032c-0.771,0.045-1.543,0.09-2.311,0.135c-0.81,0.016-1.554-0.012-2.326-0.016
				c-0.764,0.003-1.522-0.04-2.27-0.084c-0.748-0.043-1.487-0.068-2.212-0.154c-1.451-0.123-2.847-0.316-4.163-0.542
				c-0.654-0.135-1.29-0.266-1.906-0.394c-0.608-0.161-1.199-0.302-1.758-0.465c-1.115-0.342-2.124-0.698-2.988-1.09
				c-0.867-0.382-1.593-0.782-2.164-1.154c-1.154-0.728-1.645-1.364-1.645-1.364L58.493,99.281z"/>
		</g>
		<g>
			<path fill="#6E5D4B" d="M59.647,97.056c0,0-0.38,0.171-0.842,0.569c-0.462,0.391-0.988,0.999-1.312,1.699
				c-0.165,0.35-0.244,0.728-0.344,1.066c-0.095,0.342-0.227,0.652-0.324,0.937c-0.124,0.278-0.189,0.527-0.284,0.7
				c-0.077,0.175-0.14,0.279-0.14,0.279h-0.1c0,0-0.053-0.104-0.112-0.292c-0.066-0.188-0.15-0.463-0.157-0.798
				c-0.032-0.337,0.011-0.732,0.123-1.141c0.15-0.4,0.389-0.792,0.649-1.158c0.268-0.361,0.557-0.702,0.879-0.964
				c0.309-0.275,0.638-0.476,0.929-0.62c0.578-0.295,1.003-0.372,1.003-0.372L59.647,97.056z"/>
		</g>
		<g>
			<path fill="#6E5D4B" d="M95.338,87.189c0,0,0.808-0.24,2.073-0.254c0.316-0.002,0.659,0.003,1.022,0.046
				c0.367,0.015,0.74,0.125,1.136,0.197c0.377,0.135,0.795,0.217,1.171,0.423l0.583,0.281l0.546,0.363
				c0.388,0.218,0.669,0.565,1.01,0.841c0.306,0.308,0.545,0.668,0.804,0.994c0.193,0.364,0.361,0.727,0.506,1.073
				c0.136,0.349,0.195,0.7,0.272,1.013c0.171,0.625,0.131,1.172,0.139,1.542c0.002,0.371-0.016,0.582-0.016,0.582l-0.099,0.013
				c0,0-0.096-0.195-0.231-0.533c-0.073-0.168-0.152-0.372-0.235-0.604c-0.068-0.237-0.192-0.488-0.321-0.758
				c-0.134-0.267-0.238-0.573-0.396-0.868c-0.178-0.285-0.339-0.595-0.507-0.915c-0.206-0.291-0.396-0.613-0.618-0.919
				c-0.259-0.269-0.476-0.605-0.795-0.827l-0.452-0.366l-0.498-0.297c-0.321-0.219-0.695-0.324-1.032-0.483
				c-0.358-0.101-0.699-0.229-1.04-0.286c-0.336-0.083-0.662-0.127-0.964-0.162c-1.216-0.134-2.036,0.003-2.036,0.003L95.338,87.189
				z"/>
		</g>
		<path fill="none" stroke="#6E5D4B" stroke-miterlimit="10" d="M76.993,108.94c0,0,6.219,1.295,8.565-1.052"/>
		<path fill="none" stroke="#000000" stroke-miterlimit="10" d="M68.756,79.247c0,0-7.08-3.447-14.5-5.236"/>
		<path fill="none" stroke="#000000" stroke-miterlimit="10" d="M82.756,76.629c0,0,10.054-15.629,21.777-21.874"/>
		<circle fill="#323330" cx="65.578" cy="80.006" r="0.759"/>
		<circle fill="#323330" cx="86.689" cy="75.629" r="0.759"/>
		<circle fill="#FFFFFF" cx="64.996" cy="79.545" r="1.052"/>
		<circle fill="#FFFFFF" cx="85.636" cy="75.629" r="1.052"/>
		<ellipse fill="#CBA7A6" cx="93.608" cy="78.466" rx="3.023" ry="1.08"/>
		<ellipse fill="#CBA7A6" cx="98.329" cy="76.129" rx="2.197" ry="0.5"/>
		<ellipse fill="#CBA7A6" cx="100.292" cy="79.096" rx="1.964" ry="0.91"/>
		<ellipse fill="#CBA7A6" cx="59.749" cy="86.886" rx="1.757" ry="0.875"/>
		<ellipse fill="#CBA7A6" cx="62.85" cy="84.574" rx="1.969" ry="0.688"/>
		<ellipse fill="#CBA7A6" cx="65.261" cy="86.886" rx="1.62" ry="0.875"/>
	</g>
	<g>
		<path fill="#EDCEA7" d="M45.614,135.386c0,0,7.643,10.875-4.357,13.75s-10.76-8.099-10.76-8.099L45.614,135.386z"/>
		<path d="M77.959,144.019l0.812-11.592l-50.141-2.362c-2.069-0.449-4.348,1.957-5.09,5.375c-0.742,3.418,0.333,6.553,2.402,7.003
			c0.28,0.061,0.564,0.065,0.848,0.026L77.959,144.019z"/>
		<path fill="#EDCEA7" d="M42.572,142.947c-1.915,7.07-10.191,0.439-10.191,0.439c-4.75,3-6-1.083-6-1.083
			c-1.875,4.417-6,2.413-6,2.413s-9.875-6.83-1.875-16.33s27.107-1.331,27.107-1.331l3.27,3.964
			C48.884,131.02,45.451,132.321,42.572,142.947z"/>
		<path fill="#F0E734" d="M108.798,131.803c0,0-3.5-6.007-17-6.087s-18.208,10.959-18.104,14.023s5.937,8.731,2.104,20.064
			c-3.833,11.333,16.667,8.833,16.667,8.833S117.798,169.97,108.798,131.803z"/>
		<g>
			<ellipse cx="88.635" cy="163.92" rx="9.496" ry="4.95"/>
			<ellipse cx="83.453" cy="147.293" rx="1.96" ry="2.577"/>
			<ellipse cx="94.172" cy="146.56" rx="1.96" ry="2.577"/>
			<line fill="none" stroke="#000000" stroke-miterlimit="10" x1="79.139" y1="139.136" x2="84.131" y2="142.303"/>
			<line fill="none" stroke="#000000" stroke-miterlimit="10" x1="90.585" y1="142.303" x2="96.131" y2="137.636"/>
		</g>
		<path d="M161.298,132.803l-1.667-11.5l-49.5,8.333c-2.117,0-3.833,2.836-3.833,6.333s1.716,6.333,3.833,6.333
			c0.287,0,0.565-0.056,0.834-0.155L161.298,132.803z"/>
		<path fill="#EDCEA7" d="M154.881,117.011c0,0-8.375-5.875-25-3s-12.75,25.875-6.5,27.625c6.25,1.75,5.873-2.884,5.873-2.884
			s5.582,3.267,9.354-1.737c0,0,10.996,7.339,6.884-13.332l10.565-1.779C156.058,121.904,157.256,119.261,154.881,117.011z"/>
		<g>
			<path fill="#6E5D4B" d="M131.836,119.668c0,0-0.779,0.996-1.569,2.701c-0.408,0.843-0.791,1.868-1.133,2.979
				c-0.152,0.562-0.326,1.137-0.425,1.74c-0.136,0.595-0.212,1.208-0.274,1.822c-0.091,0.611-0.058,1.232-0.085,1.835
				c-0.015,0.604,0.056,1.198,0.072,1.772c0,0.576,0.117,1.123,0.139,1.652c0.021,0.531,0.138,1.018,0.197,1.479
				c0.085,0.455,0.087,0.894,0.193,1.258c0.087,0.369,0.155,0.694,0.201,0.967c0.106,0.541,0.15,0.861,0.15,0.861l-0.093,0.036
				c0,0-0.152-0.278-0.39-0.784c-0.125-0.251-0.265-0.561-0.418-0.921c-0.172-0.354-0.279-0.782-0.424-1.242
				c-0.13-0.464-0.306-0.962-0.373-1.514c-0.085-0.547-0.192-1.126-0.222-1.73c0.008-0.606-0.044-1.233,0.027-1.866
				c0.075-0.632,0.091-1.277,0.233-1.907c0.103-0.635,0.221-1.265,0.397-1.873c0.14-0.616,0.354-1.199,0.545-1.766
				c0.412-1.125,0.89-2.136,1.373-2.959c0.938-1.663,1.803-2.603,1.803-2.603L131.836,119.668z"/>
		</g>
		<g>
			<path fill="#6E5D4B" d="M138.048,122.913c0,0-0.464,0.806-0.823,2.136c-0.103,0.327-0.162,0.696-0.25,1.076
				c-0.047,0.39-0.148,0.79-0.169,1.216c-0.05,0.423-0.071,0.86-0.065,1.306c-0.023,0.444,0.04,0.895,0.063,1.343
				c0.044,0.447,0.136,0.89,0.207,1.324c0.106,0.428,0.211,0.849,0.312,1.256c0.115,0.403,0.231,0.791,0.316,1.169
				c0.088,0.377,0.23,0.716,0.318,1.046c0.103,0.324,0.172,0.635,0.28,0.892c0.095,0.263,0.173,0.496,0.231,0.692
				c0.126,0.388,0.183,0.622,0.183,0.622l-0.086,0.05c0,0-0.157-0.176-0.407-0.506c-0.254-0.328-0.626-0.799-0.938-1.441
				c-0.158-0.319-0.36-0.655-0.496-1.042c-0.145-0.384-0.287-0.795-0.411-1.226c-0.078-0.443-0.171-0.899-0.227-1.366
				c-0.02-0.473-0.081-0.947-0.081-1.424c0.013-0.477-0.013-0.953,0.048-1.419c0.032-0.467,0.092-0.922,0.179-1.358
				c0.149-0.875,0.4-1.667,0.661-2.321c0.513-1.316,1.071-2.078,1.071-2.078L138.048,122.913z"/>
		</g>
		<path fill="#2F302D" d="M163.725,127.636c0,3.498-1.716,5.428-3.833,5.428c-2.117,0-3.833-1.93-3.833-5.428
			c0-3.498,1.716-6.333,3.833-6.333C162.009,121.303,163.725,124.138,163.725,127.636z"/>
		<g>
			<path fill="#6E5D4B" d="M26.742,142.485c0,0-0.279-0.693-0.604-1.768c-0.335-1.072-0.655-2.543-0.814-4.053
				c-0.082-0.754-0.132-1.521-0.095-2.245c0.044-0.36,0.1-0.709,0.173-1.033c0.094-0.324,0.191-0.626,0.289-0.899
				c0.119-0.27,0.249-0.508,0.358-0.717c0.101-0.212,0.25-0.371,0.354-0.505c0.211-0.268,0.344-0.404,0.344-0.404l0.086,0.051
				c0,0-0.034,0.196-0.114,0.508c-0.029,0.162-0.101,0.336-0.125,0.561c-0.039,0.214-0.084,0.456-0.133,0.72
				c-0.025,0.269-0.06,0.555-0.107,0.854c-0.014,0.307-0.048,0.626-0.087,0.956c-0.06,0.665-0.151,1.383-0.144,2.111
				c-0.001,1.456,0.191,2.921,0.356,4.016c0.176,1.096,0.358,1.815,0.358,1.815L26.742,142.485z"/>
		</g>
		<g>
			<path fill="#6E5D4B" d="M34.846,143.443c0,0-0.279-0.693-0.604-1.768c-0.335-1.072-0.655-2.543-0.814-4.053
				c-0.082-0.754-0.132-1.521-0.095-2.245c0.044-0.36,0.1-0.709,0.173-1.033c0.094-0.324,0.191-0.626,0.289-0.899
				c0.119-0.27,0.249-0.508,0.358-0.717c0.101-0.212,0.25-0.371,0.354-0.505c0.211-0.268,0.344-0.404,0.344-0.404l0.086,0.051
				c0,0-0.034,0.196-0.114,0.508c-0.029,0.162-0.101,0.336-0.125,0.561c-0.039,0.214-0.084,0.456-0.133,0.72
				c-0.025,0.269-0.06,0.555-0.107,0.854c-0.014,0.307-0.048,0.626-0.087,0.956c-0.06,0.665-0.151,1.383-0.144,2.111
				c-0.001,1.456,0.191,2.921,0.356,4.016c0.176,1.096,0.358,1.815,0.358,1.815L34.846,143.443z"/>
		</g>
		<ellipse fill="#FFFFFF" cx="84.467" cy="163.257" rx="3.706" ry="2.105"/>
	</g>
	<path fill="#CBA7A6" d="M59.631,39.691c0,0,3.018,2.558,38.5-3.888c26.375-4.792,35.536,18.314,35.536,18.314
		s-19.536-18.968-36.286-13.024c-15.439,5.479-37.447,7.924-42.648,4.413L59.631,39.691z"/>
</g>
</svg>
