<?xml version="1.0" encoding="utf-8"?>
<!-- Generator: Adobe Illustrator 20.1.0, SVG Export Plug-In . SVG Version: 6.00 Build 0)  -->
<svg version="1.1" id="Capa_1" xmlns="http://www.w3.org/2000/svg" xmlns:xlink="http://www.w3.org/1999/xlink" x="0px" y="0px"
	 viewBox="0 0 291.333 772.889" enable-background="new 0 0 291.333 772.889" xml:space="preserve">
<g>
	<path fill="#F1F2F1" d="M119.917,166.444c0,0,10.25-138.201,104.167-145.101c0,0-83.292,120.118-82.354,154.276L119.917,166.444z"
		/>
	<path fill="#F1F2F1" d="M222.989,22.934c0.705-1.028,1.095-1.59,1.095-1.59c-93.917,6.899-104.167,145.101-104.167,145.101
		l8.027,3.377C140.686,86.108,205.644,35.18,222.989,22.934z"/>
	<path fill="#BEBEBF" d="M136.417,156.069c0,0-20.875-8-31.375,3.75s-13.25,31.395,4.625,38.01h33.04
		C142.707,197.829,180.042,173.944,136.417,156.069z"/>
	<path fill="#EAEBEA" d="M117.333,171.611c-18.682-3.021-11.887-12.117-5.049-16.664c-2.659,0.993-5.157,2.538-7.243,4.872
		c-10.5,11.75-13.25,31.395,4.625,38.01h33.04C149.293,189.844,156.5,177.944,117.333,171.611z"/>
	<path fill="#99AAB5" d="M191.917,312.403c0,0-3.738,40.236-12.083,35.708S185.895,302.191,191.917,312.403z"/>
	<path fill="#EDCEA7" d="M185.375,312.113L232,296.381c0,0,4.333-11.353,7.667-12.562l14.5-1.542c0,0,6.667-0.5,9.333-5.667
		s12.333-7.375,11.667-1.104c-0.667,6.271-5.833,12.104-12.833,14.104c0,0,1.333,2.238,0.5,3.869c0,0,2.667,0.631,2.5,4.298
		c-0.167,3.667-3.167,11.147-5.833,12.324c0,0-5,0.843-6.167-0.99c0,0-0.833,6.981-13.667,0.99l-60.344,22.911L185.375,312.113z"/>
	<path fill="#C0C1C1" d="M135.954,673.444L126,671.278c0,0-2.167-9.667-8.167-13.833h-5.167c0,0-29.667,45.5-30.667,71l3.5,1
		c0,0,14-9.186,23.667-27.343c0,0,10.625,1.843,11.396,6.177L135.954,673.444z"/>
	<path fill="#989796" d="M151.833,678.944c0,0-8.5-9.167-13.833-9.5c0,0-15.833,11.426-22,44.713c0,0,8.216,10.576,23.667,20.335
		c0,0,3,4.286,12.167-21.548C161,687.111,151.833,678.944,151.833,678.944z"/>
	<path fill="#526A9E" d="M134.333,638.944l8.5,12l2,37.5l-2.333,13c0,0-7,17.5-2.167,31.667c0,0,16.167,17.167,33.833,16
		c0,0,33-78.333,28-118.5c0,0-6-15.833-20.5-12C167.167,622.444,134,636.111,134.333,638.944z"/>
	<path fill="#C0C1C1" d="M143.411,661.774l58.104-5.91c1.203-9.222,1.569-17.881,0.651-25.253c0,0-6-15.833-20.5-12
		c-14.5,3.833-47.667,17.5-47.333,20.333l8.5,12L143.411,661.774z"/>
	<path fill="#CCAB89" d="M202.167,632.444l8.25,22.25c0,0,7,10.25,28.5,6.5l10.75-3.5c0,0,17.491-13.75,12.621-29.25
		s-7.121-21.878-7.121-21.878l-31,4.128L202.167,632.444z"/>
	<path fill="#D9DBDB" d="M236.667,653.819c-12.027-2.316-18.781-22.595-21.67-34.059l-12.83,12.684l8.25,22.25c0,0,7,10.25,28.5,6.5
		l10.75-3.5c0,0,1.4-1.101,3.297-3.03C248.342,652.272,236.667,653.819,236.667,653.819z"/>
	<path fill="#CA5F56" d="M69.167,383.694l-4.25-3c0,0-36,33.25-42.5,56s58.693,60.555,58.693,60.555s15.057,32.945,10.557,59.195
		s6.584,34.709,11.167,34.729c4.583,0.021,13.219,3.193,13.219,3.193s89.114-32.923,95.864-31.923s12.25-13.5,6.75-20
		s-26.75-46-19-56s46.5-71.713,28.5-86.606c-18-14.894-67.583-36.873-73.167-36.508L69.167,383.694z"/>
	<path fill="#D9DBDB" d="M64.365,409.983c0,0-6.948,9.712-4.823,23.962s2.125,14.25,2.125,14.25l10.75,6.151l9.25,1.856l5.822,1.32
		l1.263,19.563v10.361l2.598,4.5l17.818,2.75l14.459-4.75l7.041-9l1.667-4.623l-36.598-39.377L64.365,409.983z"/>
	<polygon fill="#F0D5A2" points="124.917,466.444 126.667,476.726 166.667,506.694 178.167,461.694 	"/>
	<path fill="#E9C6BC" d="M122.694,473.142c0,0,22.972,12.302,36.597,6.802s23.875-22,23.875-22L122.694,473.142z"/>
	<path fill="none" stroke="#AB6E6A" stroke-miterlimit="10" d="M164.097,469.111c0,0-5.987,7.833-4.334,15.083"/>
	<polygon fill="#B6B6B6" points="166.667,506.694 179.5,451.816 193,455.444 181.833,463.944 187.667,469.111 	"/>
	<polygon fill="#B6B6B6" points="166.667,506.694 114.152,459.207 98,460.611 110.167,473.142 118.167,473.142 116.167,476.726 	"/>
	<path fill="#526A9E" d="M249.917,577.944c0,0,6.5-14.25-1.5-20c-8-5.75-83.622,13.679-86.436,22.84l-39.968,35.094
		c0,0-0.096,22.817,13.654,29.067s55.327-16.25,56.664-17.5C192.33,627.444,243.917,577.694,249.917,577.944z"/>
	<path fill="#A9B8D0" d="M256.167,598.194c0,0,9.5-13.5-7.5-22c0,0-59.673,22.25-56.336,51.25l2.086,2.75c0,0-5.75,8.25,9.75,6.5
		c0,0,26.5-35.75,53.25-23.75C257.417,612.944,269.167,606.194,256.167,598.194z"/>
	<path fill="#927760" d="M247.917,650.274c0,0-1.875-3.955-8.688-0.642c-6.812,3.312-6.696,6.444-6.344,7.562l17.531,55.75l8.5-2.75
		L247.917,650.274z"/>
	<path fill="#E6D4C2" d="M258.917,710.194c0.333,1.917-1.302,3.287-3.748,3.786c-2.446,0.499-4.633-0.095-4.884-1.328
		s1.527-2.637,3.973-3.136C256.703,709.018,258.701,708.955,258.917,710.194z"/>
	<path fill="#EDCEA7" d="M211.5,445.719c0,0,1.833-45.941-7.5-53.108c0,0-30.333,2.333-35,9.833l16,59.483L211.5,445.719z"/>
	<path fill="#DEE0DF" d="M184.333,459.449c0,0,11.029-10.137,11.859-13.317c0,0-6.853-35.704-3.862-39.831
		c0,0,1.288-0.316-4.414-1.857l-8.083,4.802L184.333,459.449z"/>
	<g>
		<path fill="#A7D1F0" d="M183.798,461.225c0,0,12.865-19.132,31.491-20.1c0,0,4.301,0.974,3.926,3.904l-31.07,22.534
			C188.145,467.564,181.282,467.46,183.798,461.225z"/>
		<path fill="#A7D1F0" d="M234.928,452.293c0,0,7.66-6.196-2.477-8.08c-10.136-1.885-28.36,7.148-43.031,18.384l-2.326,5.033
			c0,0-1.032,6.504,1.947,7.774L234.928,452.293z"/>
		<path fill="#FFFFFF" d="M216.12,466.976c-13.415,7.443-25.538,11.215-27.079,8.427s8.086-11.082,21.501-18.525
			s25.538-11.215,27.079-8.427S229.534,459.533,216.12,466.976z"/>
	</g>
	<path fill="#A7D1F0" d="M88.751,445.719c0,0-16.011,7.637-21.214-1.402s-3.13-22.101,0-35.07l47.784-4.469l3.012,34.5
		L88.751,445.719z"/>
	<path fill="#567486" d="M188.917,310.788l-19.066,4.656l-67.434-3.667l9.917-59.062l-28.667,7.245c0,0-10.556,56.818-5.611,68.818
		s-14.722,81.396-19.722,84.531c0,0,70.527-12.469,101.43,0c0,0,2.783-59.531,12.01-63.864l9.81-0.978
		C181.583,348.466,173.163,338.039,188.917,310.788z"/>
	<path fill="#BBBBBB" d="M98.004,302.347c0,0-9.567,46.431,28.631,49.764s29.031-38.833,29.031-38.833L98.004,302.347z"/>
	<path fill="#D6B591" d="M189.554,274.303l1.571-18.468l-60.955-15.622l-16.024,4.556l-5.656,19.009l-9.521,28.592
		c0,0-4.877,28.866,6.222,41.317c11.225,12.591,35.819,25.45,57.498,0C162.69,333.687,188.399,287.887,189.554,274.303z"/>
	<path fill="#EDCEA7" d="M175.333,274.303l-21.667-8.192l-22.75-6.583l-12.083-1.25h-8.706l-1.636,5.5l-9.521,28.592
		c0,0-4.877,28.866,6.222,41.317c11.225,12.591,35.819,25.45,57.498,0c0,0,15.347-27.342,22.858-46.04L175.333,274.303z"/>
	<path fill="#EDCEA7" d="M179.323,279.278l-27.489-14l-20.167-5.667l-21.235-2.358l-1.941,6.524l-9.521,28.592
		c0,0-4.877,28.866,6.222,41.317c11.225,12.591,35.819,25.45,57.498,0c0,0,15.729-28.022,23.134-46.729L179.323,279.278z"/>
	<g>
		<circle fill="#2F302D" cx="138.135" cy="271.913" r="3.594"/>
		<circle fill="#FFFFFF" cx="139.76" cy="271.913" r="1.97"/>
	</g>
	<g>
		<circle fill="#2F302D" cx="168.135" cy="281.845" r="3.594"/>
		<circle fill="#FFFFFF" cx="169.76" cy="281.845" r="1.97"/>
	</g>
	<g>
		<path fill="#CCAB89" d="M149.65,289.272c0,0,1.581-0.647,4.084-1.211c0.627-0.133,1.31-0.262,2.041-0.364
			c0.732-0.098,1.51-0.15,2.321-0.163c0.407,0.017,0.82,0.034,1.238,0.052c0.416,0.066,0.844,0.093,1.266,0.195
			c0.418,0.118,0.856,0.184,1.261,0.38l0.621,0.256l0.579,0.357l0.29,0.18c0.162,0.106,0.181,0.151,0.279,0.23l0.474,0.424
			c0.295,0.366,0.643,0.768,0.78,1.241c0.375,0.935,0.121,2.019-0.368,2.761c-0.496,0.764-1.168,1.279-1.822,1.69
			c-0.671,0.386-1.333,0.686-1.97,0.871c-0.313,0.11-0.621,0.185-0.921,0.229c-0.296,0.055-0.574,0.111-0.843,0.122
			c-0.53,0.066-0.996,0.053-1.376,0.023c-0.379-0.008-0.673-0.091-0.872-0.119c-0.198-0.038-0.303-0.058-0.303-0.058l0.013-0.099
			c0,0,0.106-0.006,0.306-0.017c0.199-0.025,0.486,0.009,0.849-0.059c0.363-0.051,0.798-0.11,1.287-0.235
			c0.488-0.114,1.029-0.294,1.59-0.533c0.571-0.216,1.151-0.542,1.715-0.929c0.532-0.415,1.125-0.852,1.473-1.453
			c0.385-0.57,0.556-1.241,0.35-1.893c-0.076-0.348-0.293-0.603-0.491-0.914l-0.449-0.449c-0.064-0.058-0.174-0.189-0.2-0.186
			l-0.243-0.168l-0.489-0.335l-0.544-0.251c-0.351-0.193-0.755-0.27-1.134-0.397c-0.385-0.112-0.789-0.154-1.178-0.235
			c-0.399-0.034-0.793-0.068-1.18-0.102c-0.781-0.025-1.54,0.001-2.26,0.052c-0.72,0.058-1.399,0.144-2.025,0.239
			c-2.503,0.411-4.115,0.961-4.115,0.961L149.65,289.272z"/>
	</g>
	<g>
		<path fill="#82694E" d="M146.606,262.519c0,0-0.089-0.085-0.256-0.202c-0.162-0.12-0.4-0.297-0.703-0.521
			c-0.598-0.437-1.429-1.03-2.405-1.68c-0.481-0.334-1.006-0.679-1.555-1.046c-0.541-0.371-1.132-0.744-1.696-1.183
			c-0.599-0.405-1.134-0.938-1.762-1.399c-0.609-0.483-1.242-0.971-1.939-1.365l-1.029-0.62c-0.357-0.184-0.712-0.368-1.065-0.55
			c-0.708-0.363-1.401-0.742-2.107-1.039c-0.7-0.309-1.37-0.64-2.028-0.901c-0.661-0.263-1.285-0.512-1.862-0.741
			c-1.155-0.477-2.165-0.729-2.851-0.998c-0.695-0.244-1.092-0.383-1.092-0.383l0.07-0.394c0,0,0.421,0.03,1.159,0.082
			c0.737,0.064,1.802,0.115,3.062,0.311c0.634,0.096,1.32,0.2,2.047,0.31c0.732,0.103,1.477,0.324,2.268,0.494
			c0.793,0.165,1.597,0.401,2.407,0.676c0.407,0.133,0.818,0.268,1.229,0.402l1.218,0.486c0.824,0.304,1.633,0.662,2.441,1.016
			c0.824,0.319,1.567,0.792,2.282,1.24c0.672,0.52,1.308,1.044,1.822,1.646c0.265,0.292,0.503,0.595,0.739,0.877
			c0.215,0.308,0.421,0.605,0.603,0.899c0.194,0.282,0.343,0.588,0.482,0.876c0.133,0.292,0.289,0.538,0.373,0.821
			c0.094,0.269,0.182,0.52,0.263,0.753c0.057,0.243,0.108,0.467,0.155,0.669c0.08,0.41,0.108,0.728,0.111,0.967
			c0.005,0.234-0.01,0.345-0.01,0.345L146.606,262.519z"/>
	</g>
	<g>
		<path fill="#82694E" d="M165.819,271.739c0,0,0.098-0.327,0.367-0.773c0.265-0.45,0.703-1.023,1.326-1.544
			c0.619-0.525,1.416-1.027,2.359-1.286c0.478-0.103,0.984-0.162,1.508-0.148c0.515-0.001,1.038-0.003,1.561-0.004
			c0.516-0.019,1.033-0.003,1.539,0.023c0.504,0.002,1.003,0.086,1.478,0.147c0.475,0.055,0.932,0.149,1.359,0.25
			c0.428,0.089,0.825,0.201,1.188,0.322c0.727,0.213,1.312,0.429,1.711,0.621c0.397,0.176,0.624,0.277,0.624,0.277l-0.091,0.389
			c0,0-0.244,0.01-0.67,0.028c-0.423,0.018-1.015,0.013-1.721,0.102c-0.351,0.025-0.728,0.071-1.125,0.148
			c-0.396,0.073-0.807,0.107-1.23,0.213c-0.843,0.182-1.727,0.366-2.587,0.644c-0.87,0.234-1.654,0.775-2.436,1.005
			c-0.784,0.236-1.584,0.25-2.3,0.261c-0.721-0.008-1.37-0.076-1.86-0.161c-0.485-0.079-0.803-0.167-0.803-0.167L165.819,271.739z"
			/>
	</g>
	<g>
		<path fill="#F0D5A2" d="M187.917,404.444c0,0,0.333,29.495,3.667,39.872c3.333,10.378-39.667,52.878-75.917,20.378l-13.25-48
			C102.417,416.694,157.417,389.194,187.917,404.444z"/>
		<path fill="#954141" d="M189.167,406.111c0,0-13.5-9.167-48.333,2.833s-46.667,14.667-49.333,19c0,0-5.167-2.667-1.333-6.5
			c0,0,1.667-56.333,42.333-63.333s55.167,36.5,55.333,40.833C187.833,398.944,196,402.111,189.167,406.111z"/>
		<circle fill="#2F302D" cx="169" cy="420.444" r="3.667"/>
		<g>
			<path fill="#AB6E6A" d="M154.967,432.74c0,0,0.261-0.253,0.771-0.624c0.512-0.367,1.28-0.863,2.315-1.236
				c0.512-0.201,1.104-0.322,1.74-0.392c0.636-0.037,1.332-0.002,2.006,0.223c0.69,0.182,1.329,0.569,1.921,1.012
				c0.569,0.405,1.229,1.128,1.2,2.068c-0.054,0.927-0.626,1.593-1.152,2.116c-0.548,0.528-1.155,0.928-1.75,1.286
				c-1.212,0.678-2.408,1.131-3.451,1.448c-1.047,0.305-1.93,0.51-2.562,0.597c-0.628,0.101-1.001,0.09-1.001,0.09l-0.011-0.099
				c0,0,0.34-0.102,0.921-0.331c0.578-0.24,1.407-0.56,2.373-1.006c0.963-0.444,2.093-0.949,3.214-1.603
				c0.566-0.312,1.134-0.666,1.636-1.081c0.49-0.415,0.926-0.927,0.984-1.463c0.044-0.539-0.304-1.065-0.837-1.491
				c-0.51-0.424-1.062-0.802-1.667-0.994c-0.591-0.238-1.214-0.29-1.802-0.303c-0.589,0.025-1.154,0.097-1.656,0.255
				c-1.013,0.286-1.801,0.717-2.328,1.043c-0.528,0.331-0.8,0.56-0.8,0.56L154.967,432.74z"/>
		</g>
		
			<ellipse transform="matrix(0.215 -0.9766 0.9766 0.215 -322.7309 510.8829)" fill="#AB6E6A" cx="156.437" cy="456.201" rx="7.988" ry="2.917"/>
		<g>
			<path fill="#AB6E6A" d="M159.799,465.813c0,0-0.283,0.358-0.777,0.833c-0.485,0.488-1.218,1.043-1.995,1.541
				c-0.389,0.247-0.78,0.505-1.175,0.688c-0.404,0.161-0.801,0.261-1.151,0.3c-0.347,0.049-0.645,0.05-0.857,0.024
				c-0.209-0.013-0.331-0.039-0.331-0.039l-0.024-0.097c0,0,0.094-0.086,0.263-0.203c0.165-0.13,0.411-0.27,0.698-0.444
				c0.291-0.161,0.625-0.347,1-0.501c0.378-0.145,0.802-0.263,1.205-0.435c0.809-0.337,1.58-0.769,2.154-1.11
				c0.572-0.345,0.921-0.627,0.921-0.627L159.799,465.813z"/>
		</g>
		<path fill="#2F302D" d="M117.333,424.111L120,436.278c0,0,3.667,5.175,15.167,2.004c11.5-3.171,12.833-7.571,12.833-7.571
			s3-14.767,1.833-16.934C148.667,411.611,125.167,417.278,117.333,424.111z"/>
		<g>
			<path fill="#2F302D" d="M110.936,453.867c0,0,5.235-4.413,12.374-11.768c1.79-1.832,3.681-3.862,5.657-6.03
				c1.951-2.189,4.014-4.494,6.05-6.959c2.062-2.443,4.099-5.045,6.122-7.719c1.015-1.335,1.983-2.72,2.985-4.088
				c0.95-1.404,1.938-2.791,2.862-4.218c1.842-2.859,3.635-5.75,5.218-8.692c0.397-0.734,0.813-1.455,1.19-2.191
				c0.372-0.738,0.743-1.472,1.111-2.202c0.769-1.444,1.396-2.931,2.065-4.369c0.701-1.425,1.234-2.89,1.842-4.289
				c0.574-1.413,1.032-2.831,1.564-4.183c0.478-1.37,0.863-2.727,1.28-4.029c0.372-1.313,0.649-2.602,0.961-3.831
				c0.491-2.479,0.97-4.763,1.133-6.819c0.114-1.025,0.244-1.986,0.238-2.879c0.039-0.895,0.074-1.716,0.107-2.458
				c0.042-1.487-0.092-2.652-0.09-3.454c-0.025-0.802-0.038-1.229-0.038-1.229l0.198-0.027c0,0,0.065,0.424,0.188,1.218
				c0.103,0.797,0.334,1.965,0.444,3.468c0.062,1.503,0.257,3.343,0.094,5.445c-0.041,2.109-0.3,4.48-0.717,7.045
				c-0.267,1.269-0.5,2.606-0.827,3.967c-0.372,1.348-0.713,2.759-1.146,4.182c-0.88,2.844-2.019,5.771-3.333,8.733
				c-0.702,1.46-1.372,2.966-2.177,4.424c-0.765,1.48-1.572,2.958-2.449,4.411c-1.69,2.943-3.587,5.818-5.528,8.656
				c-0.966,1.422-1.993,2.8-2.983,4.196c-1.041,1.358-2.048,2.733-3.1,4.056c-2.098,2.649-4.204,5.222-6.331,7.633
				c-2.106,2.429-4.214,4.713-6.242,6.849c-2.047,2.118-4.003,4.098-5.852,5.883c-7.372,7.164-12.741,11.427-12.741,11.427
				L110.936,453.867z"/>
		</g>
		<polygon fill="#526A9E" points="156.437,442.694 155.792,446.569 136.917,451.069 		"/>
		<polygon fill="#526A9E" points="159.763,442.694 159.292,446.882 174.417,449.569 		"/>
		<g>
			<path fill="#526A9E" d="M158.214,412.294c0,0-0.172,0.49-0.319,1.38c-0.061,0.444-0.124,0.992-0.061,1.604
				c0.055,0.598,0.334,1.315,1.013,1.55c0.663,0.231,1.507,0.101,2.318-0.199c0.835-0.253,1.495-0.819,2.077-1.578
				c1.148-1.504,1.961-3.425,2.823-5.308c0.862-1.888,1.678-3.839,2.969-5.451c0.658-0.776,1.478-1.495,2.475-1.773
				c0.992-0.296,1.984-0.105,2.748,0.214c0.377,0.178,0.736,0.354,1.029,0.581c0.313,0.202,0.585,0.418,0.825,0.638
				c0.511,0.405,0.87,0.84,1.189,1.171c0.593,0.703,0.904,1.122,0.904,1.122l-0.074,0.067c0,0-0.391-0.34-1.075-0.936
				c-0.367-0.264-0.769-0.637-1.291-0.968c-0.497-0.367-1.122-0.675-1.793-0.933c-0.68-0.228-1.448-0.31-2.167-0.041
				c-0.716,0.262-1.397,0.806-1.97,1.526c-1.183,1.417-2.112,3.285-3.047,5.128c-0.932,1.85-1.816,3.769-3.095,5.33
				c-0.614,0.766-1.482,1.452-2.387,1.663c-0.861,0.267-1.796,0.394-2.595,0.072c-0.406-0.149-0.687-0.496-0.87-0.825
				c-0.075-0.174-0.125-0.352-0.182-0.52c-0.025-0.173-0.048-0.341-0.071-0.504c-0.036-0.653,0.057-1.207,0.141-1.657
				c0.193-0.896,0.391-1.383,0.391-1.383L158.214,412.294z"/>
		</g>
		<circle fill="#FFFFFF" cx="169.851" cy="419.082" r="1.922"/>
		<path fill="#DEE0DF" d="M109.167,410.944l4.386,11.376c0,0,8.036,33.384,10.072,35.624c2.037,2.24,20.764,19.027,26.477,18.782
			c5.714-0.245-23.072,3.4-34.436-12.032s-14.277-44.25-14.277-44.25L109.167,410.944z"/>
	</g>
	<ellipse fill="#EDCEA7" cx="102.354" cy="272.069" rx="9.188" ry="11.75"/>
	
		<ellipse transform="matrix(0.5 -0.866 0.866 0.5 -173.6853 305.0571)" fill="#EDCEA7" cx="177.345" cy="302.944" rx="11.75" ry="9.188"/>
	<path fill="#DEA6A6" d="M106.167,281.194c0,0,27.75,27.25,58.625,26l-5.625,1.5l-13.25,34
		C145.917,342.694,86.042,351.319,106.167,281.194z"/>
	
		<ellipse transform="matrix(0.3745 -0.9272 0.9272 0.3745 -226.491 323.6369)" fill="#AB6E6A" cx="126.635" cy="329.694" rx="7.25" ry="15.094"/>
	<path fill="#333C3B" d="M189.554,274.303c0,0-9.638-30.109-69.888-27.609l-10,3l12-27.5c0,0,25.5-5.262,34.5-12.506
		c9-7.244,82.75-23.744,98,2.256C269.417,237.944,226.442,274.162,189.554,274.303z"/>
	<path fill="#51595B" d="M124.292,241.884l33.291-1.773l24.834-6.834l14.75-14.75c0,0,24.417-19.302,51.965-12.274
		c-22.191-17.587-84.723-3.198-92.965,3.435c-9,7.244-34.5,12.506-34.5,12.506l-10.275,23.547L124.292,241.884z"/>
	<path fill="#FFFFFF" d="M223.667,208.111l-3.25,2.833l-1.167,26.5l2.208,2.768l-0.625,2.232l-1.917,1.25l-3.583-0.417l-0.667-1.833
		l-5.083,2.25l-0.667-1l-0.417-3.667l1.333-1.5l2.583,0.083l1.5-25.083l-3.083-0.333l-3.25-2.5c0,0,0.583-2.75,1-3
		c0.417-0.25,2.917-1.167,2.917-1.167l3.25,2l1.667-0.583l1.583-1.917l4-1.167l2.083,1.75L223.667,208.111z"/>
	<polygon fill="#FFFFFF" points="211.333,223.778 210.5,231.611 198,230.444 196.833,233.278 193.667,233.278 191.125,231.944 
		192.33,229.694 193.583,228.111 190.75,226.361 188.583,223.778 190.083,220.194 192.33,218.944 195.083,219.611 196.583,222.778 	
		"/>
	<path fill="#FFFFFF" d="M221.333,225.194v6.583l13.083,2.417l0.583,4.25c0,0,1.833,1.417,3.583,1.167s0.333,1.417,1.75-0.25
		c1.417-1.667,1.833,1.5,1.417-1.667s-0.417-3.167-0.417-3.167l2.333-1.875l0.917-2.625v-3.333l-3-1.5l-2.833,0.917l-1.417,1.667
		L221.333,225.194z"/>
	<path fill="#FFFFFF" d="M239.75,211.278l-3.833-2.25H232l-3.417,0.75l-1.5,3.25l1,4.333l-3.333,3.167l1.417,2l1.667-1.5l0.25,0.833
		l-1.333,1.917l0.833,0.333l2-1.75l0.75,1l-1.75,1.833c0,0,0.917,0.667,1.25,0.583c0.333-0.083,1.833-1.917,1.833-1.917l3.583,0.417
		l2.333-0.167l3.167-3l0.833-4.333L239.75,211.278z M233.523,217.406c-0.841,0-1.523-0.682-1.523-1.523
		c0-0.841,0.682-1.523,1.523-1.523s1.523,0.682,1.523,1.523C235.045,216.725,234.364,217.406,233.523,217.406z M237.167,222.194
		c-0.874,0-1.583-0.821-1.583-1.833c0-1.013,0.709-1.833,1.583-1.833s1.583,0.821,1.583,1.833
		C238.75,221.374,238.041,222.194,237.167,222.194z"/>
	<polygon fill="#EDCEA7" points="107.833,202.444 88.667,260.319 109.667,255.111 126.635,209.028 	"/>
	<g>
		<path fill="#CCAB89" d="M239.987,289.229l7.212-2.06l0.115-0.033l0.085,0.094l7.468,8.299l0.138,0.153l-0.06,0.201
			c-0.288,0.958-0.647,1.86-1.072,2.753c-0.217,0.443-0.448,0.88-0.706,1.305c-0.118,0.218-0.272,0.418-0.408,0.627
			c-0.134,0.211-0.285,0.412-0.448,0.605c-0.163,0.193-0.305,0.402-0.495,0.577c-0.183,0.18-0.358,0.366-0.552,0.537l-0.623,0.474
			c-0.216,0.148-0.463,0.259-0.695,0.388c-0.225,0.145-0.502,0.189-0.758,0.272c-0.13,0.035-0.259,0.078-0.391,0.105l-0.406,0.03
			c-0.27,0.01-0.544,0.061-0.807-0.003l-0.794-0.125l-0.085-0.013l-0.084-0.066c-0.919-0.722-1.741-1.506-2.49-2.399
			c-0.182-0.227-0.362-0.456-0.525-0.703c-0.17-0.239-0.313-0.504-0.44-0.777c-0.132-0.271-0.223-0.569-0.293-0.873l-0.044-0.478
			l0.067-0.488l0.432,0.284c-0.974,0.655-1.968,1.281-2.967,1.901l-0.059-0.081c0.889-0.769,1.784-1.531,2.699-2.265l0.457-0.367
			l-0.025,0.651l-0.013,0.348l0.068,0.354c0.082,0.235,0.174,0.466,0.31,0.689c0.129,0.222,0.279,0.439,0.441,0.649
			c0.157,0.213,0.335,0.415,0.514,0.615c0.731,0.787,1.584,1.506,2.455,2.128l-0.169-0.08l0.633,0.086
			c0.211,0.055,0.419,0,0.628-0.009l0.313-0.023c0.102-0.023,0.201-0.062,0.302-0.091c0.198-0.072,0.41-0.096,0.595-0.213
			c0.188-0.103,0.389-0.181,0.571-0.301l0.534-0.388c0.17-0.143,0.326-0.307,0.493-0.457c0.172-0.144,0.308-0.332,0.462-0.5
			c0.154-0.168,0.299-0.346,0.43-0.537c0.132-0.19,0.282-0.365,0.4-0.567c0.256-0.388,0.49-0.792,0.713-1.206
			c0.436-0.827,0.817-1.706,1.107-2.583l0.077,0.354l-7.199-8.534l0.2,0.061l-7.288,1.773L239.987,289.229z"/>
	</g>
	<g>
		<path fill="#CCAB89" d="M251.537,291.561c0,0,0.68-0.102,1.692-0.3c1.01-0.206,2.357-0.46,3.686-0.783
			c0.666-0.156,1.32-0.359,1.939-0.511c0.624-0.133,1.214-0.222,1.725-0.285c1.021-0.126,1.741-0.119,1.741-0.119l0.029,0.096
			c0,0-0.148,0.103-0.42,0.252c-0.267,0.164-0.664,0.352-1.151,0.546c-0.486,0.196-1.066,0.389-1.701,0.528
			c-0.639,0.127-1.332,0.194-2.019,0.28c-1.375,0.172-2.75,0.307-3.787,0.343c-1.035,0.05-1.726,0.053-1.726,0.053L251.537,291.561z
			"/>
	</g>
	<g>
		<path fill="#CCAB89" d="M249.465,302.958c0.016-0.013-0.122,0.335,0.095,0.819c0.109,0.236,0.368,0.438,0.722,0.525
			c0.352,0.091,0.784,0.094,1.248,0.023c0.468-0.07,1.025-0.118,1.568-0.153c0.552-0.041,1.123-0.1,1.694-0.223
			c1.144-0.235,2.265-0.801,3.143-1.661c0.442-0.425,0.831-0.907,1.178-1.409c0.362-0.491,0.641-1.032,0.948-1.532
			c0.564-1.032,1.051-2.034,1.439-2.913c0.404-0.874,0.695-1.625,0.929-2.145c0.215-0.525,0.356-0.822,0.356-0.822l0.097,0.026
			c0,0-0.124,1.306-0.657,3.207c-0.286,0.941-0.668,2.039-1.262,3.141c-0.591,1.101-1.414,2.201-2.46,3.082
			c-1.039,0.888-2.344,1.471-3.593,1.651c-0.623,0.1-1.225,0.128-1.784,0.139c-0.568,0.008-1.061,0.026-1.561,0.047
			c-0.5,0.023-0.976-0.025-1.376-0.174c-0.402-0.142-0.706-0.434-0.805-0.73c-0.109-0.292-0.088-0.534-0.068-0.688
			c0.023-0.155,0.053-0.237,0.053-0.237L249.465,302.958z"/>
	</g>
	<g>
		<path fill="#CCAB89" d="M252.472,304.586c0,0-0.189,0.294-0.363,0.771c-0.075,0.241-0.162,0.52-0.196,0.815
			c-0.038,0.293-0.034,0.603,0.058,0.874c0.067,0.281,0.269,0.487,0.413,0.688c0.078,0.102,0.165,0.196,0.225,0.309
			c0.071,0.105,0.162,0.193,0.229,0.294c0.129,0.209,0.292,0.351,0.374,0.501c0.094,0.132,0.145,0.227,0.145,0.227l-0.044,0.09
			c0,0-0.101,0.009-0.27-0.009c-0.172-0.016-0.423-0.034-0.686-0.171c-0.275-0.108-0.571-0.322-0.815-0.63
			c-0.089-0.181-0.212-0.348-0.254-0.558c-0.051-0.206-0.107-0.406-0.106-0.617c-0.038-0.413,0.05-0.809,0.17-1.143
			c0.11-0.342,0.298-0.611,0.449-0.837c0.324-0.438,0.596-0.671,0.596-0.671L252.472,304.586z"/>
	</g>
	<path fill="#EDCEA7" d="M126.635,182.611c0,0,15.531,3.5,16.198,5.833c0,0,0.792,10-1.104,12.333l-18.104,10.667L116,210.111
		L126.635,182.611z"/>
	<path fill="#EAEBEA" d="M130.917,193.194l-16.75,31.375l-9.125-2.375l8.75-34.375C113.792,187.819,127.417,183.819,130.917,193.194
		z"/>
	<polygon fill="#EAEBEA" points="108.095,206.249 109.667,207.778 115.333,204.347 117.979,203.778 119.917,202.111 
		121.917,198.861 122.542,194.631 125.417,192.778 127.36,191.444 125.5,188.194 118.833,188.194 113.5,193.111 108.095,201.694 	
		"/>
	<path fill="#EAEBEA" d="M108.667,220.361c-4.159,0-7.531,3.582-7.531,8s3.372,8,7.531,8s7.531-3.582,7.531-8
		S112.826,220.361,108.667,220.361z M108.095,232.722c-2.256,0-4.085-2.04-4.085-4.556c0-2.516,1.829-4.556,4.085-4.556
		s4.085,2.04,4.085,4.556C112.18,230.683,110.351,232.722,108.095,232.722z"/>
	<g>
		<path fill="#515351" d="M108.667,209.727c0,0,0.748-0.296,1.934-0.458c0.592-0.079,1.291-0.136,2.044-0.108
			c0.754,0.004,1.556,0.129,2.349,0.302c0.395,0.094,0.78,0.24,1.163,0.358c0.371,0.162,0.736,0.32,1.071,0.51
			c0.326,0.209,0.656,0.384,0.92,0.623c0.265,0.236,0.53,0.439,0.725,0.678c0.197,0.238,0.366,0.461,0.513,0.657
			c0.141,0.201,0.22,0.408,0.303,0.562c0.153,0.316,0.229,0.496,0.229,0.496s-0.142-0.139-0.391-0.381
			c-0.124-0.118-0.254-0.275-0.43-0.427c-0.187-0.143-0.395-0.302-0.609-0.482c-0.218-0.176-0.502-0.308-0.762-0.488
			c-0.263-0.178-0.594-0.284-0.894-0.452c-0.312-0.15-0.667-0.24-0.999-0.388c-0.355-0.096-0.707-0.219-1.074-0.296
			c-0.366-0.082-0.728-0.183-1.098-0.23c-0.366-0.063-0.727-0.131-1.083-0.167c-0.707-0.096-1.377-0.146-1.956-0.197
			C109.448,209.772,108.667,209.727,108.667,209.727z"/>
	</g>
	<g>
		<path fill="#515351" d="M110.375,202.629c0,0,0.909-0.293,2.325-0.456c0.707-0.085,1.538-0.138,2.432-0.121
			c0.893,0.014,1.849,0.093,2.795,0.268c0.474,0.073,0.939,0.217,1.399,0.331c0.461,0.113,0.892,0.319,1.318,0.467
			c0.417,0.183,0.803,0.403,1.172,0.594c0.349,0.235,0.67,0.468,0.961,0.683c0.271,0.246,0.502,0.49,0.708,0.698
			c0.221,0.192,0.333,0.44,0.458,0.605c0.222,0.35,0.35,0.551,0.35,0.551s-0.181-0.152-0.498-0.418
			c-0.162-0.125-0.317-0.314-0.566-0.454c-0.232-0.152-0.494-0.324-0.779-0.511c-0.309-0.149-0.639-0.311-0.978-0.492
			c-0.363-0.138-0.745-0.283-1.141-0.433c-0.812-0.245-1.682-0.495-2.584-0.638c-0.892-0.187-1.806-0.277-2.663-0.374
			c-0.859-0.086-1.668-0.14-2.365-0.184C111.312,202.676,110.375,202.629,110.375,202.629z"/>
	</g>
	<g>
		<path fill="#515351" d="M112.18,194.209c0,0,0.27-0.075,0.75-0.164c0.48-0.082,1.168-0.21,2.002-0.29
			c0.833-0.088,1.81-0.139,2.86-0.13c0.524,0.022,1.068,0.006,1.618,0.067c0.551,0.043,1.11,0.094,1.668,0.18
			c0.558,0.074,1.11,0.193,1.653,0.314c0.548,0.095,1.065,0.3,1.574,0.448c0.51,0.148,0.974,0.393,1.423,0.577
			c0.445,0.201,0.834,0.466,1.201,0.676c0.366,0.217,0.65,0.503,0.919,0.715c0.276,0.205,0.465,0.446,0.626,0.633
			c0.32,0.376,0.486,0.595,0.486,0.595s-0.235-0.162-0.618-0.451c-0.19-0.146-0.408-0.334-0.714-0.476
			c-0.3-0.147-0.607-0.354-0.979-0.514c-0.381-0.145-0.771-0.338-1.209-0.488c-0.448-0.128-0.899-0.306-1.393-0.423
			c-0.981-0.245-2.036-0.482-3.115-0.615c-1.07-0.181-2.16-0.261-3.18-0.358c-1.022-0.079-1.981-0.135-2.806-0.176
			C113.296,194.239,112.18,194.209,112.18,194.209z"/>
	</g>
	<path fill="#EDCEA7" d="M119.917,172.944l7.444,9.835c0,0-4.444,10.165-7.444,8.665c0,0,3,11.125-5.625,11.5
		c0,0-5.37,6.527-7.56,2.826c-2.19-3.701-8.935-4.451,0-11.326c0,0-5.914-9.292,5.448-11.833
		C112.18,182.611,111.917,174.819,119.917,172.944z"/>
	<path fill="#EDCEA7" d="M132.417,194.024c0,0-9.5-1.705-9.875-5.83c0,0,0.125-6.625,5.5-7.25c0,0,12.047,2.323,14.273,6.849
		C142.315,187.793,137.55,195.53,132.417,194.024z"/>
	<g>
		<path fill="#FFFFFF" d="M164.792,307.194c-30.875,1.25-58.625-26-58.625-26c-0.833,2.903-1.517,5.658-2.085,8.297
			c6.61,6.584,33.275,26.257,58.085,24.049L164.792,307.194z"/>
		<path fill="#FFFFFF" d="M103.477,318.925c7.574,28.787,42.44,23.769,42.44,23.769l1.53-3.926
			C140.206,338.438,116.915,336.022,103.477,318.925z"/>
	</g>
	<path fill="#EBDACA" d="M256,614.111l5.167,15.167c0,0,2.667,12.73-5.833,19.032c0,0,5.167-15.865-6-33.032
		C249.333,615.278,251.667,612.278,256,614.111z"/>
	<path fill="#EDCEA7" d="M109.167,410.944c0,0-9.75-2.75-17.25-1.25c0,0-20,5-23.75,22s10.25,16.5,15.5,15.75
		c0,0,3,27.75,7.75,31.25l29.146-17.5C120.562,461.194,109.417,432.944,109.167,410.944z"/>
	<g>
		<path fill="#A7D1F0" d="M88.167,474.694c0,0,13.318-17.345,31.034-17.173c0,0,4.021,1.173,3.493,3.923l-30.778,19.5
			C91.917,480.944,85.417,480.444,88.167,474.694z"/>
		<path fill="#A7D1F0" d="M137.167,469.232c0,0,7.625-5.413-1.875-7.788s-27.307,5.105-41.875,14.875l-2.5,4.625
			c0,0-1.359,6.092,1.391,7.467L137.167,469.232z"/>
		
			<ellipse transform="matrix(0.9031 -0.4295 0.4295 0.9031 -193.646 96.1171)" fill="#FFFFFF" cx="116.126" cy="477.084" rx="26.375" ry="5.469"/>
	</g>
</g>
</svg>
