<?xml version="1.0" encoding="utf-8"?>
<!-- Generator: Adobe Illustrator 20.1.0, SVG Export Plug-In . SVG Version: 6.00 Build 0)  -->
<svg version="1.1" id="Capa_1" xmlns="http://www.w3.org/2000/svg" xmlns:xlink="http://www.w3.org/1999/xlink" x="0px" y="0px"
	 viewBox="0 0 382.421 334.211" enable-background="new 0 0 382.421 334.211" xml:space="preserve">
<path fill="#F0E734" d="M270.7,137.164c0,0,14.3-30.077,42.531-31.883c0,0-24.856,22.283-24.952,29.226
	c0,0,25.146-12.288,46.303-5.427c0,0-22.474,0.192-29.021,9.096c0,0,32.751,6.584,39.712,17.54c0,0-14.892-7.634-19.185-4.514
	c0,0,30.893,12.939,40.265,21.137c0,0-17.55,5.459-43.775,0.488c0,0,9.758,11.651,20.898,13.789c0,0-19.548-1.421-25.844-12.095
	c0,0,2.667,14.544,25.151,17.953c0,0-35.203,9.173-62.375-11.425c0,0,5.697,17.269,29.326,24.541c0,0-32.435,1.774-45.55-28.357
	C251.069,147.099,270.7,137.164,270.7,137.164z"/>
<path fill="#DD9C2F" d="M266.62,145.611c0,0,6.413-13.488,19.074-14.299c0,0-11.147,9.993-11.19,13.107
	c0,0,11.277-5.511,20.765-2.434c0,0-10.079,0.086-13.015,4.079c0,0,14.688,2.953,17.809,7.866c0,0-6.678-3.423-8.604-2.024
	c0,0,13.854,5.803,18.057,9.479c0,0-7.87,2.448-19.631,0.219c0,0,4.376,5.225,9.372,6.184c0,0-8.767-0.637-11.59-5.424
	c0,0,1.196,6.522,11.279,8.051c0,0-15.787,4.114-27.973-5.124c0,0,2.555,7.745,13.152,11.006c0,0-14.546,0.796-20.427-12.717
	S266.62,145.611,266.62,145.611z"/>
<path fill="#ACABAB" d="M265.473,122.807L219.107,106l-17.946,90.25l55.714,3.313c0.359,0.05,0.72,0.079,1.086,0.065
	c9.583-0.378,16.632-14.774,20.359-35.649S274.794,126.083,265.473,122.807z"/>
<path fill="#DCDEDD" d="M208.825,157.966l-7.664,36.432l54.687,3.074c0.352,0.046,0.707,0.073,1.066,0.06
	c8.248-0.307,14.583-10.615,18.485-26.206L208.825,157.966z"/>
<g>
	<ellipse fill="#2F302D" cx="55.996" cy="234.904" rx="39" ry="71.288"/>
	<ellipse cx="60.496" cy="234.904" rx="34.5" ry="71.288"/>
	<ellipse fill="#EAEBEA" cx="63.058" cy="237.202" rx="28.689" ry="59.281"/>
	<ellipse fill="#FFFFFF" cx="61.456" cy="240.513" rx="27.087" ry="55.97"/>
	<ellipse fill="#EAEBEA" cx="65.496" cy="237.942" rx="9.5" ry="18.75"/>
	<ellipse fill="#ACABAB" cx="68.226" cy="238.192" rx="6.77" ry="12.667"/>
</g>
<path fill="#ACABAB" d="M154.835,39.893c0,0,55.826-4.477,82.326,3.011c0,0-23.25-11.011-6.5-9.011s38,11.5,38.75,13.75
	c0,0-12.5,0.307-20-2.596c0,0,6,3.346,3.25,17.096c0,0-4-4-4.75-1.75c0,0-9.25,109.211,0.75,123.98c0,0-10.811,32.903-24.453,47.603
	H103.087l46.208-191.083L154.835,39.893z"/>
<path fill="#E3E4E4" d="M269.411,47.643c-0.75-2.25-22-11.75-38.75-13.75s6.5,9.011,6.5,9.011
	c-4.166-1.177-9.058-2.059-14.343-2.708l19.01,9.61l-4.667,17.85l-12.953,93.285l-1.547,25.702l5,13.333l-5,21l-3.554,11h5.101
	c13.642-14.7,24.453-47.603,24.453-47.603c-10-14.77-0.75-123.98-0.75-123.98c0.75-2.25,4.75,1.75,4.75,1.75
	c2.75-13.75-3.25-17.096-3.25-17.096C256.911,47.95,269.411,47.643,269.411,47.643z"/>
<path fill="#D78F8D" d="M143.98,46.576c0,0,71.181-4.986,87.181,5.014c0,0-10.953,109.078-27.203,127.034l-84.125-4.544
	L143.98,46.576z"/>
<path fill="#A77072" d="M171.123,46.492c0,0,14.857,11.81,2.098,37.909c0,0,15.968,2.289,28.99,29.353
	c12.25,25.459,14.796,37.637,10.095,44.911l-80.811-0.698l28.389-112.632L171.123,46.492z"/>
<polygon fill="#848484" points="156.161,255.893 152.661,266.643 139.161,270.893 133.911,278.143 130.911,289.643 79.161,283.893 
	80.411,279.393 75.661,278.893 74.411,282.893 31.411,277.893 31.411,272.768 55.661,264.893 64.411,204.143 146.177,208.457 
	159.161,209.143 "/>
<polygon opacity="0.56" fill="#3B3D3A" points="140.301,264.187 127.776,274.446 75.366,267.457 89.161,211.858 145.291,213.829 "/>
<polygon fill="#ACABAB" points="154.746,208.91 153.211,255 149.161,264.187 135.838,269.5 128.461,277.5 125.815,283.358 
	85.241,280.858 85.241,276.476 75.366,274.31 73.121,277.992 31.89,272.612 31.411,272.768 31.411,277.893 74.411,282.893 
	75.661,278.893 80.411,279.393 79.161,283.893 130.911,289.643 133.911,278.143 139.161,270.893 152.661,266.643 156.161,255.893 
	159.161,209.143 "/>
<path fill="#434C4D" d="M184.161,178.143c0,0-67-9.75-85.75-4c0,0-1.25,7.25-5.75,7c0,0-20.25-6.75-32.25-1.25
	c0,0-11.25,42.5-4.75,85l24.333,6.75c0,0,8.388-60.953,10.167-63.5c0,0,5,0,5.125,0.75c0,0-3.114,46.316,2.042,64.417l29.547,3.167
	c0,0,7.336-61.533,13.811-68.308C140.686,208.168,180.411,214.393,184.161,178.143z"/>
<g>
	<path fill="#FFFFFF" d="M149.136,186.686c-1.888-1.025-3.851-1.91-5.846-2.705c-0.994-0.407-2.012-0.752-3.017-1.131l-3.065-0.987
		l-3.106-0.846l-3.141-0.697c-1.045-0.24-2.112-0.366-3.167-0.555c-1.054-0.199-2.12-0.306-3.187-0.409
		c-1.067-0.095-2.128-0.26-3.2-0.264l-3.209-0.114c-1.069,0.018-2.138,0.074-3.207,0.109c-0.534,0.026-1.069,0.027-1.601,0.072
		l-1.592,0.187c-1.06,0.134-2.126,0.227-3.178,0.402l-3.137,0.648c-0.52,0.118-1.05,0.194-1.562,0.345l-1.532,0.464l-3.064,0.918
		l0.298-0.271c-0.194,0.477-0.374,1.037-0.531,1.572l-0.453,1.64c-0.275,1.105-0.532,2.217-0.745,3.34
		c-0.439,2.243-0.835,4.502-1.128,6.777c-0.172,1.134-0.272,2.278-0.432,3.415l-0.376,3.426l-0.328,3.434l-0.294,3.44l-0.1-0.004
		l0.047-3.455c0.023-1.152,0.074-2.304,0.125-3.455c0.127-2.302,0.27-4.606,0.532-6.9c0.119-1.148,0.26-2.295,0.418-3.44
		c0.069-0.574,0.169-1.144,0.254-1.716c0.081-0.573,0.185-1.142,0.295-1.711c0.207-1.139,0.459-2.273,0.731-3.403
		c0.145-0.564,0.289-1.128,0.467-1.686c0.175-0.566,0.349-1.103,0.596-1.689l0.09-0.212l0.209-0.059l3.133-0.892l1.567-0.441
		c0.523-0.143,1.064-0.211,1.595-0.321l3.198-0.596c1.071-0.158,2.156-0.228,3.231-0.35l1.616-0.164
		c0.54-0.037,1.082-0.031,1.623-0.049c1.082-0.019,2.165-0.06,3.246-0.061l3.241,0.164c1.083,0.021,2.152,0.204,3.227,0.315
		c1.074,0.12,2.148,0.244,3.207,0.461c1.06,0.207,2.133,0.348,3.181,0.61l3.147,0.765l3.105,0.914l3.059,1.054
		c1.001,0.401,2.016,0.767,3.005,1.196c1.986,0.838,3.935,1.765,5.808,2.832L149.136,186.686z"/>
</g>
<g>
	<path fill="#AC5A99" d="M79.994,271.643c0,0-24.167-13-46.833-4.667l-1.75,3l49,9.417
		C80.411,279.393,80.994,273.809,79.994,271.643z"/>
	
		<ellipse transform="matrix(0.1757 -0.9844 0.9844 0.1757 -223.9807 281.111)" fill="#FFFFFF" cx="55.88" cy="274.31" rx="2.591" ry="25.01"/>
</g>
<g>
	<path fill="#964F4D" d="M126.661,275.717c0,0-32.333-8.5-40.048-0.947l-1.372,3l40.58,6.57
		C125.821,284.34,127.445,277.884,126.661,275.717z"/>
	<path fill="#FFFFFF" d="M125.821,283.335c-0.05,1.352-9.173,1.339-20.377-0.029c-11.204-1.368-20.245-3.573-20.195-4.925
		s9.173-1.339,20.377,0.029S125.871,281.983,125.821,283.335z"/>
</g>
<polygon fill="#ACABAB" points="97.661,168.976 64.161,168.976 64.161,175.976 100.554,173.597 "/>
<polygon fill="#DEE0DF" points="30.328,168.976 31.411,175.976 64.161,175.976 64.161,168.976 "/>
<path fill="#E9C6BC" d="M96.828,137.309c0,0-5.5,15.5-10.5,19.333c0,0-21-4-36.333-1c0,0-7.5,7.167-6.667,13.333l52.833,1.09
	c0,0,15-14.59,16.333-24.257C113.828,136.143,103.828,129.643,96.828,137.309z"/>
<path fill="#AC5A99" d="M89.161,109.809c0,0,5.5,25.807,4.167,29.404c0,0,13.308,2.472,16.167,2.43c0,0,2,4.5,0,7.167
	c-2,2.667-15.333,10.667-12.833,25.5c0,0,60-1.667,76.667,7.5c0,0,34.611-13.322-11.222-91.655
	C162.106,90.154,112.828,84.976,89.161,109.809z"/>
<polygon fill="#EAEBEA" points="112.615,113.754 135.838,112.46 145.496,114.962 153.744,107.54 159.883,106 169.461,109 
	187.755,134.446 203.891,125.976 186.961,106.625 173.22,94 166.953,90.154 160.944,90.581 154.835,91.402 147.941,90.154 "/>
<path fill="none" stroke="#ACABAB" stroke-miterlimit="10" d="M108.328,110.143c0,0,28.833,23.833,40.833-12.667l-2.5-15
	l-42.167,10.167L108.328,110.143z"/>
<path fill="none" stroke="#ACABAB" stroke-miterlimit="10" d="M104.494,109.809"/>
<path fill="#7D5945" d="M152.661,100.131c0,12.617-11.752,21.178-26.917,21.178s-26.917-5.561-26.917-18.178
	s12.294-22.845,27.458-22.845S152.661,87.514,152.661,100.131z"/>
<path fill="#E9C6BC" d="M168.494,127.976c0,0,8.333,20.333,11.167,22.333c0,0-23-5.167-34-1c-11,4.167-10.683,10.883-8.842,15.025
	c0,0,58.508,2.142,71.342-4.358c0,0,15.5,0-10.333-32S168.494,127.976,168.494,127.976z"/>
<polygon fill="#DEE0DF" points="221.161,158.143 222.661,163.309 175.994,174.309 174.661,162.143 "/>
<polygon fill="#ACABAB" points="131.494,164.643 132.328,174.309 175.994,174.309 174.661,162.143 "/>
<g>
	<ellipse fill="#2F302D" cx="191.661" cy="241.355" rx="39" ry="71.288"/>
	<ellipse cx="196.161" cy="241.355" rx="34.5" ry="71.288"/>
	<ellipse fill="#EAEBEA" cx="198.723" cy="243.653" rx="28.689" ry="59.281"/>
	<ellipse fill="#FFFFFF" cx="197.121" cy="246.964" rx="27.087" ry="55.97"/>
	<ellipse fill="#EAEBEA" cx="201.161" cy="244.393" rx="9.5" ry="18.75"/>
	<ellipse fill="#ACABAB" cx="203.891" cy="244.643" rx="6.77" ry="12.667"/>
</g>
<g>
	<path fill="#FFFFFF" d="M173.229,138.886c0,0-0.509,0.09-1.4,0.247c-0.893,0.144-2.169,0.349-3.717,0.504
		c-0.773,0.08-1.615,0.144-2.514,0.154c-0.45,0.005-0.914-0.002-1.396-0.07c-0.474-0.055-1.009-0.148-1.443-0.583
		c-0.748-0.697-1.356-1.499-1.972-2.32c-0.609-0.824-1.197-1.678-1.775-2.539c-1.161-1.717-2.284-3.457-3.288-5.117
		c-0.482-0.841-0.964-1.645-1.379-2.432c-0.417-0.785-0.811-1.527-1.175-2.212c-0.364-0.685-0.664-1.331-0.945-1.895
		c-0.28-0.565-0.515-1.062-0.7-1.476c-0.38-0.823-0.577-1.304-0.577-1.304l0.088-0.048c0,0,0.29,0.429,0.797,1.181
		c0.255,0.374,0.554,0.835,0.891,1.367c0.335,0.533,0.734,1.121,1.136,1.782c0.408,0.658,0.849,1.37,1.316,2.123
		c0.477,0.747,0.937,1.56,1.444,2.382c0.971,1.669,1.988,3.462,3.065,5.214c0.542,0.874,1.094,1.741,1.663,2.573
		c0.571,0.826,1.155,1.643,1.802,2.291c0.241,0.301,0.691,0.43,1.131,0.489c0.438,0.078,0.889,0.104,1.325,0.121
		c0.875,0.033,1.71,0.011,2.48-0.032c1.541-0.079,2.823-0.222,3.72-0.323c0.895-0.113,1.407-0.178,1.407-0.178L173.229,138.886z"/>
</g>
<g>
	<path fill="#FFFFFF" d="M107.376,127.236c0,0,1.223,3.46,1.978,7.067c0.198,0.899,0.399,1.803,0.518,2.663
		c0.099,0.863,0.111,1.68,0.072,2.379c-0.009,0.349-0.064,0.671-0.094,0.953c-0.031,0.282-0.085,0.528-0.139,0.728
		c-0.094,0.4-0.166,0.622-0.166,0.622l-0.099-0.01c0,0-0.043-0.234-0.086-0.632c-0.052-0.393-0.126-0.955-0.214-1.63
		c-0.096-0.671-0.207-1.449-0.307-2.288c-0.088-0.84-0.147-1.746-0.271-2.646c-0.236-1.802-0.576-3.594-0.823-4.941
		c-0.257-1.346-0.463-2.237-0.463-2.237L107.376,127.236z"/>
</g>
<path opacity="0.18" fill="#FFFFFF" d="M112.377,15.833c0,0-35.833,6-44.5,43.833c0,0,10.234,3.167,17.784,0
	C85.661,59.667,137.377,8.333,112.377,15.833z"/>
<g>
	<g>
		<path fill="#A7D1F0" d="M194.506,223.467c0,0,0.532-0.725,1.537-1.631c0.513-0.437,1.129-0.95,1.898-1.342
			c0.368-0.225,0.794-0.373,1.219-0.546c0.441-0.117,0.895-0.275,1.371-0.299l0.716-0.052c0.238,0.009,0.476,0.048,0.714,0.07
			c0.488,0.01,0.915,0.228,1.35,0.368c0.428,0.162,0.758,0.46,1.098,0.687c0.348,0.224,0.563,0.552,0.809,0.801
			c0.495,0.5,0.729,1.041,0.924,1.389c0.189,0.352,0.278,0.559,0.278,0.559l-0.083,0.056c0,0-0.185-0.142-0.475-0.402
			c-0.15-0.126-0.322-0.284-0.514-0.467c-0.177-0.198-0.427-0.363-0.682-0.555c-0.266-0.174-0.499-0.441-0.82-0.594
			c-0.322-0.148-0.611-0.399-0.966-0.525c-0.35-0.131-0.694-0.34-1.089-0.395c-0.194-0.041-0.389-0.1-0.59-0.127l-0.614-0.013
			c-0.412-0.018-0.824,0.092-1.23,0.16c-0.396,0.126-0.799,0.224-1.16,0.407c-0.376,0.147-0.713,0.349-1.042,0.527
			c-0.326,0.183-0.619,0.385-0.892,0.567c-1.073,0.768-1.679,1.422-1.679,1.422L194.506,223.467z"/>
	</g>
	<g>
		<path fill="#A7D1F0" d="M190.634,219.159c0,0,0.834-1.104,2.407-2.458c0.785-0.675,1.767-1.402,2.928-2.014
			c1.162-0.599,2.51-1.102,3.944-1.229c0.713-0.084,1.441-0.057,2.147,0.047c0.705,0.11,1.391,0.307,2.008,0.591
			c0.614,0.291,1.181,0.627,1.658,1.016c0.495,0.366,0.903,0.781,1.264,1.167c0.353,0.395,0.658,0.771,0.896,1.125
			c0.25,0.345,0.462,0.647,0.6,0.922c0.302,0.529,0.456,0.838,0.456,0.838l-0.083,0.056c0,0-0.25-0.244-0.654-0.682
			c-0.2-0.222-0.463-0.47-0.753-0.761c-0.279-0.302-0.645-0.588-1.016-0.921c-0.179-0.174-0.398-0.316-0.608-0.48
			c-0.207-0.168-0.425-0.335-0.667-0.479c-0.468-0.308-0.97-0.619-1.525-0.853c-0.538-0.276-1.133-0.464-1.748-0.613
			c-0.618-0.135-1.267-0.207-1.919-0.175c-1.308,0.042-2.601,0.438-3.744,0.951c-1.138,0.532-2.147,1.163-2.965,1.768
			c-1.64,1.215-2.549,2.249-2.549,2.249L190.634,219.159z"/>
	</g>
	<g>
		<path fill="#A7D1F0" d="M188.134,213.796c0,0,1.073-1.397,3.087-3.104c1.005-0.851,2.26-1.764,3.736-2.533
			c1.478-0.752,3.188-1.378,4.998-1.528c0.9-0.1,1.817-0.06,2.704,0.078c0.441,0.083,0.885,0.152,1.301,0.302
			c0.427,0.116,0.832,0.275,1.222,0.454c0.398,0.163,0.753,0.388,1.108,0.595c0.365,0.192,0.677,0.443,0.985,0.68
			c0.317,0.227,0.596,0.478,0.86,0.729c0.263,0.25,0.536,0.472,0.753,0.728c0.457,0.491,0.851,0.96,1.16,1.403
			c0.324,0.432,0.602,0.81,0.785,1.153c0.399,0.662,0.608,1.046,0.608,1.046l-0.083,0.056c0,0-0.305-0.32-0.806-0.891
			c-0.246-0.29-0.574-0.614-0.939-0.992c-0.349-0.393-0.81-0.767-1.276-1.204c-0.225-0.228-0.501-0.416-0.766-0.633
			c-0.266-0.216-0.546-0.432-0.857-0.618c-0.602-0.398-1.247-0.802-1.964-1.106c-0.35-0.172-0.713-0.331-1.096-0.447
			c-0.374-0.146-0.77-0.234-1.167-0.331c-0.8-0.168-1.637-0.253-2.477-0.205c-1.684,0.065-3.339,0.585-4.799,1.25
			c-1.454,0.689-2.736,1.506-3.774,2.286c-2.081,1.567-3.228,2.894-3.228,2.894L188.134,213.796z"/>
	</g>
	<g>
		<path fill="#A7D1F0" d="M187.229,206.962c0,0,1.16-1.503,3.333-3.338c1.085-0.914,2.438-1.895,4.029-2.721
			c1.593-0.807,3.434-1.478,5.38-1.636c0.967-0.106,1.953-0.06,2.906,0.089c0.474,0.091,0.951,0.166,1.397,0.327
			c0.459,0.125,0.894,0.297,1.313,0.489c0.428,0.175,0.809,0.417,1.191,0.638c0.392,0.206,0.728,0.476,1.06,0.729
			c0.341,0.243,0.642,0.513,0.926,0.782c0.283,0.268,0.578,0.506,0.812,0.781c0.493,0.527,0.92,1.029,1.255,1.505
			c0.351,0.464,0.652,0.869,0.852,1.236c0.434,0.71,0.663,1.122,0.663,1.122l-0.083,0.056c0,0-0.325-0.347-0.861-0.966
			c-0.263-0.314-0.615-0.666-1.006-1.075c-0.375-0.426-0.869-0.832-1.371-1.305c-0.242-0.247-0.539-0.451-0.825-0.686
			c-0.287-0.235-0.588-0.468-0.924-0.67c-0.649-0.432-1.347-0.869-2.122-1.199c-0.379-0.186-0.771-0.357-1.187-0.482
			c-0.405-0.158-0.833-0.251-1.264-0.356c-0.865-0.18-1.771-0.27-2.678-0.216c-1.82,0.073-3.606,0.638-5.18,1.358
			c-1.568,0.745-2.948,1.63-4.066,2.474c-2.24,1.695-3.475,3.128-3.475,3.128L187.229,206.962z"/>
	</g>
</g>
<g>
	<g>
		<path fill="#A7D1F0" d="M206.442,267.489c0,0-0.532,0.725-1.537,1.631c-0.513,0.437-1.129,0.95-1.898,1.342
			c-0.368,0.225-0.794,0.373-1.219,0.546c-0.441,0.117-0.895,0.275-1.371,0.299l-0.716,0.052c-0.238-0.009-0.476-0.048-0.714-0.07
			c-0.488-0.01-0.915-0.228-1.35-0.368c-0.428-0.162-0.758-0.46-1.098-0.687c-0.348-0.224-0.563-0.552-0.809-0.801
			c-0.495-0.5-0.729-1.041-0.924-1.389c-0.189-0.352-0.278-0.559-0.278-0.559l0.083-0.056c0,0,0.185,0.142,0.475,0.402
			c0.15,0.126,0.322,0.284,0.514,0.467c0.177,0.198,0.427,0.363,0.682,0.555c0.266,0.174,0.499,0.441,0.82,0.594
			c0.322,0.148,0.611,0.399,0.966,0.525c0.35,0.131,0.694,0.34,1.089,0.395c0.194,0.041,0.389,0.1,0.59,0.127l0.614,0.013
			c0.412,0.018,0.824-0.092,1.23-0.16c0.396-0.126,0.799-0.224,1.16-0.407c0.376-0.147,0.713-0.349,1.042-0.527
			c0.326-0.183,0.619-0.385,0.892-0.567c1.073-0.768,1.679-1.422,1.679-1.422L206.442,267.489z"/>
	</g>
	<g>
		<path fill="#A7D1F0" d="M210.314,271.797c0,0-0.834,1.104-2.407,2.458c-0.785,0.675-1.767,1.402-2.928,2.014
			c-1.162,0.599-2.51,1.102-3.944,1.229c-0.713,0.084-1.441,0.057-2.147-0.047c-0.705-0.11-1.391-0.307-2.008-0.591
			c-0.614-0.291-1.181-0.627-1.658-1.016c-0.495-0.366-0.903-0.781-1.264-1.167c-0.353-0.395-0.658-0.771-0.896-1.125
			c-0.25-0.345-0.462-0.647-0.6-0.922c-0.302-0.529-0.456-0.838-0.456-0.838l0.083-0.056c0,0,0.25,0.244,0.654,0.682
			c0.2,0.222,0.463,0.47,0.753,0.761c0.279,0.302,0.645,0.588,1.016,0.921c0.179,0.174,0.398,0.316,0.608,0.48
			c0.207,0.168,0.425,0.335,0.667,0.479c0.468,0.308,0.97,0.619,1.525,0.853c0.538,0.276,1.133,0.464,1.748,0.613
			c0.618,0.135,1.267,0.207,1.919,0.175c1.308-0.042,2.601-0.438,3.744-0.951c1.138-0.532,2.147-1.163,2.965-1.768
			c1.64-1.215,2.549-2.249,2.549-2.249L210.314,271.797z"/>
	</g>
	<g>
		<path fill="#A7D1F0" d="M212.814,277.16c0,0-1.073,1.397-3.087,3.104c-1.005,0.851-2.26,1.764-3.736,2.533
			c-1.478,0.752-3.188,1.378-4.998,1.528c-0.9,0.1-1.817,0.06-2.704-0.078c-0.441-0.083-0.885-0.153-1.301-0.303
			c-0.427-0.116-0.832-0.275-1.222-0.454c-0.398-0.163-0.753-0.388-1.108-0.595c-0.365-0.192-0.677-0.443-0.985-0.68
			c-0.317-0.227-0.596-0.478-0.86-0.729c-0.263-0.25-0.536-0.472-0.753-0.728c-0.457-0.491-0.851-0.96-1.16-1.403
			c-0.324-0.432-0.602-0.81-0.785-1.153c-0.399-0.662-0.608-1.046-0.608-1.046l0.083-0.056c0,0,0.305,0.32,0.806,0.891
			c0.246,0.29,0.574,0.614,0.939,0.992c0.349,0.393,0.81,0.767,1.276,1.204c0.225,0.228,0.501,0.416,0.766,0.632
			c0.266,0.217,0.546,0.432,0.857,0.618c0.602,0.398,1.247,0.802,1.964,1.106c0.35,0.172,0.713,0.331,1.096,0.447
			c0.374,0.146,0.77,0.234,1.167,0.331c0.8,0.168,1.637,0.253,2.477,0.205c1.684-0.065,3.339-0.585,4.799-1.25
			c1.454-0.689,2.736-1.506,3.773-2.286c2.081-1.567,3.228-2.894,3.228-2.894L212.814,277.16z"/>
	</g>
	<g>
		<path fill="#A7D1F0" d="M213.719,283.994c0,0-1.16,1.503-3.333,3.338c-1.085,0.914-2.438,1.895-4.029,2.721
			c-1.593,0.807-3.434,1.478-5.38,1.636c-0.967,0.106-1.953,0.06-2.906-0.089c-0.474-0.091-0.951-0.166-1.397-0.327
			c-0.459-0.126-0.894-0.297-1.313-0.489c-0.428-0.175-0.809-0.417-1.191-0.638c-0.392-0.206-0.728-0.476-1.06-0.729
			c-0.341-0.243-0.642-0.513-0.926-0.782c-0.283-0.268-0.578-0.506-0.812-0.781c-0.493-0.527-0.92-1.029-1.255-1.505
			c-0.351-0.464-0.652-0.869-0.852-1.236c-0.434-0.71-0.663-1.122-0.663-1.122l0.083-0.056c0,0,0.325,0.347,0.861,0.966
			c0.263,0.314,0.615,0.666,1.006,1.075c0.375,0.426,0.869,0.832,1.371,1.305c0.242,0.247,0.539,0.451,0.825,0.686
			c0.287,0.235,0.588,0.468,0.924,0.67c0.649,0.432,1.347,0.869,2.122,1.199c0.379,0.186,0.771,0.357,1.187,0.482
			c0.405,0.158,0.833,0.251,1.264,0.356c0.865,0.18,1.771,0.27,2.678,0.216c1.82-0.073,3.606-0.638,5.18-1.358
			c1.568-0.745,2.948-1.63,4.066-2.474c2.24-1.695,3.475-3.128,3.475-3.128L213.719,283.994z"/>
	</g>
</g>
<path fill="#CA8E59" d="M109.564,110.664c0,0,0.881,5.761,17.263,4.299c16.383-1.462,21.089-15.325,17.152-23.56L109.564,110.664z"
	/>
<g>
	<g>
		<path fill="#E9C6BC" d="M74.161,84.476c0,0-0.475,0.29-1.18,0.859c-3.033,2.445-10.329,10.039-2.486,21.88
			c9.667,14.595,82.333,9.762,78.667-24.738c0,0,1.167-17.833-50.333-16.167L74.161,84.476z"/>
		<path fill="#E0C09E" d="M96.586,81.875c0,0,12.966,4.851,36.625-2.125l12.153-7.625l-44.153,1.203l-25.845,9.32l-0.411,1.243
			C74.954,83.892,76.461,87.851,96.586,81.875z"/>
		<g>
			<path fill="#AC5A99" d="M72.161,68.143c0,0-4.788-5.333-6.978-6.167c0,0,8.978-47.167,56.978-48s46.5,43.333,35.833,63.333
				c-10.667,20-18.833-2.264-18.833-2.264L72.161,68.143z"/>
			<path fill="#EACBD0" d="M85.661,30.809c0,0,21.667-22,53.167-8.5c0,0-23.36,14.017-24.18,39.675L96.161,75.226l-13.165-10.99
				C82.996,64.236,73.828,43.643,85.661,30.809z"/>
			<g>
				<path fill="#526A9E" d="M68.661,66.199c0,0-6.54,8.031-1.682,14.086c0,0,6.682,6.357,21.016,2.19c0,0,6.667-9.5,15.667-1.333
					c0,0,17.333,4.806,35.5-6.097c0,0,6.5-8.903-5-16.736c0,0-28.833,4.167-33.333,8.833c0,0,0.761,5.187-4,4.667
					c-4.761-0.521-5.833-1.72-6-5.61C90.828,66.199,86.328,61.756,68.661,66.199z"/>
				<rect x="70.994" y="73.143" fill="#4A4B49" width="14.667" height="4.167"/>
				<polygon fill="#4A4B49" points="107.328,71.1 108.137,75.226 132.161,71.1 131.494,66.199 				"/>
			</g>
		</g>
		<path fill="#FFFFFF" d="M101.661,90.581c0,0-12.5,2.562-22.052-1.151c-5.019-1.951-11.142,12.07-1.67,22.767
			c0,0,32.692,9.383,60.459-8.22c0,0,8.836-29.597-11.57-21.5C108.137,89.893,101.661,90.581,101.661,90.581z"/>
	</g>
	<g>
		<g>
			<path fill="#131613" d="M81.833,90.15c0,0,0.694,5.882,1.298,11.772c0.163,1.471,0.341,2.942,0.469,4.323
				c0.1,1.384,0.168,2.677,0.184,3.789c0.009,1.113,0.02,2.04-0.008,2.691c-0.016,0.651-0.044,1.024-0.044,1.024l-0.1,0.008
				c0,0-0.087-0.364-0.207-1.004c-0.133-0.639-0.269-1.556-0.438-2.655c-0.162-1.1-0.301-2.388-0.424-3.77
				c-0.095-1.384-0.154-2.864-0.228-4.342c-0.345-5.91-0.6-11.828-0.6-11.828L81.833,90.15z"/>
		</g>
		<g>
			<path fill="#131613" d="M93.188,91.398c0,0,0.694,5.767,1.297,11.541c0.163,1.443,0.341,2.884,0.469,4.238
				c0.1,1.357,0.168,2.625,0.184,3.716c0.009,1.091,0.02,2-0.008,2.64c-0.016,0.638-0.044,1.005-0.044,1.005l-0.1,0.008
				c0,0-0.087-0.357-0.207-0.984c-0.133-0.626-0.269-1.525-0.438-2.603c-0.162-1.079-0.301-2.341-0.424-3.696
				c-0.095-1.357-0.154-2.808-0.228-4.258c-0.345-5.795-0.6-11.598-0.6-11.598L93.188,91.398z"/>
		</g>
		<g>
			<path fill="#131613" d="M104.793,90.38c0,0,0.694,5.767,1.297,11.541c0.163,1.443,0.341,2.884,0.469,4.238
				c0.1,1.357,0.168,2.625,0.184,3.716c0.009,1.091,0.02,2-0.008,2.64c-0.016,0.638-0.044,1.005-0.044,1.005l-0.1,0.008
				c0,0-0.087-0.357-0.207-0.984c-0.133-0.626-0.269-1.525-0.438-2.603c-0.162-1.079-0.301-2.341-0.424-3.696
				c-0.095-1.357-0.154-2.808-0.228-4.258c-0.345-5.795-0.6-11.598-0.6-11.598L104.793,90.38z"/>
		</g>
		<g>
			<path fill="#131613" d="M115.565,87.52c0,0,0.694,5.767,1.297,11.541c0.163,1.443,0.341,2.884,0.469,4.238
				c0.1,1.357,0.168,2.625,0.184,3.716c0.009,1.091,0.02,2-0.008,2.64c-0.016,0.638-0.044,1.005-0.044,1.005l-0.1,0.008
				c0,0-0.087-0.357-0.207-0.984c-0.133-0.626-0.269-1.525-0.438-2.603c-0.162-1.079-0.301-2.341-0.424-3.696
				c-0.095-1.357-0.154-2.808-0.228-4.258c-0.345-5.795-0.6-11.598-0.6-11.598L115.565,87.52z"/>
		</g>
		<g>
			<path fill="#131613" d="M125.929,84.397c0,0,0.694,5.767,1.297,11.541c0.163,1.443,0.341,2.884,0.469,4.238
				c0.1,1.357,0.168,2.625,0.184,3.716c0.009,1.091,0.02,2-0.008,2.64c-0.016,0.638-0.044,1.005-0.044,1.005l-0.1,0.008
				c0,0-0.087-0.357-0.207-0.984c-0.133-0.626-0.269-1.525-0.438-2.603c-0.162-1.079-0.301-2.341-0.424-3.696
				c-0.095-1.357-0.154-2.808-0.228-4.258c-0.345-5.795-0.6-11.598-0.6-11.598L125.929,84.397z"/>
		</g>
	</g>
	<rect x="72.328" y="73.143" fill="#E3E4E4" width="12.469" height="3.5"/>
	<polygon fill="#E3E4E4" points="109.24,70.713 109.911,73.643 132.016,70.034 131.494,66.199 	"/>
</g>
<g>
	<path fill="#A68B73" d="M144.313,163.909c0,0-0.24-0.724-0.432-1.854c-0.094-0.565-0.177-1.234-0.175-1.96
		c-0.009-0.725,0.056-1.506,0.226-2.281c0.072-0.39,0.219-0.767,0.332-1.148c0.174-0.359,0.312-0.738,0.548-1.047
		c0.245-0.301,0.454-0.619,0.758-0.817c0.285-0.214,0.53-0.445,0.825-0.551c0.278-0.13,0.534-0.238,0.761-0.323
		c0.242-0.049,0.451-0.085,0.624-0.106c0.342-0.052,0.534-0.061,0.534-0.061l0.026,0.097c0,0-0.162,0.121-0.441,0.295
		c-0.137,0.092-0.304,0.195-0.494,0.303c-0.174,0.14-0.36,0.304-0.569,0.462c-0.223,0.141-0.388,0.382-0.599,0.583
		c-0.221,0.195-0.372,0.472-0.574,0.717c-0.218,0.236-0.342,0.556-0.547,0.834c-0.143,0.314-0.307,0.631-0.413,0.973
		c-0.223,0.682-0.359,1.405-0.418,2.093c-0.062,0.688-0.073,1.341-0.056,1.901c0.04,1.123,0.18,1.865,0.18,1.865L144.313,163.909z"
		/>
</g>
<g>
	<path fill="#A68B73" d="M152.994,162.909c0,0-0.24-0.724-0.432-1.854c-0.094-0.565-0.177-1.234-0.175-1.96
		c-0.009-0.725,0.056-1.506,0.226-2.281c0.072-0.39,0.219-0.767,0.332-1.148c0.174-0.359,0.312-0.738,0.548-1.047
		c0.245-0.301,0.454-0.619,0.758-0.817c0.285-0.214,0.53-0.445,0.825-0.551c0.278-0.13,0.534-0.238,0.761-0.323
		c0.242-0.049,0.451-0.085,0.624-0.106c0.342-0.052,0.534-0.061,0.534-0.061l0.026,0.097c0,0-0.162,0.121-0.44,0.295
		c-0.137,0.092-0.304,0.195-0.494,0.303c-0.174,0.14-0.36,0.304-0.569,0.462c-0.223,0.141-0.388,0.382-0.599,0.583
		c-0.221,0.195-0.372,0.472-0.574,0.717c-0.218,0.236-0.342,0.556-0.547,0.834c-0.143,0.314-0.307,0.631-0.413,0.973
		c-0.223,0.682-0.359,1.405-0.418,2.093c-0.062,0.688-0.073,1.341-0.056,1.901c0.04,1.123,0.18,1.865,0.18,1.865L152.994,162.909z"
		/>
</g>
<g>
	<path fill="#A68B73" d="M162.94,162.331c0,0-0.261-0.534-0.453-1.411c-0.085-0.439-0.168-0.966-0.128-1.543
		c0.015-0.287,0.058-0.587,0.124-0.888c0.082-0.298,0.161-0.607,0.314-0.891c0.114-0.305,0.311-0.561,0.489-0.83
		c0.175-0.273,0.433-0.462,0.647-0.683c0.244-0.178,0.507-0.31,0.753-0.432c0.246-0.121,0.501-0.166,0.726-0.229
		c0.45-0.136,0.845-0.106,1.113-0.104c0.268,0.003,0.419,0.025,0.419,0.025l0.018,0.098c0,0-0.131,0.092-0.357,0.219
		c-0.112,0.069-0.248,0.143-0.403,0.221c-0.16,0.066-0.323,0.177-0.499,0.286c-0.172,0.116-0.378,0.202-0.562,0.337
		c-0.175,0.147-0.382,0.264-0.576,0.407c-0.177,0.158-0.398,0.289-0.573,0.47c-0.175,0.182-0.366,0.365-0.492,0.596
		c-0.157,0.213-0.253,0.462-0.357,0.706c-0.089,0.248-0.161,0.505-0.208,0.759c-0.094,0.509-0.108,1.005-0.1,1.433
		c0.037,0.858,0.2,1.421,0.2,1.421L162.94,162.331z"/>
</g>
<g>
	<path fill="#A68B73" d="M47.578,168.953c0,0-0.24-0.724-0.432-1.854c-0.094-0.565-0.177-1.234-0.175-1.96
		c-0.009-0.725,0.056-1.506,0.226-2.281c0.072-0.39,0.219-0.767,0.332-1.148c0.174-0.359,0.312-0.738,0.548-1.047
		c0.245-0.301,0.454-0.619,0.758-0.817c0.285-0.214,0.53-0.445,0.825-0.551c0.278-0.13,0.534-0.238,0.761-0.323
		c0.242-0.049,0.451-0.085,0.624-0.106c0.342-0.052,0.534-0.061,0.534-0.061l0.026,0.097c0,0-0.162,0.121-0.44,0.295
		c-0.137,0.092-0.304,0.195-0.494,0.303c-0.174,0.14-0.36,0.304-0.569,0.462c-0.223,0.141-0.388,0.382-0.599,0.583
		c-0.221,0.195-0.372,0.472-0.574,0.717c-0.218,0.236-0.342,0.556-0.547,0.834c-0.143,0.314-0.307,0.631-0.413,0.973
		c-0.223,0.682-0.359,1.405-0.418,2.093c-0.062,0.688-0.073,1.341-0.056,1.901c0.04,1.123,0.18,1.865,0.18,1.865L47.578,168.953z"/>
</g>
<g>
	<path fill="#A68B73" d="M54.085,169.728c0,0-0.24-0.724-0.432-1.854c-0.094-0.565-0.177-1.234-0.175-1.96
		c-0.009-0.725,0.056-1.506,0.226-2.281c0.072-0.39,0.219-0.767,0.332-1.148c0.174-0.359,0.312-0.738,0.548-1.047
		c0.245-0.301,0.454-0.619,0.758-0.817c0.285-0.214,0.53-0.445,0.825-0.551c0.278-0.13,0.534-0.238,0.761-0.323
		c0.242-0.049,0.451-0.085,0.624-0.106c0.342-0.052,0.534-0.061,0.534-0.061l0.026,0.097c0,0-0.162,0.121-0.44,0.295
		c-0.137,0.092-0.304,0.195-0.494,0.303c-0.174,0.14-0.36,0.304-0.569,0.462c-0.223,0.141-0.388,0.382-0.599,0.583
		c-0.221,0.195-0.372,0.472-0.574,0.717c-0.218,0.236-0.342,0.556-0.547,0.834c-0.143,0.314-0.307,0.631-0.413,0.973
		c-0.223,0.682-0.359,1.405-0.418,2.093c-0.062,0.688-0.073,1.341-0.056,1.901c0.04,1.123,0.18,1.865,0.18,1.865L54.085,169.728z"/>
</g>
<g>
	<path fill="#A68B73" d="M59.617,169.704c0,0-0.261-0.534-0.453-1.411c-0.085-0.439-0.168-0.966-0.128-1.543
		c0.015-0.287,0.058-0.587,0.124-0.888c0.082-0.298,0.161-0.607,0.314-0.891c0.114-0.305,0.311-0.561,0.489-0.831
		c0.175-0.273,0.433-0.462,0.647-0.683c0.244-0.178,0.507-0.31,0.753-0.432c0.246-0.121,0.501-0.166,0.726-0.229
		c0.45-0.136,0.845-0.106,1.113-0.104c0.268,0.003,0.419,0.025,0.419,0.025l0.018,0.098c0,0-0.131,0.092-0.357,0.219
		c-0.112,0.069-0.248,0.143-0.403,0.221c-0.16,0.066-0.323,0.177-0.499,0.286c-0.172,0.116-0.378,0.202-0.562,0.337
		c-0.175,0.147-0.382,0.264-0.576,0.407c-0.177,0.158-0.398,0.289-0.573,0.47c-0.175,0.182-0.366,0.365-0.492,0.596
		c-0.157,0.213-0.253,0.462-0.357,0.706c-0.089,0.248-0.161,0.505-0.208,0.759c-0.094,0.509-0.108,1.005-0.1,1.433
		c0.037,0.858,0.2,1.421,0.2,1.421L59.617,169.704z"/>
</g>
<path fill="#A7BDDE" d="M75.366,65.583l-6.155,0.616c0,0-3.417,5.169-3.333,7.443c0.083,2.274,1.167,6.587,4.083,7.43l-1.167-7.93
	c0,0,0.583-1.884,0.917-2.43C70.044,70.167,75.366,65.583,75.366,65.583z"/>
<path fill="#CD99C0" d="M66.979,60.375c0,0,6.472-20.342,11.982-24.25c0,0-5.5,19.75,1.875,26.875l-10.215,1.625L66.979,60.375z"/>
<path fill="#653D5E" d="M162.211,59.625c0,0-3.25,20.077-10.75,22.851s4.755-28.726-15.623-37.726s6.385-24.587,10.123-24.25
	S164.586,31.25,162.211,59.625z"/>
<path fill="#B6B6B6" d="M156.828,56.906c0,0,2-17.333,29-27.5c0,0-3.833,7.167-15.333,17.667c0,0,20.333-9.841,0.833,5.163
	c0,0,9.167,1.17-8.833,8.504C162.494,60.739,154.552,63.349,156.828,56.906z"/>
<path fill="#DEE0DF" d="M185.828,29.406c-0.367,0.138-0.711,0.282-1.068,0.423c-7.838,5.301-31.737,22.507-21.799,28.922
	c0,0,1.438,0.812,7.812-3.875c2.525-1.857,2.968-1.445,2.586-0.275c1.284-1.938-2.031-2.365-2.031-2.365
	c19.5-15.004-0.833-5.163-0.833-5.163C181.994,36.572,185.828,29.406,185.828,29.406z"/>
<path fill="#E0C09E" d="M201.161,132.225c0,0-17.511,10.765-26.856,8.937l-2.928-5.405l26.451-7.781L201.161,132.225z"/>
<path fill="#AC5A99" d="M149.686,117.787c0,0,1.649-47.866,29.986-19.95c27.934,27.519,24.219,28.139,24.219,28.139
	s-22.563,15.114-40.397,13.321L149.686,117.787z"/>
<path fill="#EAEBEA" d="M179.673,97.837c-16.272-16.03-23.742-7.071-27.155,3.463l2.318-0.503c0,0,28.099,19.445,36.136,32.239
	c7.557-3.472,12.92-7.06,12.92-7.06S207.607,125.357,179.673,97.837z"/>
<g>
	<path fill="#2F302D" d="M164.829,180l0.053,8.333l0,0.027l-0.014,0.025l-3.86,6.651l-0.043,0.074l-0.088,0.001l-9,0.057l-0.011,0
		l-0.013-0.001l-16.049-1.706l0.146-0.021l-4.335,1.813l0.192-0.24c-1.078,6.592-2.098,13.196-3.063,19.806
		c-0.961,6.611-1.857,13.231-2.741,19.85l-1.24,9.939c-0.412,3.313-0.797,6.629-1.121,9.95c-0.319,3.321-0.644,6.643-0.808,9.974
		c-0.068,1.664-0.145,3.331-0.112,4.995l0.032,1.248l0.103,1.242c0.092,0.825,0.242,1.643,0.563,2.405l-0.088,0.048
		c-0.366-0.768-0.556-1.596-0.687-2.425l-0.161-1.25l-0.089-1.255c-0.11-1.675-0.113-3.352-0.085-5.026
		c0.076-3.349,0.262-6.692,0.534-10.027c0.266-3.336,0.595-6.665,0.949-9.99c0.355-3.326,0.795-6.641,1.222-9.957
		c0.857-6.632,1.863-13.242,2.902-19.846c1.044-6.603,2.116-13.2,3.261-19.788l0.03-0.175l0.162-0.066l4.352-1.772l0.072-0.029
		l0.074,0.009l16.029,1.879l-0.023-0.001l9,0.057l-0.131,0.075l3.944-6.601l-0.014,0.052l0.053-8.333H164.829z"/>
</g>
</svg>
