<?xml version="1.0" encoding="utf-8"?>
<!-- Generator: Adobe Illustrator 20.1.0, SVG Export Plug-In . SVG Version: 6.00 Build 0)  -->
<svg version="1.1" id="Capa_1" xmlns="http://www.w3.org/2000/svg" xmlns:xlink="http://www.w3.org/1999/xlink" x="0px" y="0px"
	 viewBox="0 0 224.261 199.053" enable-background="new 0 0 224.261 199.053" xml:space="preserve">
<g>
	<g>
		<radialGradient id="SVGID_1_" cx="-134.6385" cy="350.7178" r="418.8148" gradientUnits="userSpaceOnUse">
			<stop  offset="0" style="stop-color:#F0E734"/>
			<stop  offset="1" style="stop-color:#94BB7B"/>
		</radialGradient>
		<path fill="url(#SVGID_1_)" d="M81.859,100.906c0,0,1.815-7.969-5.481-14.915c-7.296-6.946-30.116-44.116,6.253-55.839
			c34.125-11,34.431,37.105,30.314,50.115c-1.748,5.524,5.186,10.469,5.186,10.469L81.859,100.906z"/>
		<g>
			<path fill="#717272" d="M102.415,75.875c0,0,0.052,0.261,0.109,0.722c0.055,0.461,0.118,1.124,0.097,1.929
				c-0.034,0.797-0.1,1.77-0.618,2.722c-0.257,0.466-0.674,0.923-1.233,1.159c-0.525,0.223-1.124,0.322-1.707,0.288
				c-1.173-0.069-2.239-0.586-3.082-1.187c-0.84-0.622-1.48-1.342-1.962-1.995c-0.249-0.321-0.439-0.643-0.612-0.921
				c-0.172-0.279-0.313-0.528-0.413-0.743c-0.212-0.421-0.301-0.679-0.301-0.679l0.085-0.052c0,0,0.185,0.191,0.508,0.524
				c0.161,0.164,0.356,0.364,0.58,0.593c0.227,0.221,0.483,0.471,0.762,0.743c0.565,0.53,1.218,1.143,1.968,1.701
				c0.735,0.563,1.589,1.113,2.537,1.238c0.468,0.062,0.94,0.02,1.384-0.128c0.416-0.142,0.756-0.454,1.002-0.832
				c0.487-0.77,0.668-1.69,0.762-2.455c0.091-0.775,0.089-1.433,0.076-1.891c-0.014-0.459-0.042-0.72-0.042-0.72L102.415,75.875z"/>
		</g>
		
			<ellipse transform="matrix(0.7252 -0.6885 0.6885 0.7252 -18.2842 70.4467)" fill="#2F302D" cx="79.119" cy="58.131" rx="9.125" ry="15.375"/>
		
			<ellipse transform="matrix(0.3181 -0.9481 0.9481 0.3181 19.751 134.2219)" fill="#2F302D" cx="103.179" cy="53.381" rx="13.411" ry="7.333"/>
		<ellipse fill="#FFFFFF" cx="74" cy="53.381" rx="6.494" ry="6.302"/>
		<ellipse fill="#FFFFFF" cx="105.294" cy="47.079" rx="5.476" ry="5.314"/>
	</g>
	<path fill="#E3E4E4" d="M78.588,103.47c0.48-3.165,9.247-8.069,20.655-11.395c11.662-3.4,21.882-3.926,23.671-1.325l0.05-0.014
		l0.053,0.172c0.049,0.093,0.09,0.189,0.119,0.289c0.023,0.08,0.036,0.162,0.046,0.245l0.949,3.085l-4.501,1.359
		c-3.668,2.54-9.857,5.295-17.115,7.411c-6.654,1.94-12.837,2.943-17.255,2.965l-5.296,1.599l-1.112-3.226
		c-0.101-0.144-0.182-0.296-0.23-0.459c-0.034-0.118-0.049-0.241-0.055-0.366L78.588,103.47z"/>
	<path fill="#7B7C7C" d="M20.073,145.352c0,0,7.612-15.826,26.558-25.659c0,0,82.5-38.667,129.5-32.833
		c0,0,18.833,0.333,26.47,6.373L20.073,145.352z"/>
	<path fill="#424B52" d="M203.319,94.389c-2.326-7.977-45.337-2.454-96.069,12.336c-50.731,14.79-89.972,33.248-87.646,41.225
		c1.14,15.424,25.05,25.792,25.05,25.792l140.22-40.382C208.713,109.545,203.319,94.389,203.319,94.389z"/>
	
		<ellipse transform="matrix(0.96 -0.2799 0.2799 0.96 -37.5057 38.1042)" fill="#ACABAB" cx="114.665" cy="150.375" rx="75.644" ry="12.724"/>
	
		<ellipse transform="matrix(0.96 -0.2799 0.2799 0.96 -37.8911 37.9085)" fill="#6080BA" cx="113.788" cy="151.626" rx="66.56" ry="10.466"/>
	
		<ellipse transform="matrix(0.96 -0.2799 0.2799 0.96 -37.7464 38.228)" fill="#80AAD9" cx="114.978" cy="151.279" rx="52.062" ry="8.187"/>
	
		<ellipse transform="matrix(0.96 -0.2799 0.2799 0.96 -38.2183 38.0568)" fill="#6080BA" cx="114.143" cy="152.846" rx="39.732" ry="6.248"/>
	
		<ellipse transform="matrix(0.96 -0.2799 0.2799 0.96 -38.2771 37.6456)" fill="#80AAD9" cx="112.674" cy="152.846" rx="30.146" ry="4.74"/>
	
		<ellipse transform="matrix(0.979 -0.2039 0.2039 0.979 -19.841 26.4947)" fill="#F0E734" stroke="#B9B9B9" stroke-miterlimit="10" cx="118.686" cy="109.557" rx="12.779" ry="13.202"/>
	
		<ellipse transform="matrix(0.9683 -0.2496 0.2496 0.9683 -29.4084 21.5929)" fill="#F0E734" stroke="#B9B9B9" stroke-miterlimit="10" cx="70.434" cy="126.75" rx="12.779" ry="13.448"/>
	<ellipse fill="#F0E734" stroke="#B9B9B9" stroke-miterlimit="10" cx="31.632" cy="145.352" rx="7.446" ry="9.325"/>
	<circle fill="#F0E734" stroke="#B9B9B9" stroke-miterlimit="10" cx="167.692" cy="100.206" r="11.228"/>
	
		<ellipse transform="matrix(0.2403 -0.9707 0.9707 0.2403 48.7805 269.3434)" fill="#F0E734" stroke="#B9B9B9" stroke-miterlimit="10" cx="196.472" cy="103.506" rx="7.999" ry="6.614"/>
	<circle fill="#F8F084" cx="69.192" cy="124.759" r="7.772"/>
	<circle fill="#F8F084" cx="117.025" cy="106.256" r="7.772"/>
	<circle fill="#F8F084" cx="166.317" cy="97.109" r="6.397"/>
	
		<ellipse transform="matrix(0.7071 -0.7071 0.7071 0.7071 -14.1143 168.6094)" fill="#F8F084" cx="196.472" cy="101.342" rx="4.233" ry="4.233"/>
	
		<ellipse transform="matrix(0.998 -0.0638 0.0638 0.998 -9.1819 2.0992)" fill="#F8F084" cx="28.265" cy="144.761" rx="3.123" ry="3.924"/>
</g>
</svg>
