<?xml version="1.0" encoding="utf-8"?>
<!-- Generator: Adobe Illustrator 20.1.0, SVG Export Plug-In . SVG Version: 6.00 Build 0)  -->
<svg version="1.1" id="Capa_1" xmlns="http://www.w3.org/2000/svg" xmlns:xlink="http://www.w3.org/1999/xlink" x="0px" y="0px"
	 viewBox="0 0 298 224" enable-background="new 0 0 298 224" xml:space="preserve">
<g>
	<path fill="#B9B9B9" d="M32.638,48.646c0,0,13.833,10.459,18,22.067s27.833,10.607,27.833,10.607l64.765,4.63l-0.886-3.146
		l-5.925-10.531l-16.037-8.924l-14.457-0.641l-23.126,5.507l-25.833-5.507L32.638,48.646z"/>
	<g>
		<path fill="#B6D4E2" d="M52.574,172.869c0,0-12.248,3.34-30.342,0c0,0-1.949,10.856-11.135,10.578s-9.38-28.466,1.949-36.188
			c0,0,10.578-1.67,10.856-2.505c0.278-0.835,3.132-1.878,3.132-1.878L52.574,172.869z"/>
		<path fill="#B6D4E2" d="M89.638,204.571c0,0-11,3-27.25,0c0,0-1.75,9.75-10,9.5s-8.424-25.565,1.75-32.5c0,0,9.5-1.5,9.75-2.25
			s-0.25,0.75-0.25,0.75L89.638,204.571z"/>
		<path fill="#DCDEDD" d="M58.284,180.848c0,0,4.544,23.048,20.729,25.017l10.625-2.49l-25.661-26.027L58.284,180.848z"/>
		<path fill="#DCDEDD" d="M21.804,145.659c0,0-0.441,30.07,23.63,28.517l10.625-2.49l-26.525-31.108L21.804,145.659z"/>
		<path fill="#343E48" d="M132.638,196.321c0,0-24.75,16.5-50.25,10c0,0-12.25-6.75-19.5-22.75l-10-8.25
			c0,0-23.042,1.25-27.5-31.596c0,0,2.5-12.904,2.5-14.654s1.5-14.25,12-20.5C39.888,108.571,130.138,164.821,132.638,196.321z"/>
		<path fill="#F0E734" d="M214.472,86.154c0,0,12.833,3.667,18.167,1l8,29.112c0,0-18,1.555-24.5,1.388s-11.473,14-11.473,14
			s2.306,25.5-11.527,26.833c0,0-21.5,45.833-70.833,42.167c-49.333-3.667-84.333-47.25-86-77.625
			c-1.667-30.375,21.667-44.051,37.167-45.63s17.5,5.185,31-4.113s38,10.801,38,10.801L214.472,86.154z"/>
	</g>
	<g>
		<path fill="#918E50" d="M191.002,158.242c0,0-1.228-0.983-3.228-2.222c-0.991-0.632-2.19-1.299-3.475-2.001
			c-1.303-0.672-2.706-1.361-4.152-1.943c-0.722-0.295-1.447-0.577-2.176-0.813c-0.721-0.259-1.436-0.49-2.136-0.689
			c-0.345-0.114-0.685-0.226-1.018-0.336c-0.338-0.089-0.668-0.18-0.986-0.281c-0.638-0.198-1.242-0.385-1.813-0.502
			c-0.568-0.129-1.083-0.289-1.546-0.403c-0.466-0.088-0.874-0.172-1.209-0.252c-0.672-0.147-1.058-0.25-1.058-0.25l0.008-0.1
			c0,0,0.395-0.012,1.089,0c0.348-0.001,0.771,0.012,1.256,0.036c0.48,0.053,1.026,0.102,1.616,0.19
			c0.595,0.07,1.226,0.205,1.896,0.351c0.675,0.125,1.368,0.327,2.08,0.554c0.711,0.23,1.438,0.486,2.155,0.801
			c0.729,0.286,1.45,0.617,2.165,0.962c1.442,0.662,2.83,1.427,4.113,2.169c0.628,0.395,1.253,0.745,1.811,1.133
			c0.567,0.373,1.097,0.735,1.576,1.084c1.93,1.372,3.098,2.437,3.098,2.437L191.002,158.242z"/>
	</g>
	<g>
		
			<ellipse transform="matrix(0.6431 -0.7658 0.7658 0.6431 -44.4726 168.1302)" fill="#354B67" cx="158.138" cy="131.777" rx="15.908" ry="17.472"/>
		
			<ellipse transform="matrix(0.6431 -0.7658 0.7658 0.6431 -46.553 169.9199)" fill="#627185" cx="159.018" cy="134.903" rx="11.706" ry="12.958"/>
		
			<ellipse transform="matrix(0.6431 -0.7658 0.7658 0.6431 -45.3873 169.3769)" fill="#B6D4E2" cx="159.018" cy="133.381" rx="10.54" ry="11.979"/>
	</g>
	<path fill="#B6D4E2" d="M240.638,117.821c0,0-13.5-7.333-10.5-31.5l3.5-2c0,0,12,3.167,14.667,0.667c2.667-2.5,13,1,13,1
		s7.833,1.333,11.167,0.167s21-2.667,10.833,3.5c0,0,11.5-1.833,9.667,1.833c-1.833,3.667-5.833,5.619-5.833,5.619
		s4.5,5.881-9.5,7.548c0,0-5.333,2.833-9.333,3S260.138,115.821,240.638,117.821z"/>
	<g>
		<path fill="#918E50" d="M152.221,120.98c0,0-3.357,0.549-8.421,0.904c-5.058,0.364-11.849,0.517-18.58-0.235
			c-1.681-0.187-3.356-0.435-4.993-0.741c-1.634-0.321-3.236-0.674-4.757-1.125c-0.764-0.213-1.509-0.442-2.227-0.705
			c-0.727-0.235-1.42-0.512-2.09-0.795c-0.68-0.259-1.313-0.576-1.928-0.875c-0.624-0.28-1.19-0.623-1.741-0.937
			c-0.56-0.299-1.059-0.646-1.536-0.973c-0.485-0.314-0.928-0.636-1.319-0.973c-0.822-0.623-1.452-1.263-1.977-1.784
			c-0.534-0.51-0.861-0.997-1.128-1.288c-0.253-0.303-0.388-0.465-0.388-0.465s0.138,0.159,0.397,0.458
			c0.272,0.286,0.607,0.765,1.15,1.265c0.533,0.509,1.172,1.136,2.003,1.741c0.394,0.329,0.841,0.64,1.33,0.944
			c0.48,0.317,0.982,0.653,1.545,0.94c0.554,0.302,1.121,0.632,1.748,0.899c0.617,0.286,1.25,0.589,1.931,0.834
			c0.67,0.268,1.364,0.531,2.09,0.751c0.717,0.248,1.461,0.462,2.224,0.659c1.518,0.42,3.116,0.741,4.744,1.029
			c1.631,0.273,3.299,0.489,4.972,0.644c6.7,0.623,13.445,0.346,18.461-0.109c5.024-0.445,8.322-1.049,8.322-1.049L152.221,120.98z"
			/>
	</g>
	<g>
		<path fill="#4C5D63" d="M252.473,90.437c0,0,0.583-0.003,1.604-0.008c1.02-0.021,2.48-0.056,4.215-0.233
			c0.863-0.094,1.809-0.213,2.737-0.494c0.448-0.16,0.945-0.313,1.07-0.723c0.017-0.084,0.237-0.324,0.355-0.384
			c0.133-0.092,0.268-0.154,0.404-0.212c0.272-0.112,0.548-0.187,0.827-0.249c1.116-0.234,2.281-0.259,3.459-0.146
			c1.169,0.132,2.394,0.389,3.461,1.141c0.524,0.374,0.989,0.949,1.147,1.638c0.165,0.688,0.027,1.374-0.193,1.959
			c-0.214,0.601-0.537,1.116-0.871,1.607l-0.544,0.706l-0.545,0.623c-0.354,0.409-0.743,0.8-1.149,1.174
			c-0.384,0.391-0.795,0.727-1.207,1.038c-0.809,0.641-1.657,1.141-2.459,1.557c-0.824,0.378-1.611,0.657-2.338,0.787
			c-0.72,0.151-1.364,0.189-1.889,0.147c-1.055-0.054-1.605-0.333-1.605-0.333l0.035-0.094c0,0,0.567,0.159,1.566,0.075
			c0.497-0.04,1.094-0.146,1.752-0.35c0.667-0.179,1.362-0.547,2.109-0.935c0.728-0.435,1.493-0.948,2.222-1.6
			c0.367-0.323,0.747-0.648,1.098-1.014c0.365-0.346,0.73-0.723,1.087-1.148l0.559-0.611l0.495-0.613
			c0.306-0.434,0.616-0.879,0.805-1.359c0.201-0.473,0.312-0.975,0.219-1.432c-0.086-0.457-0.374-0.867-0.78-1.187
			c-0.83-0.635-1.965-0.943-3.058-1.094c-1.103-0.143-2.228-0.152-3.263,0.031c-0.487,0.086-1.078,0.261-1.234,0.522l-0.024,0.043
			c0.03-0.079-0.01,0.015-0.01,0.015l-0.064,0.13c-0.047,0.081-0.11,0.137-0.167,0.203c-0.122,0.107-0.249,0.193-0.377,0.256
			c-0.256,0.131-0.511,0.215-0.763,0.282c-1.008,0.257-1.961,0.331-2.841,0.39c-1.759,0.103-3.221,0.075-4.244,0.053
			c-1.023-0.039-1.607-0.061-1.607-0.061L252.473,90.437z"/>
	</g>
	<g>
		<path fill="#4C5D63" d="M282.498,89.863c-0.475,0.315-0.93,0.656-1.422,0.948c-0.486,0.304-0.977,0.6-1.482,0.869
			c-1.002,0.555-2.038,1.054-3.103,1.48c-1.062,0.436-2.147,0.819-3.25,1.146c-1.108,0.325-2.208,0.621-3.375,0.827l0.282-0.823
			c0.534,0.521,1.052,1.035,1.519,1.606c0.479,0.558,0.923,1.149,1.342,1.758c0.409,0.617,0.786,1.262,1.088,1.948
			c0.146,0.346,0.288,0.696,0.368,1.069c0.049,0.182,0.058,0.38,0.086,0.564c0.022,0.188-0.019,0.386-0.03,0.567l-0.1-0.007
			c-0.059-0.356-0.16-0.683-0.318-0.999c-0.163-0.312-0.334-0.617-0.527-0.912c-0.401-0.583-0.838-1.142-1.289-1.692
			c-0.455-0.549-0.926-1.085-1.396-1.623l-1.429-1.594l-0.645-0.72l0.928-0.103c1.086-0.121,2.211-0.324,3.301-0.59
			c1.096-0.262,2.179-0.58,3.245-0.952c1.066-0.371,2.122-0.78,3.148-1.258c0.518-0.231,1.022-0.487,1.522-0.752
			c0.507-0.254,0.988-0.564,1.484-0.843L282.498,89.863z"/>
	</g>
	<g>
		<path fill="#4C5D63" d="M287.157,97.152c0,0-0.735,0.357-1.872,0.821c-1.132,0.477-2.687,1.002-4.286,1.414
			c-0.397,0.113-0.803,0.196-1.201,0.291c-0.395,0.107-0.8,0.147-1.185,0.211c-0.78,0.079-1.522,0.05-2.151-0.039
			c-0.314-0.031-0.6-0.124-0.85-0.179c-0.25-0.054-0.462-0.142-0.632-0.223c-0.342-0.146-0.524-0.246-0.524-0.246l0.028-0.096
			c0,0,0.215-0.011,0.568-0.003c0.177,0.002,0.386,0.011,0.632-0.012c0.245-0.018,0.512-0.009,0.809-0.04
			c0.294-0.026,0.614-0.054,0.951-0.084c0.337-0.054,0.692-0.066,1.061-0.114c0.738-0.067,1.538-0.116,2.331-0.25
			c1.588-0.249,3.159-0.65,4.336-0.962c1.176-0.319,1.946-0.582,1.946-0.582L287.157,97.152z"/>
	</g>
	<g>
		<path fill="#4C5D63" d="M256.79,104.94c0,0,0.44-0.191,1.068-0.536c0.62-0.353,1.451-0.816,2.163-1.398
			c0.346-0.298,0.657-0.628,0.897-0.935c0.139-0.144,0.255-0.284,0.358-0.419c0.126-0.131,0.187-0.268,0.272-0.395
			c0.1-0.126,0.115-0.256,0.173-0.376c0.065-0.121,0.076-0.235,0.095-0.334c0.032-0.198,0.065-0.334,0.065-0.334l0.095-0.032
			c0,0,0.078,0.098,0.188,0.312c0.063,0.106,0.132,0.242,0.142,0.413c0.013,0.166,0.069,0.38,0.008,0.583
			c-0.038,0.21-0.083,0.451-0.205,0.656c-0.095,0.229-0.239,0.434-0.411,0.617c-0.343,0.378-0.796,0.637-1.222,0.902
			c-0.872,0.5-1.781,0.86-2.483,1.062c-0.697,0.211-1.172,0.308-1.172,0.308L256.79,104.94z"/>
	</g>
	<path fill="#FFFFFF" d="M140.813,82.804c0,0-3.421-29.041-43.715-20.095S29.847,43.487,29.847,43.487s8.947,22.956,16.452,24.728
		c0,0,38.506,7.939,51.839-1.061S135.745,66.1,140.813,82.804z"/>
	<path fill="#E3E4E4" d="M263.534,108.571c0,0-12.5,8.266-22.167,7.848c0,0-4.333-1.085-6.833-8.585
		C234.534,107.833,249.43,112.487,263.534,108.571z"/>
	<path fill="#E3E4E4" d="M139.989,111.826c0,0-27.122,5.248-43.288-10.872c0,0,1.953,25.264,50.976,19.322L139.989,111.826z"/>
	<path fill="#E3E4E4" d="M150.034,123.167c0,0-5.5-3.833-8.5-9.667l37.113-0.667c0,0-2.227,3.114,0,3.585L150.034,123.167z"/>
	<g>
		<ellipse fill="#354B67" cx="113.274" cy="82.804" rx="12.135" ry="11.188"/>
		<ellipse fill="#627185" cx="111.409" cy="81.518" rx="9" ry="8.232"/>
		<ellipse fill="#B6D4E2" cx="112.089" cy="82.338" rx="8.32" ry="7.412"/>
	</g>
	<polygon fill="#E3E4E4" points="221.284,88.246 221.284,100.197 214.784,109.75 210.638,117.6 206.422,121.849 204.665,128 
		198.534,128 191.034,117.821 187.968,116.418 170.503,123 158.138,125.5 151.434,124.321 144.036,111.826 147.677,92.821 
		167.034,88.246 185.784,100.197 205.534,89.821 214.472,86.154 	"/>
	<g>
		<path fill="#603716" d="M69.972,48.646c0,0,43.5,24.508,71.833,14.174l9.167,5.5h3.167l4-10l-5.5-7
			C152.638,51.321,90.138,61.472,69.972,48.646z"/>
		<path fill="#D07526" d="M85.638,58.483c0,0,33.181,16.812,59.34,6.241v-4.571C144.979,60.154,117.972,73.313,85.638,58.483z"/>
		<path fill="#BF9B6D" d="M216.138,69.321c0,0-1.167,6.167,0,9.667s5.833,16.833-17.5,18c-23.333,1.167-53.167-6.5-57.167-12.833
			c0,0-2.833-5.833-0.667-12.167c2.167-6.333,9.167-12.833,9.167-12.833l2,6.5l2-4.667l13-16.667l48.167,14.333L216.138,69.321z"/>
		<path fill="#DABCA7" d="M208.638,53.321c0,0,13-35.167-52.833-25c0,0,45.833-8,46.333,24L208.638,53.321z"/>
		<path fill="#D07526" d="M202.638,53.321c0,0,5.333-37.5-53.667-23c0,0,41.488-3.5,48.244,23H202.638z"/>
		<path fill="#D07526" d="M181.239,48.043c0,0-3.547-37.711-57.547-9.869c0,0,39.532-13.066,52.274,11.132L181.239,48.043z"/>
		<path fill="#603716" d="M98.138,45.654c0,0,17.5-0.667,45.75-12s52.905,3.167,53.328,19.667h-6.744
			c0,0-7.198-21.882-43.833-15.333C127.138,41.473,116.472,46.154,98.138,45.654z"/>
		<path fill="#D07526" d="M88.891,45.654c0,0,17.5-0.667,45.75-12s52.905,3.167,53.328,19.667h-6.744
			c0,0-7.198-21.882-43.833-15.333C117.891,41.473,107.224,46.154,88.891,45.654z"/>
		<path fill="#603716" d="M79.472,43.321c0,0,44,18,79.5,0l4.333-5.5c0,0-23.019-6.108-42.167,6.5
			C107.36,53.393,79.472,43.321,79.472,43.321z"/>
		<path fill="#D07526" d="M72.472,44.321c0,0,27.833,18,85.667,14l0.667-16.848C158.805,41.473,97.638,60.321,72.472,44.321z"/>
		<path fill="#354B67" d="M196.202,50.187c0,0,12.27-1.199,15.27,1.134s10,6.057,11.333,12.029
			c1.333,5.971-1.333,10.805-9.667,9.805s-11.372-6.667-16.936-5.667c-5.564,1-12.23-1.667-16.73,1.833s-24.833,3.218-27.667-12.224
			c-2.833-15.442,11.5-19.276,11.5-19.276L196.202,50.187z"/>
		<g>
			<path fill="#BF9B6D" d="M189.972,69.154l7.244-4.5c0,0,7.589-2.5,6.922,7.167l-2.167,2.333"/>
			<path fill="#F8ECE1" d="M189.945,69.111c2.367-1.576,4.722-3.173,7.105-4.723l0.03-0.02l0.037-0.012
				c0.531-0.169,1.044-0.273,1.584-0.32c0.535-0.06,1.08-0.036,1.625,0.029c0.268,0.064,0.544,0.105,0.809,0.189
				c0.258,0.107,0.535,0.179,0.779,0.323c0.237,0.154,0.503,0.274,0.714,0.465c0.206,0.195,0.435,0.376,0.619,0.592l0.495,0.693
				c0.137,0.244,0.238,0.504,0.358,0.757c0.135,0.251,0.188,0.521,0.248,0.787l0.181,0.798l0.057,0.802
				c0.009,0.267,0.048,0.535,0.032,0.798c-0.037,0.528-0.069,1.054-0.119,1.575l-0.014,0.146l-0.082,0.076
				c-0.78,0.724-1.562,1.446-2.396,2.12l-0.073-0.068c0.611-0.881,1.273-1.715,1.937-2.546l-0.096,0.222
				c-0.03-0.503-0.043-1.002-0.06-1.5c-0.003-0.249-0.06-0.489-0.086-0.733l-0.093-0.728l-0.179-0.696
				c-0.053-0.235-0.118-0.464-0.219-0.673c-0.093-0.213-0.167-0.438-0.271-0.644l-0.371-0.577c-0.136-0.182-0.309-0.329-0.46-0.5
				c-0.157-0.166-0.366-0.267-0.546-0.408c-0.393-0.236-0.835-0.398-1.298-0.504c-0.47-0.078-0.952-0.127-1.44-0.096
				c-0.483,0.015-0.987,0.095-1.438,0.213l0.067-0.031c-2.446,1.449-4.921,2.853-7.383,4.276L189.945,69.111z"/>
		</g>
		
			<ellipse transform="matrix(0.93 -0.3676 0.3676 0.93 -12.8181 76.7011)" fill="#7D6C5B" cx="194.94" cy="71.999" rx="2.135" ry="1.286"/>
		<circle fill="#FFFFFF" cx="204.665" cy="59.902" r="2.806"/>
		<ellipse fill="#FFFFFF" cx="176.555" cy="55.987" rx="3.25" ry="2.667"/>
		<ellipse fill="#BF9B6D" cx="144.036" cy="64.154" rx="7.398" ry="10"/>
	</g>
	<g>
		<path fill="#B6D4E2" d="M148.972,124.321c0,0-16.958-12.697-14.104-27.215s7.203-15.106,8.37-15.773c0,0,27.36,5.654,32.631,5.154
			c5.271-0.5,12.104,1,14.104,2s32.333-9.333,20.667,4.333c0,0,17.584,1.5-0.958,9.667c0,0,9.958,8-16.542,8.667
			c0,0-3.833,5.167-13.333,5.833C179.805,116.987,152.472,124.321,148.972,124.321z"/>
		<g>
			<path fill="#4C5D63" d="M210.661,92.865c-0.519,0.258-1.014,0.557-1.568,0.753c-0.273,0.101-0.537,0.235-0.818,0.309
				l-0.835,0.257c-0.565,0.134-1.13,0.29-1.707,0.369c-0.573,0.107-1.153,0.165-1.732,0.225c-1.161,0.093-2.328,0.109-3.492,0.053
				c-1.166-0.061-2.321-0.176-3.481-0.393l-1.578-0.295L197.056,94c2.488-0.222,4.982-0.305,7.488-0.142
				c0.626,0.045,1.252,0.114,1.878,0.21c0.624,0.116,1.252,0.231,1.866,0.469c0.596,0.236,1.266,0.514,1.67,1.211
				c0.082,0.174,0.133,0.373,0.189,0.561c0.009,0.191-0.008,0.385-0.02,0.577c-0.098,0.344-0.209,0.705-0.407,0.971l-0.274,0.426
				l-0.32,0.37c-0.207,0.257-0.435,0.484-0.674,0.694c-0.457,0.455-0.966,0.828-1.459,1.226c-0.505,0.377-1.022,0.735-1.538,1.094
				l-1.584,1.013c-1.073,0.642-2.151,1.277-3.249,1.868c-1.089,0.614-2.211,1.154-3.315,1.735l0.22-0.206
				c-0.474,0.787-0.99,1.487-1.549,2.178c-0.553,0.69-1.139,1.353-1.774,1.969c-0.305,0.32-0.646,0.604-0.975,0.899
				c-0.323,0.301-0.673,0.573-1.027,0.84c-0.348,0.273-0.698,0.543-1.078,0.775c-0.377,0.233-0.729,0.504-1.126,0.703l-1.175,0.621
				l-1.237,0.488c-0.404,0.182-0.844,0.266-1.27,0.384c-0.429,0.109-0.85,0.244-1.294,0.279l-1.311,0.169l-1.319-0.017
				c-0.219-0.006-0.438-0.001-0.656-0.017l-0.649-0.101l-1.289-0.213l0.018-0.098l1.292,0.083l0.641,0.047
				c0.214-0.002,0.429-0.026,0.642-0.037l1.277-0.089l1.254-0.244c0.422-0.057,0.821-0.213,1.225-0.341
				c0.401-0.138,0.813-0.24,1.191-0.439l1.151-0.534l1.1-0.633c0.372-0.201,0.701-0.475,1.053-0.708
				c0.354-0.232,0.68-0.503,1.005-0.776c0.329-0.266,0.655-0.537,0.955-0.837c0.306-0.294,0.623-0.575,0.905-0.893
				c0.584-0.614,1.155-1.243,1.674-1.914c0.527-0.657,1.023-1.369,1.448-2.062l0.084-0.137l0.136-0.069
				c1.102-0.559,2.225-1.086,3.311-1.672c1.103-0.56,2.179-1.162,3.253-1.769l1.578-0.958c0.511-0.338,1.024-0.676,1.522-1.029
				c0.481-0.372,0.982-0.727,1.414-1.142c0.232-0.196,0.447-0.403,0.634-0.628l0.297-0.328l0.235-0.353
				c0.303-0.467,0.488-0.996,0.251-1.395c-0.213-0.421-0.758-0.712-1.292-0.921c-0.541-0.224-1.141-0.347-1.734-0.468
				c-0.6-0.104-1.207-0.182-1.819-0.238c-2.449-0.209-4.938-0.162-7.4-0.01l0.028-0.439c1.112,0.237,2.263,0.382,3.408,0.47
				c1.148,0.084,2.301,0.096,3.45,0.034c0.574-0.045,1.148-0.088,1.716-0.18c0.573-0.064,1.132-0.205,1.695-0.323l0.831-0.234
				c0.282-0.067,0.541-0.191,0.813-0.284c0.547-0.177,1.055-0.466,1.579-0.711L210.661,92.865z"/>
		</g>
	</g>
</g>
</svg>
