<?xml version="1.0" encoding="utf-8"?>
<!-- Generator: Adobe Illustrator 20.1.0, SVG Export Plug-In . SVG Version: 6.00 Build 0)  -->
<svg version="1.1" id="Capa_1" xmlns="http://www.w3.org/2000/svg" xmlns:xlink="http://www.w3.org/1999/xlink" x="0px" y="0px"
	 viewBox="0 0 851 119" enable-background="new 0 0 851 119" xml:space="preserve">
<g>
	<g>
		<g>
			<g>
				<path fill="#FFFFFF" d="M333.215,97.499c-12.49,0-23.842-6.371-30.365-17.043l-2.393-3.915l4.546-0.622
					c2.716-0.371,4.764-2.722,4.764-5.467c0-3.044-2.477-5.521-5.521-5.521c-0.808,0-1.586,0.171-2.315,0.51l-4.151,1.926
					l-0.118-4.82c-0.007-0.204-0.013-0.409-0.013-0.615c0-19.611,15.955-35.566,35.567-35.566c18.576,0,34.155,14.505,35.467,33.022
					l0.423,5.971l0.047-0.021l-0.039,0.142l0.005,0.073l-0.021-0.015l-1.576,5.775C363.314,86.731,349.207,97.499,333.215,97.499z
					 M310.095,80.37c5.582,7.028,13.985,11.129,23.12,11.129c11.829,0,22.417-7.085,27.07-17.675
					c-4.192-0.878-7.35-4.603-7.35-9.052c0-5.062,4.089-9.188,9.138-9.248c-2.545-11.466-11.785-20.393-23.253-22.621
					c-0.383,2.976-3.112,5.087-6.093,4.721c-2.546-0.318-4.468-2.352-4.749-4.795c-12.854,2.306-22.851,12.948-24.18,26.11
					c0.148-0.005,0.297-0.008,0.447-0.008c6.353,0,11.521,5.168,11.521,11.521C315.767,74.616,313.507,78.346,310.095,80.37z
					 M362.185,61.524c-1.791,0-3.249,1.457-3.249,3.248s1.458,3.248,3.249,3.248c0.44,0,0.867-0.087,1.269-0.258l5.484-2.333
					l-4.932-3.348C363.467,61.717,362.838,61.524,362.185,61.524z M332.892,32.367c0.019,0.061,0.049,0.119,0.088,0.169
					c0.086,0.11,0.22,0.187,0.358,0.204c0.262,0.029,0.5-0.126,0.579-0.367C333.576,32.366,333.234,32.363,332.892,32.367z
					 M324.328,87.653c-0.229,0-0.459-0.014-0.689-0.043c-2.987-0.374-5.114-3.108-4.741-6.096c0.373-2.986,3.104-5.128,6.095-4.742
					c2.989,0.374,5.116,3.109,4.743,6.097c-0.181,1.447-0.915,2.737-2.066,3.634C326.701,87.256,325.535,87.653,324.328,87.653z
					 M324.32,81.653c-0.12,0-0.241,0.04-0.334,0.113c-0.11,0.086-0.187,0.22-0.204,0.358c-0.037,0.295,0.173,0.563,0.467,0.601
					c0.304,0.04,0.566-0.173,0.603-0.468c0.037-0.294-0.173-0.563-0.467-0.601C324.362,81.654,324.341,81.653,324.32,81.653z
					 M344.576,87.653c-4.16,0-7.544-3.385-7.544-7.545s3.384-7.544,7.544-7.544c4.16,0,7.544,3.384,7.544,7.544
					S348.736,87.653,344.576,87.653z M344.576,78.564c-0.852,0-1.544,0.692-1.544,1.544s0.692,1.545,1.544,1.545
					s1.544-0.693,1.544-1.545S345.427,78.564,344.576,78.564z M334.919,74.021c-5.726,0-10.384-4.658-10.384-10.385
					c0-5.726,4.658-10.384,10.384-10.384s10.384,4.658,10.384,10.384C345.304,69.362,340.646,74.021,334.919,74.021z
					 M334.919,59.252c-2.417,0-4.384,1.967-4.384,4.384c0,2.418,1.967,4.385,4.384,4.385s4.384-1.967,4.384-4.385
					C339.304,61.219,337.337,59.252,334.919,59.252z M317.311,58.116c-4.16,0-7.544-3.384-7.544-7.544
					c0-4.16,3.384-7.544,7.544-7.544c4.16,0,7.544,3.384,7.544,7.544C324.855,54.731,321.471,58.116,317.311,58.116z
					 M317.311,49.027c-0.852,0-1.544,0.692-1.544,1.544s0.692,1.544,1.544,1.544s1.544-0.693,1.544-1.544
					S318.162,49.027,317.311,49.027z M347.227,53.571c-4.16,0-7.544-3.384-7.544-7.544c0-4.16,3.384-7.544,7.544-7.544
					s7.544,3.384,7.544,7.544C354.771,50.187,351.387,53.571,347.227,53.571z M347.227,44.483c-0.852,0-1.544,0.693-1.544,1.544
					s0.693,1.544,1.544,1.544s1.544-0.692,1.544-1.544S348.078,44.483,347.227,44.483z"/>
			</g>
			<g>
				<path fill="#FFFFFF" d="M347.227,53.571c-4.16,0-7.544-3.384-7.544-7.544c0-4.16,3.384-7.544,7.544-7.544
					s7.544,3.384,7.544,7.544C354.771,50.187,351.387,53.571,347.227,53.571z M347.227,44.483c-0.852,0-1.544,0.693-1.544,1.544
					s0.693,1.544,1.544,1.544s1.544-0.692,1.544-1.544S348.078,44.483,347.227,44.483z"/>
			</g>
			<g>
				<path fill="#FFFFFF" d="M317.311,58.116c-4.16,0-7.544-3.384-7.544-7.544c0-4.16,3.384-7.544,7.544-7.544
					c4.16,0,7.544,3.384,7.544,7.544C324.855,54.731,321.471,58.116,317.311,58.116z M317.311,49.027
					c-0.852,0-1.544,0.692-1.544,1.544s0.692,1.544,1.544,1.544s1.544-0.693,1.544-1.544S318.162,49.027,317.311,49.027z"/>
			</g>
			<g>
				<path fill="#FFFFFF" d="M344.576,87.653c-4.16,0-7.544-3.385-7.544-7.545s3.384-7.544,7.544-7.544
					c4.16,0,7.544,3.384,7.544,7.544S348.736,87.653,344.576,87.653z M344.576,78.564c-0.852,0-1.544,0.692-1.544,1.544
					s0.692,1.545,1.544,1.545s1.544-0.693,1.544-1.545S345.427,78.564,344.576,78.564z"/>
			</g>
			<g>
				<path fill="#FFFFFF" d="M333.408,37.667c-0.225,0-0.452-0.014-0.681-0.042h0c-2.987-0.374-5.115-3.108-4.742-6.096
					c0.374-2.988,3.108-5.108,6.097-4.742c1.447,0.181,2.738,0.915,3.633,2.066c0.896,1.151,1.29,2.583,1.108,4.031
					C338.479,35.642,336.121,37.667,333.408,37.667z M333.337,32.74L333.337,32.74c0.142,0.02,0.288-0.023,0.398-0.109
					s0.187-0.22,0.204-0.359c0.037-0.295-0.173-0.564-0.468-0.602L333.337,32.74z M333.404,31.667c-0.268,0-0.5,0.2-0.534,0.472
					c-0.017,0.138,0.024,0.287,0.11,0.397c0.085,0.11,0.219,0.187,0.358,0.204l0.133-1.069
					C333.448,31.668,333.426,31.667,333.404,31.667z"/>
			</g>
			<g>
				<path fill="#FFFFFF" d="M324.328,87.653c-0.229,0-0.459-0.014-0.689-0.043c-2.987-0.374-5.114-2.995-4.741-5.982
					c0.373-2.986,3.104-5.628,6.095-4.628h0.002c2.987,0,5.114,2.996,4.741,5.983c-0.181,1.447-0.915,2.68-2.066,3.577
					C326.701,87.313,325.535,87.653,324.328,87.653z M324.384,81.657l-0.133,1.068c0.294,0.039,0.563-0.173,0.6-0.468
					C324.888,81.964,324.678,81.694,324.384,81.657z M324.32,81.653c-0.12,0-0.241,0.04-0.334,0.113
					c-0.11,0.086-0.187,0.22-0.204,0.358c-0.037,0.295,0.173,0.563,0.467,0.601l0.134-1.068
					C324.362,81.654,324.341,81.653,324.32,81.653z"/>
			</g>
			<g>
				<path fill="#FFFFFF" d="M367.522,71.313l-5.788-1.58c0.696-2.548,1.048-5.172,1.048-7.802c0-0.623-0.027-1.297-0.085-2.122
					l5.985-0.421c0.068,0.968,0.1,1.776,0.1,2.542C368.782,65.095,368.358,68.252,367.522,71.313z"/>
			</g>
			<g>
				<path fill="#FFFFFF" d="M362.185,74.021c-5.1,0-9.249-4.148-9.249-9.248s4.149-9.249,9.249-9.249
					c1.859,0,3.654,0.551,5.19,1.593l1.206,0.818l0.102,1.454c0.068,0.968,0.1,1.776,0.1,2.542c0,3.163-0.424,6.32-1.26,9.382
					l-0.383,1.401l-1.336,0.569C364.654,73.772,363.437,74.021,362.185,74.021z M362.185,61.523c-1.791,0-3.249,1.458-3.249,3.249
					c0,1.778,1.438,3.228,3.211,3.248c0.422-2.004,0.635-4.045,0.635-6.089c0-0.116-0.001-0.233-0.003-0.354
					C362.584,61.542,362.386,61.523,362.185,61.523z"/>
			</g>
			<g>
				<path fill="#FFFFFF" d="M334.919,74.021c-5.726,0-10.384-4.658-10.384-10.385c0-5.726,4.658-10.384,10.384-10.384
					s10.384,4.658,10.384,10.384C345.304,69.362,340.646,74.021,334.919,74.021z M334.919,59.252c-2.417,0-4.384,1.967-4.384,4.384
					c0,2.418,1.967,4.385,4.384,4.385s4.384-1.967,4.384-4.385C339.304,61.219,337.337,59.252,334.919,59.252z"/>
			</g>
			<g>
				<path fill="#FFFFFF" d="M302.85,80.456c-3.241-5.302-5.032-11.41-5.181-17.665l5.998-0.143c0.124,5.2,1.611,10.276,4.302,14.679
					L302.85,80.456z"/>
			</g>
			<g>
				<path fill="#FFFFFF" d="M303.873,82.13l-1.023-1.674c-3.241-5.302-5.032-11.41-5.181-17.665l-0.047-1.965l1.783-0.828
					c1.525-0.708,3.154-1.067,4.84-1.067c6.353,0,11.521,5.168,11.521,11.521c0,5.729-4.278,10.636-9.95,11.412L303.873,82.13z
					 M303.812,64.948c0.369,3.622,1.399,7.143,3.037,10.37c1.746-0.938,2.918-2.79,2.918-4.866c0-3.044-2.477-5.521-5.521-5.521
					C304.1,64.932,303.956,64.938,303.812,64.948z"/>
			</g>
		</g>
		<g>
			<path fill="#FFFFFF" d="M299.134,44.013l-8.386-10.482l8.386-10.482l8.386,10.482L299.134,44.013z M298.432,33.531l0.702,0.878
				l0.703-0.878l-0.703-0.878L298.432,33.531z"/>
		</g>
		<g>
			<g>
				
					<rect x="312.009" y="21.821" transform="matrix(0.7071 -0.7071 0.7071 0.7071 74.4996 229.5002)" fill="#FFFFFF" width="4.544" height="5.999"/>
			</g>
			<g>
				
					<rect x="311.281" y="22.549" transform="matrix(0.7071 -0.7071 0.7071 0.7071 74.4996 229.5002)" fill="#FFFFFF" width="5.999" height="4.544"/>
			</g>
			<g>
				<path fill="#FFFFFF" d="M314.281,28.577c-0.962,0-1.924-0.366-2.657-1.099c-0.709-0.708-1.101-1.652-1.101-2.656
					c0-1.005,0.392-1.949,1.103-2.659c1.466-1.464,3.848-1.463,5.312,0.002c1.465,1.465,1.465,3.848,0,5.313
					C316.206,28.21,315.244,28.577,314.281,28.577z M312.695,23.235c-0.875,0.875-0.874,2.297,0,3.171
					c0.874,0.875,2.297,0.875,3.171,0l0,0.001c0.418-0.417,0.657-0.996,0.657-1.586c0-0.591-0.24-1.17-0.658-1.588
					C314.993,22.361,313.571,22.36,312.695,23.235l1.05,1.05L312.695,23.235z"/>
			</g>
		</g>
		<g>
			<g>
				
					<rect x="307.465" y="94.907" transform="matrix(0.707 -0.7072 0.7072 0.707 21.5066 247.7266)" fill="#FFFFFF" width="4.545" height="6"/>
			</g>
			<g>
				
					<rect x="306.737" y="95.634" transform="matrix(0.7072 -0.7071 0.7071 0.7072 21.478 247.6715)" fill="#FFFFFF" width="6" height="4.545"/>
			</g>
			<g>
				<path fill="#FFFFFF" d="M309.737,101.662c-0.962,0-1.924-0.366-2.657-1.099c-1.464-1.466-1.464-3.848-0.002-5.312l0.002-0.002
					c1.465-1.465,3.849-1.465,5.313,0c1.465,1.465,1.465,3.849,0,5.313C311.661,101.296,310.699,101.662,309.737,101.662z
					 M309.736,95.665c-0.574,0-1.148,0.219-1.585,0.656c-0.875,0.874-0.875,2.297,0,3.171c0.874,0.875,2.297,0.875,3.171,0
					l-2.121-2.121l2.123,2.119c0.872-0.873,0.872-2.294,0-3.167C310.886,95.885,310.311,95.665,309.736,95.665z"/>
			</g>
		</g>
		<g>
			<g>
				<rect x="362" y="28" fill="#FFFFFF" width="6" height="5"/>
			</g>
			<g>
				<rect x="363" y="27" fill="#FFFFFF" width="4" height="6"/>
			</g>
			<g>
				<path fill="#FFFFFF" d="M365.128,33.799c-2.072,0-3.758-1.686-3.758-3.757s1.686-3.757,3.758-3.757
					c2.072,0,3.757,1.686,3.757,3.757S367.2,33.799,365.128,33.799z M365.128,27.799c-1.237,0-2.243,1.006-2.243,2.243
					s1.006,2.243,2.243,2.243c1.236,0,2.242-1.006,2.242-2.243S366.364,27.799,365.128,27.799z"/>
			</g>
		</g>
	</g>
	<g>
		<g>
			<path fill="#FFFFFF" d="M643.356,103.558c-6.566,0-12.74-2.558-17.384-7.201s-7.201-10.817-7.201-17.384
				s2.558-12.74,7.201-17.384l4.242,4.242c-7.246,7.246-7.246,19.037,0,26.283c3.511,3.51,8.178,5.443,13.142,5.443
				c4.965,0,9.632-1.934,13.142-5.443l4.242,4.242C656.098,101,649.924,103.558,643.356,103.558z"/>
		</g>
		<g>
			<circle fill="#FFFFFF" cx="631.239" cy="60.796" r="1.136"/>
		</g>
		<g>
			<circle fill="#FFFFFF" cx="684.633" cy="70.642" r="1.136"/>
		</g>
		<g>
			<circle fill="#FFFFFF" cx="694.858" cy="39.968" r="1.136"/>
		</g>
		<g>
			
				<rect x="628.067" y="37.645" transform="matrix(0.7711 -0.6367 0.6367 0.7711 124.1059 426.5249)" fill="#FFFFFF" width="54.468" height="6"/>
		</g>
		<g>
			
				<rect x="652.412" y="34.114" transform="matrix(0.7711 -0.6367 0.6367 0.7711 130.2482 436.5495)" fill="#FFFFFF" width="39.807" height="6"/>
		</g>
		<g>
			
				<rect x="646.93" y="52.181" transform="matrix(0.7711 -0.6367 0.6367 0.7711 113.7371 426.7523)" fill="#FFFFFF" width="7.006" height="6"/>
		</g>
		<g>
			
				<rect x="654.643" y="52.073" transform="matrix(0.7711 -0.6367 0.6367 0.7711 116.7688 434.9707)" fill="#FFFFFF" width="17.473" height="6"/>
		</g>
		<g>
			
				<rect x="657.513" y="51.854" transform="matrix(0.7711 -0.6367 0.6367 0.7711 119.9353 443.3408)" fill="#FFFFFF" width="38.182" height="6"/>
		</g>
		<g>
			
				<rect x="682.005" y="50.521" transform="matrix(0.7732 -0.6341 0.6341 0.7732 122.9983 450.9792)" fill="#FFFFFF" width="20.049" height="6"/>
		</g>
		<g>
			
				<rect x="662.809" y="66.679" transform="matrix(0.7711 -0.6367 0.6367 0.7711 109.5358 444.0623)" fill="#FFFFFF" width="19.199" height="6"/>
		</g>
		<g>
			
				<rect x="657.691" y="79.665" transform="matrix(0.7415 -0.6709 0.6709 0.7415 117.989 471.6065)" fill="#FFFFFF" width="26.81" height="6"/>
		</g>
		<g>
			
				<rect x="687.069" y="62.405" transform="matrix(0.7711 -0.6367 0.6367 0.7711 116.4145 454.6492)" fill="#FFFFFF" width="7.007" height="6"/>
		</g>
	</g>
	<g>
		<g>
			<path fill="#FFFFFF" d="M451.335,93.712h-19.633V49.086h19.633V93.712z M437.702,87.712h7.633V55.086h-7.633V87.712z"/>
		</g>
		<g>
			<path fill="#FFFFFF" d="M449.062,50.542h-15.088V30.91h15.088V50.542z M439.975,44.542h3.088V36.91h-3.088V44.542z"/>
		</g>
		<g>
			<polygon fill="#FFFFFF" points="448.959,36.91 434.078,36.91 441.519,12.108 			"/>
		</g>
		<g>
			<rect x="431.702" y="44.542" fill="#FFFFFF" width="19.633" height="10.544"/>
		</g>
		<g>
			<polygon fill="#FFFFFF" points="452.973,99.593 446.214,92.833 450.456,88.591 452.785,90.919 454.834,88.685 459.256,92.739 			
				"/>
		</g>
		<g>
			<polygon fill="#FFFFFF" points="430.632,99.593 423.872,92.833 428.114,88.591 430.442,90.919 432.49,88.685 436.914,92.739 			
				"/>
		</g>
		<g>
			<polygon fill="#FFFFFF" points="441.462,101.715 432.581,92.833 436.823,88.591 441.575,93.342 446.65,88.534 450.777,92.89 			
				"/>
		</g>
		<g>
			<rect x="437" y="36" fill="#FFFFFF" width="9" height="6"/>
		</g>
		<g>
			<rect x="437" y="40" fill="#FFFFFF" width="9" height="6"/>
		</g>
		<g>
			<path fill="#FFFFFF" d="M460,94h-15.075l0.435-3.383c0.028-0.22,0.71-5.583,2.164-10.908C448.999,74.31,451.586,67,457,67h3V94z
				 M451.823,88H454v-8.854C453.202,81.539,452.426,84.553,451.823,88z"/>
		</g>
		<g>
			<path fill="#FFFFFF" d="M438.121,94H423V67h3c5.41,0,8.01,7.307,9.494,12.705c1.465,5.324,2.156,10.621,2.185,10.842L438.121,94z
				 M429,88h2.209c-0.613-3.469-1.401-6.498-2.209-8.897V88z"/>
		</g>
		<g>
			
				<rect x="427.483" y="48.518" transform="matrix(0.8944 -0.4473 0.4473 0.8944 22.504 198.3492)" fill="#FFFFFF" width="7.621" height="6"/>
		</g>
		<g>
			<rect x="423" y="57" fill="#FFFFFF" width="6" height="13"/>
		</g>
		<g>
			
				<rect x="448.743" y="47.708" transform="matrix(0.4472 -0.8944 0.8944 0.4472 203.6383 432.5293)" fill="#FFFFFF" width="6" height="7.62"/>
		</g>
		<g>
			<rect x="454" y="57" fill="#FFFFFF" width="6" height="13"/>
		</g>
		<g>
			<path fill="#FFFFFF" d="M424.616,59.907c-3.61,0-6.546-2.937-6.546-6.546s2.937-6.547,6.546-6.547
				c3.61,0,6.547,2.937,6.547,6.547S428.227,59.907,424.616,59.907z M424.616,52.814c-0.301,0-0.546,0.245-0.546,0.547
				c0,0.301,0.245,0.546,0.546,0.546c0.302,0,0.547-0.245,0.547-0.546C425.163,53.059,424.918,52.814,424.616,52.814z"/>
		</g>
		<g>
			<path fill="#FFFFFF" d="M458.698,59.907c-3.61,0-6.547-2.937-6.547-6.546s2.937-6.547,6.547-6.547
				c3.609,0,6.546,2.937,6.546,6.547S462.308,59.907,458.698,59.907z M458.698,52.814c-0.302,0-0.547,0.245-0.547,0.547
				c0,0.301,0.245,0.546,0.547,0.546c0.301,0,0.546-0.245,0.546-0.546C459.244,53.059,458.999,52.814,458.698,52.814z"/>
		</g>
		<g>
			<g>
				<rect x="409" y="46" fill="#FFFFFF" width="6" height="4"/>
			</g>
			<g>
				<rect x="410" y="44" fill="#FFFFFF" width="4" height="6"/>
			</g>
			<g>
				<path fill="#FFFFFF" d="M412.084,51.219c-2.072,0-3.757-1.686-3.757-3.757s1.686-3.757,3.757-3.757s3.757,1.686,3.757,3.757
					S414.156,51.219,412.084,51.219z M412.084,45.219c-1.237,0-2.243,1.006-2.243,2.243s1.006,2.243,2.243,2.243
					s2.243-1.006,2.243-2.243S413.321,45.219,412.084,45.219z"/>
			</g>
		</g>
		<g>
			<g>
				
					<rect x="471.35" y="23.788" transform="matrix(0.7071 -0.7071 0.7071 0.7071 120.5065 343.0486)" fill="#FFFFFF" width="5.999" height="4.544"/>
			</g>
			<g>
				
					<rect x="472.078" y="23.06" transform="matrix(0.7071 -0.7071 0.7071 0.7071 120.5065 343.0486)" fill="#FFFFFF" width="4.544" height="5.999"/>
			</g>
			<g>
				<path fill="#FFFFFF" d="M474.351,29.816c-0.963,0-1.925-0.366-2.657-1.099c-1.465-1.465-1.465-3.849,0-5.313
					c1.465-1.464,3.849-1.463,5.312-0.002l0.002,0.002c1.465,1.465,1.465,3.849,0,5.313
					C476.274,29.45,475.312,29.816,474.351,29.816z M474.886,25.524l-2.119,2.123c0.874,0.873,2.295,0.872,3.167,0
					c0.877-0.876,0.877-2.299,0.002-3.173c-0.873-0.875-2.298-0.875-3.171,0c-0.875,0.874-0.875,2.297,0,3.171L474.886,25.524z"/>
			</g>
		</g>
		<g>
			<g>
				
					<rect x="467.585" y="40.038" transform="matrix(0.707 -0.7072 0.7072 0.707 107.9596 345.2016)" fill="#FFFFFF" width="6" height="4.544"/>
			</g>
			<g>
				
					<rect x="468.313" y="39.31" transform="matrix(0.7072 -0.707 0.707 0.7072 107.8787 345.1047)" fill="#FFFFFF" width="4.544" height="6"/>
			</g>
			<g>
				<path fill="#FFFFFF" d="M470.585,46.065c-0.962,0-1.923-0.366-2.654-1.096c-1.467-1.467-1.467-3.851-0.002-5.315
					c1.466-1.467,3.85-1.465,5.313,0c1.465,1.465,1.465,3.849,0,5.313C472.51,45.699,471.547,46.065,470.585,46.065z
					 M470.585,40.069c-0.573,0-1.146,0.218-1.583,0.654c-0.877,0.876-0.877,2.299-0.002,3.173c0.874,0.876,2.299,0.875,3.171,0
					c0.875-0.874,0.875-2.297,0-3.171C471.733,40.287,471.159,40.069,470.585,40.069z"/>
			</g>
		</g>
		<g>
			<path fill="#FFFFFF" d="M410.277,36.91c-5.1,0-9.249-4.149-9.249-9.249s4.149-9.248,9.249-9.248s9.248,4.148,9.248,9.248
				S415.377,36.91,410.277,36.91z M410.277,24.413c-1.791,0-3.249,1.457-3.249,3.248s1.458,3.249,3.249,3.249
				s3.248-1.458,3.248-3.249S412.068,24.413,410.277,24.413z"/>
		</g>
	</g>
	<g>
		<g>
			<g>
				<path fill="#FFFFFF" d="M583.184,80.882h-61.041V46.776h61.041V80.882z M528.143,74.882h49.041V52.776h-49.041V74.882z"/>
			</g>
			<g>
				<path fill="#FFFFFF" d="M545.709,49.19h-6c0-1.897-1.543-3.441-3.44-3.441s-3.441,1.544-3.441,3.441h-6
					c0-5.206,4.235-9.441,9.441-9.441C541.474,39.749,545.709,43.984,545.709,49.19z"/>
			</g>
			<g>
				<rect x="533" y="35" fill="#FFFFFF" width="6" height="7"/>
			</g>
			<g>
				<path fill="#FFFFFF" d="M546.1,38.723h-20.053V18.67H546.1V38.723z M532.047,32.723h8.053V24.67h-8.053V32.723z"/>
			</g>
			<g>
				<circle fill="#FFFFFF" cx="536.073" cy="28.696" r="1.171"/>
			</g>
			<g>
				<path fill="#FFFFFF" d="M579.671,52.776h-22.396V39.749h22.396V52.776z M563.275,46.776h10.396v-1.027h-10.396V46.776z"/>
			</g>
			<g>
				<path fill="#FFFFFF" d="M533.146,96.105c-5.852,0-10.612-4.76-10.612-10.611s4.761-10.612,10.612-10.612
					s10.612,4.761,10.612,10.612S538.997,96.105,533.146,96.105z M533.146,80.882c-2.543,0-4.612,2.069-4.612,4.612
					s2.069,4.611,4.612,4.611s4.612-2.068,4.612-4.611S535.688,80.882,533.146,80.882z"/>
			</g>
			<g>
				<path fill="#FFFFFF" d="M571.4,96.105c-5.852,0-10.611-4.76-10.611-10.611s4.76-10.612,10.611-10.612
					s10.612,4.761,10.612,10.612S577.252,96.105,571.4,96.105z M571.4,80.882c-2.543,0-4.611,2.069-4.611,4.612
					s2.068,4.611,4.611,4.611s4.612-2.068,4.612-4.611S573.943,80.882,571.4,80.882z"/>
			</g>
			<g>
				<path fill="#FFFFFF" d="M552.273,96.105c-5.852,0-10.612-4.76-10.612-10.611s4.761-10.612,10.612-10.612
					s10.611,4.761,10.611,10.612S558.125,96.105,552.273,96.105z M552.273,80.882c-2.543,0-4.612,2.069-4.612,4.612
					s2.069,4.611,4.612,4.611s4.611-2.068,4.611-4.611S554.816,80.882,552.273,80.882z"/>
			</g>
			<g>
				
					<rect x="532.368" y="69.819" transform="matrix(0.8403 -0.5421 0.5421 0.8403 47.025 305.2812)" fill="#FFFFFF" width="18.677" height="5.999"/>
			</g>
			<g>
				
					<rect x="557.927" y="62.158" transform="matrix(0.2426 -0.9701 0.9701 0.2426 358.4843 595.974)" fill="#FFFFFF" width="6" height="12.484"/>
			</g>
			<g>
				
					<rect x="552.025" y="71.822" transform="matrix(0.9326 -0.361 0.361 0.9326 10.7842 207.3777)" fill="#FFFFFF" width="16.953" height="6"/>
			</g>
			<g>
				<path fill="#FFFFFF" d="M569.728,76.391c-1.828,0-3.618-0.902-4.674-2.553c-1.645-2.572-0.89-6.003,1.683-7.647
					c2.573-1.644,6-0.89,7.647,1.681v0.001c1.645,2.572,0.89,6.004-1.683,7.648C571.779,76.109,570.748,76.391,569.728,76.391z
					 M570.109,70.606l-0.78,0.499c0.139,0.215,0.425,0.279,0.64,0.14c0.101-0.064,0.176-0.173,0.202-0.29
					C570.196,70.838,570.174,70.708,570.109,70.606z M569.718,70.393c-0.085,0-0.171,0.023-0.248,0.072
					c-0.102,0.065-0.178,0.174-0.203,0.29c-0.025,0.118-0.003,0.248,0.062,0.35l0.779-0.499l0,0
					C570.021,70.468,569.871,70.393,569.718,70.393z"/>
			</g>
			<g>
				<path fill="#FFFFFF" d="M552.092,71.706c-1.827,0-3.618-0.902-4.674-2.553c-1.645-2.572-0.89-6.003,1.683-7.647
					c1.246-0.797,2.725-1.062,4.173-0.742c1.444,0.317,2.678,1.179,3.475,2.425c1.645,2.572,0.89,6.003-1.683,7.647
					C554.144,71.425,553.112,71.706,552.092,71.706z M552.086,65.709c-0.089,0-0.179,0.024-0.253,0.072
					c-0.101,0.064-0.176,0.173-0.202,0.29c-0.025,0.117-0.003,0.248,0.062,0.35c0.064,0.101,0.173,0.177,0.289,0.202
					c0.119,0.025,0.248,0.002,0.352-0.062c0.1-0.064,0.175-0.173,0.201-0.29c0.025-0.117,0.003-0.248-0.062-0.35
					c-0.064-0.101-0.173-0.176-0.29-0.202C552.151,65.712,552.118,65.709,552.086,65.709z"/>
			</g>
			<g>
				<path fill="#FFFFFF" d="M531.409,68.597c-0.399,0-0.802-0.043-1.202-0.132c-1.444-0.317-2.679-1.18-3.475-2.427
					c-0.796-1.243-1.06-2.725-0.742-4.17c0.317-1.444,1.179-2.679,2.425-3.476c1.246-0.797,2.729-1.061,4.173-0.743
					c1.444,0.318,2.678,1.18,3.475,2.425c1.645,2.572,0.891,6.003-1.682,7.647C533.479,68.299,532.454,68.597,531.409,68.597z
					 M531.401,62.596c-0.089,0-0.179,0.024-0.253,0.072c-0.101,0.064-0.177,0.173-0.203,0.291c-0.025,0.117-0.002,0.247,0.062,0.349
					c0.064,0.101,0.173,0.176,0.29,0.202c0.118,0.025,0.248,0.003,0.35-0.062c0.102-0.064,0.177-0.173,0.203-0.291
					c0.025-0.117,0.002-0.248-0.062-0.35c-0.063-0.099-0.173-0.175-0.29-0.201C531.466,62.599,531.434,62.596,531.401,62.596z"/>
			</g>
			<g>
				<path fill="#FFFFFF" d="M533.145,91.027c-1.418,0-2.835-0.539-3.914-1.618c-1.046-1.046-1.622-2.437-1.622-3.915
					c0-1.479,0.576-2.871,1.623-3.916c1.043-1.045,2.435-1.621,3.914-1.621c1.479,0,2.869,0.576,3.915,1.622
					c2.158,2.157,2.158,5.67,0.001,7.829C535.981,90.488,534.562,91.027,533.145,91.027z M533.146,85.031
					c-0.118,0-0.236,0.045-0.326,0.135c-0.182,0.182-0.182,0.475-0.001,0.655c0.168,0.17,0.485,0.171,0.655-0.001
					c0.084-0.083,0.135-0.206,0.135-0.326s-0.051-0.242-0.136-0.327C533.383,85.076,533.264,85.031,533.146,85.031z"/>
			</g>
			<g>
				<path fill="#FFFFFF" d="M505.335,69.932c-1.417,0-2.835-0.539-3.914-1.618c-2.159-2.161-2.159-5.674-0.001-7.831
					c1.046-1.046,2.437-1.623,3.915-1.623c1.479,0,2.87,0.576,3.915,1.623c1.046,1.045,1.622,2.436,1.622,3.915
					c0,1.479-0.576,2.869-1.622,3.915C508.171,69.392,506.753,69.932,505.335,69.932z M505.008,64.726
					c0.171,0.168,0.487,0.168,0.654-0.001c0.181-0.181,0.181-0.474,0.001-0.653c-0.183-0.183-0.477-0.182-0.655-0.001
					c-0.085,0.084-0.136,0.207-0.136,0.327C504.872,64.517,504.923,64.64,505.008,64.726l-0.001-0.002
					C505.007,64.726,505.005,64.727,505.008,64.726L505.008,64.726z"/>
			</g>
			<g>
				<path fill="#FFFFFF" d="M552.082,91.028c-1.418,0-2.835-0.54-3.914-1.619c-1.046-1.046-1.622-2.437-1.622-3.915
					c0-1.479,0.576-2.871,1.623-3.916c1.043-1.045,2.435-1.621,3.914-1.621c1.479,0,2.869,0.576,3.915,1.622
					c1.046,1.045,1.622,2.436,1.622,3.915c0,1.479-0.576,2.869-1.622,3.915C554.918,90.488,553.5,91.028,552.082,91.028z
					 M551.756,85.821c0.17,0.17,0.485,0.171,0.655-0.001c0.084-0.083,0.135-0.206,0.135-0.326s-0.051-0.242-0.136-0.327
					c-0.18-0.182-0.474-0.181-0.653-0.001c-0.086,0.086-0.137,0.208-0.137,0.328S551.671,85.737,551.756,85.821L551.756,85.821z"/>
			</g>
			<g>
				<path fill="#FFFFFF" d="M571.4,91.028c-1.417,0-2.835-0.539-3.914-1.618c-2.159-2.161-2.159-5.674-0.001-7.831
					c1.046-1.046,2.437-1.622,3.915-1.622c1.479,0,2.87,0.576,3.915,1.622c1.046,1.045,1.622,2.436,1.622,3.915
					c0,1.479-0.576,2.869-1.622,3.915C574.236,90.488,572.818,91.028,571.4,91.028z M571.073,85.821c0.17,0.17,0.484,0.17,0.654,0
					c0.181-0.181,0.181-0.474,0.001-0.653c-0.183-0.183-0.477-0.182-0.655-0.001c-0.085,0.085-0.136,0.207-0.136,0.327
					S570.988,85.736,571.073,85.821z"/>
			</g>
			<g>
				<polygon fill="#FFFFFF" points="514.359,80.161 504.472,68.133 509.106,64.322 515.199,71.733 527.29,61.871 531.083,66.52 				
					"/>
			</g>
		</g>
		<g>
			<path fill="#FFFFFF" d="M507.409,38.333l-8.386-10.482l8.386-10.482l8.387,10.482L507.409,38.333z M506.707,27.851l0.702,0.878
				l0.703-0.878l-0.703-0.878L506.707,27.851z"/>
		</g>
	</g>
	<g>
		<g>
			<path fill="#FFFFFF" d="M198.943,100.907h-25.881V77.866h25.881V100.907z M179.062,94.907h13.881V83.866h-13.881V94.907z"/>
		</g>
		<g>
			<polygon fill="#FFFFFF" points="195.001,107 177.003,107 174.163,101 166.223,101 173.215,79.967 178.909,81.859 174.54,95 
				177.961,95 180.801,101 191.204,101 194.044,95 197.462,95 193.096,81.883 198.79,79.988 205.784,101 197.842,101 			"/>
		</g>
		<g>
			<path fill="#FFFFFF" d="M186.005,94.849c-0.224,0-0.451-0.014-0.679-0.043c-2.989-0.374-5.116-3.109-4.743-6.097
				c0.181-1.447,0.915-2.737,2.066-3.634c1.151-0.896,2.586-1.291,4.031-1.107h0c2.987,0.374,5.114,3.108,4.741,6.096
				C191.077,92.822,188.718,94.849,186.005,94.849z M186.069,88.853l-0.134,1.068c0.138,0.021,0.288-0.022,0.398-0.109
				c0.11-0.086,0.187-0.22,0.204-0.358C186.574,89.158,186.364,88.89,186.069,88.853C186.069,88.853,186.069,88.853,186.069,88.853z
				 M186.002,88.849c-0.269,0-0.5,0.199-0.535,0.472c-0.037,0.294,0.173,0.563,0.467,0.601l0.134-1.068
				C186.046,88.85,186.024,88.849,186.002,88.849z"/>
		</g>
		<g>
			<path fill="#FFFFFF" d="M181.429,82.388c-2.685-4.562-16.319-29.694-16.319-39.011c0-11.05,8.99-20.041,20.041-20.041
				c11.05,0,20.041,8.99,20.041,20.041c0,9.317-13.635,34.449-16.319,39.011l-3.722-2.189L181.429,82.388z M185.15,29.336
				c-7.742,0-14.041,6.298-14.041,14.041c0,6.12,9.042,24.419,14.041,33.423c4.999-9.004,14.041-27.304,14.041-33.423
				C199.191,35.634,192.893,29.336,185.15,29.336z"/>
		</g>
		<g>
			<rect x="168" y="41" fill="#FFFFFF" width="34" height="6"/>
		</g>
		<g>
			<rect x="182" y="26" fill="#FFFFFF" width="6" height="16"/>
		</g>
		<g>
			
				<rect x="164.816" y="31.288" transform="matrix(0.7072 -0.707 0.707 0.7072 27.3104 134.5201)" fill="#FFFFFF" width="22.492" height="6"/>
		</g>
		<g>
			
				<rect x="191.238" y="23.042" transform="matrix(0.7071 -0.7071 0.7071 0.7071 32.6475 147.3926)" fill="#FFFFFF" width="6" height="22.492"/>
		</g>
		<g>
			<path fill="#FFFFFF" d="M217.527,62.281c-5.1,0-9.248-4.149-9.248-9.249s4.148-9.248,9.248-9.248s9.249,4.148,9.249,9.248
				S222.627,62.281,217.527,62.281z M217.527,49.785c-1.791,0-3.248,1.457-3.248,3.248s1.457,3.249,3.248,3.249
				s3.249-1.458,3.249-3.249S219.318,49.785,217.527,49.785z"/>
		</g>
		<g>
			<circle fill="#FFFFFF" cx="205.599" cy="68.37" r="1.136"/>
		</g>
		<g>
			<g>
				
					<rect x="215.066" y="84.304" transform="matrix(0.7071 -0.7071 0.7071 0.7071 1.9238 179.2519)" fill="#FFFFFF" width="4.544" height="5.999"/>
			</g>
			<g>
				
					<rect x="214.338" y="85.032" transform="matrix(0.7071 -0.7072 0.7072 0.7071 1.9308 179.2683)" fill="#FFFFFF" width="5.999" height="4.544"/>
			</g>
			<g>
				<path fill="#FFFFFF" d="M217.339,91.06c-0.962,0-1.925-0.366-2.657-1.1c-0.708-0.705-1.1-1.648-1.101-2.652
					c-0.001-1.005,0.39-1.95,1.101-2.66c1.465-1.465,3.849-1.465,5.313,0c0.71,0.711,1.101,1.654,1.101,2.656
					c0,1.005-0.392,1.949-1.102,2.658C219.262,90.693,218.301,91.06,217.339,91.06z M217.34,85.062
					c-0.575,0-1.149,0.219-1.587,0.656c-0.417,0.416-0.657,0.995-0.657,1.586c0,0.59,0.239,1.167,0.655,1.584
					c0.877,0.877,2.3,0.877,3.173,0.002c0.418-0.418,0.658-0.996,0.657-1.588c-0.001-0.591-0.241-1.17-0.661-1.588
					C218.486,85.279,217.913,85.062,217.34,85.062z"/>
			</g>
		</g>
		<g>
			<g>
				
					<rect x="150.311" y="37.347" transform="matrix(0.707 -0.7072 0.7072 0.707 16.1702 119.7259)" fill="#FFFFFF" width="4.544" height="6"/>
			</g>
			<g>
				
					<rect x="149.583" y="38.075" transform="matrix(0.7072 -0.7071 0.7071 0.7072 16.1551 119.6998)" fill="#FFFFFF" width="6" height="4.544"/>
			</g>
			<g>
				<path fill="#FFFFFF" d="M152.582,44.102c-0.961,0-1.922-0.365-2.654-1.096c-1.467-1.467-1.467-3.851-0.001-5.315
					c1.465-1.466,3.849-1.466,5.313,0c1.464,1.466,1.464,3.848,0.002,5.312C154.508,43.735,153.545,44.102,152.582,44.102z
					 M152.583,38.106c-0.574,0-1.147,0.218-1.583,0.654c-0.875,0.877-0.875,2.298-0.003,3.171c0.877,0.875,2.3,0.876,3.173,0.001
					c0.875-0.874,0.875-2.297,0-3.171C153.731,38.324,153.157,38.106,152.583,38.106z"/>
			</g>
		</g>
	</g>
</g>
</svg>
