<?xml version="1.0" encoding="utf-8"?>
<!-- Generator: Adobe Illustrator 20.1.0, SVG Export Plug-In . SVG Version: 6.00 Build 0)  -->
<svg version="1.1" id="Capa_1" xmlns="http://www.w3.org/2000/svg" xmlns:xlink="http://www.w3.org/1999/xlink" x="0px" y="0px"
	 viewBox="0 0 1056 263" style="enable-background:new 0 0 1056 263;" xml:space="preserve">
<style type="text/css">
	.st0{fill:#BC6D9E;}
	.st1{fill:#17DDA4;}
	.st2{fill:#F7F5F5;}
</style>
<g>
	<g>
		<path class="st0" d="M126.1,54.2h24.8L136,147.6h-24.8L126.1,54.2z"/>
		<path class="st0" d="M157,54.2h25l19.2,48.4l7.5-48.4h24.8l-14.8,93.5h-24.8l-19.4-47.1l-7.4,47.1h-24.9L157,54.2z"/>
		<path class="st0" d="M238.3,54.2h25l19.2,48.4l7.5-48.4h24.8L300,147.6h-24.8l-19.4-47.1l-7.4,47.1h-24.9L238.3,54.2z"/>
		<path class="st0" d="M357.3,53.5c22.1,0,38.1,7.4,31.2,51.2c-6.5,41.2-23.1,43.4-46.1,43.4s-38.1-7.3-31.3-49.8
			C318,54.5,335.9,53.5,357.3,53.5z M345.8,125.9c11,0,14.7-4.6,17.9-24.4c3.4-21.7,1.8-25.8-9.8-25.8c-11.2,0-14.4,2.9-18,25.8
			C332.8,121.1,333.3,125.9,345.8,125.9z"/>
		<path class="st0" d="M417.2,54.2l5,63.1l25.9-63.1h27.3l-42.8,93.5h-29.9l-11.6-93.5L417.2,54.2L417.2,54.2z"/>
		<path class="st0" d="M487.5,54.2h29.2l13.5,93.5h-25.4l-2.7-16.3h-24l-7.3,16.3h-27.5L487.5,54.2z M500.5,110.2l-2.9-25l-10.5,25
			H500.5z"/>
		<path class="st0" d="M548.9,54.2h39.6c12.9,0,22.2,7.9,19.5,29.9c-2.8,23.8-15.3,25.5-19.5,26.2l13.3,37.4h-16.6l-11.5-36.4
			l-18.8-1.4l-6,37.8h-14.8L548.9,54.2z M580.1,98.1c6.8,0,11.9-3.8,13-15.2c1.3-12.9-1.5-15.2-7.8-15.2h-23.6l-4.7,30.4L580.1,98.1
			L580.1,98.1z"/>
		<path class="st0" d="M621.4,54.2h14.9l-8.6,54.1c-3.2,19.9,0.8,26.1,15.1,26.1c14.7,0,20.8-7.3,23.8-26.1l8.6-54.1h14.9l-8.3,55.4
			c-4.2,26.3-15.2,38.7-40.7,38.7c-19.7,0-33.3-8.2-28.1-41.4L621.4,54.2z"/>
		<path class="st0" d="M700.1,54.2h14.7l29.9,66.3l10.5-66.3h14.8l-14.8,93.5h-14.6l-30-65.8l-10.3,65.8h-14.9L700.1,54.2z"/>
	</g>
	<g>
		<g>
			<path class="st0" d="M930.5,145.9l-0.5-6c10.8-0.9,20.6-5.9,27.6-14.2s10.4-18.8,9.5-29.6c-1.8-22.3-21.5-38.9-43.8-37.1l-0.5-6
				c25.6-2.1,48.1,17,50.2,42.6c1,12.4-2.9,24.5-10.9,33.9C954.2,139.1,942.9,144.8,930.5,145.9z"/>
		</g>
		<g>
			
				<ellipse transform="matrix(0.6469 -0.7626 0.7626 0.6469 216.2173 753.4279)" class="st0" cx="921.7" cy="143.2" rx="2.3" ry="2.3"/>
		</g>
		<g>
			
				<ellipse transform="matrix(0.6469 -0.7626 0.7626 0.6469 256.462 670.5755)" class="st0" cx="852.3" cy="58.4" rx="2.3" ry="2.3"/>
		</g>
		<g>
			
				<ellipse transform="matrix(0.6469 -0.7626 0.7626 0.6469 209.1509 634.7613)" class="st0" cx="790" cy="91.5" rx="2.5" ry="2.5"/>
		</g>
		<g>
			
				<rect x="855.3" y="87.9" transform="matrix(1.330015e-02 -0.9999 0.9999 1.330015e-02 704.023 999.1591)" class="st0" width="6" height="110"/>
		</g>
		<g>
			
				<rect x="824.5" y="85.9" transform="matrix(1.330015e-02 -0.9999 0.9999 1.330015e-02 690.4078 951.7982)" class="st0" width="6" height="80.4"/>
		</g>
		<g>
			
				<rect x="881.7" y="119.8" transform="matrix(1.330015e-02 -0.9999 0.9999 1.330015e-02 746.1512 1009.8115)" class="st0" width="6" height="14.1"/>
		</g>
		<g>
			
				<rect x="861.7" y="92.5" transform="matrix(1.330015e-02 -0.9999 0.9999 1.330015e-02 743.1041 973.2467)" class="st0" width="6" height="35.3"/>
		</g>
		<g>
			
				<rect x="841" y="54.6" transform="matrix(1.330015e-02 -0.9999 0.9999 1.330015e-02 739.66 935.8877)" class="st0" width="6" height="77.1"/>
		</g>
		<g>
			
				<rect x="815.5" y="54.8" transform="matrix(1.649940e-02 -0.9999 0.9999 1.649940e-02 730.0162 892.2238)" class="st0" width="6" height="40.5"/>
		</g>
		<g>
			
				<rect x="866.9" y="56.4" transform="matrix(1.330015e-02 -0.9999 0.9999 1.330015e-02 782.4814 944.6006)" class="st0" width="6" height="38.8"/>
		</g>
		<g>
			
				<rect x="861.8" y="54.5" transform="matrix(0.9995 -3.189972e-02 3.189972e-02 0.9995 -1.383 28.3835)" class="st0" width="54.1" height="6"/>
		</g>
		<g>
			
				<rect x="833.3" y="51.6" transform="matrix(1.330015e-02 -0.9999 0.9999 1.330015e-02 766.5324 894.158)" class="st0" width="6" height="14.1"/>
		</g>
	</g>
	<g>
		<path class="st0" d="M52.7,173.6l7,36.8l19.3-36.8H84l-23.1,43.9h-4.4L48,173.6H52.7z"/>
		<path class="st0" d="M89.2,173.6h4.4l-7,43.9h-4.4L89.2,173.6z"/>
		<path class="st0" d="M99.7,173.6h4.3l16.7,35.6l5.6-35.6h4.4l-7,43.9h-4.2l-16.8-35.6l-5.6,35.6h-4.5L99.7,173.6z M113.3,163.7
			c3,0.2,4.3,2,6,2c1.4,0.1,5.6-1.8,6-2l0.9,2.5c-2.6,1.6-4.9,3.8-7.6,3.7c-3.4-0.1-4-2.1-6.1-2c-2.6,0.1-4.1,1.3-6,2.1l-0.9-2.5
			C108.3,165.6,110.8,163.7,113.3,163.7z"/>
		<path class="st0" d="M150.9,173.6h4.4l8.5,43.9h-4.5l-2.3-12.2h-17.8l-6.5,12.2h-4.9L150.9,173.6z M156.1,200.8l-3.8-21l-10.9,21
			H156.1z"/>
		<path class="st0" d="M186.7,173.7c0-0.1,12.8-0.1,16.4-0.1c13.5,0,13.4,14.8,12.1,22.1c-2.2,12.8-7.7,21.8-19.1,21.8h-16.4
			L186.7,173.7z M196.8,212.9c7.8,0,12.5-8.3,13.9-17.2c1.9-12.1-0.8-17.6-8.4-17.6h-11.9l-5.5,34.9L196.8,212.9L196.8,212.9z"/>
		<path class="st0" d="M221.8,181.4c1-5.9,4.3-8,8.8-7.8l18.8,1L249,178h-19c-2.9,0-3.4,1.7-3.7,3.4l-1.9,12L244,194l-0.6,3.5
			l-19.8,0.6l-1.9,12c-0.4,3.2,1.6,3.1,3.3,3.1h18.4l-0.6,3.4l-18.6,1c-4,0.2-7.9-1.9-7-7.6L221.8,181.4z"/>
		<path class="st0" d="M254.8,173.6h4.4l-5.8,36.4c-0.5,3.2,1.6,3.1,3.3,3.1h18.4l-0.7,4.4h-18.5c-4,0-7.9-1.9-7-7.6L254.8,173.6z"
			/>
		<path class="st0" d="M299.4,173.6h5.8l6.1,36.5l17.3-36.5h6.1l-3.6,43.9h-4.4l3.1-35.9l-17.1,35.9h-4.6l-5.9-35.9l-8.1,35.9h-4.4
			L299.4,173.6z"/>
		<path class="st0" d="M356.8,173.6h4.4l8.5,43.9h-4.5l-2.3-12.2h-17.8l-6.5,12.2h-4.9L356.8,173.6z M362.1,200.8l-3.8-21l-10.9,21
			H362.1z"/>
		<path class="st0" d="M379.7,173.6h18.7c5.1,0,9.1,3.2,8,13.2c-1.1,11.5-7.8,12.4-9.5,12.6l6.4,18.1h-4.9l-5.9-17.6l-12.4-0.8
			l-2.9,18.5h-4.4L379.7,173.6z M394.7,195.2c3.3,0,6.7-1.9,7.3-8.4c0.7-7.9-1.1-8.7-4.3-8.7h-14.2l-2.7,17.1L394.7,195.2
			L394.7,195.2z"/>
		<path class="st0" d="M418.5,210.1c6.7-4.1,25-16.6,26.2-23.5c0.7-4.1-1.2-5.8-6.4-5.8h-15.5l1-6.2c5.6-1,10.4-1.6,18.2-1.6
			c8.8,0,12.1,6.8,11.1,14.3c-1.2,9.6-15.1,19.1-19.9,22.4h16.1l-1.3,7.7h-30.7L418.5,210.1z"/>
		<path class="st0" d="M456.1,184.6c1.2-7.4,5-11,12.1-11h9.8c8,0,10.4,5.3,9.6,10.7l-3.6,22.6c-1.1,7.1-4.8,10.7-11.7,10.7h-9.8
			c-6.7,0-11.1-3.5-10-10.7L456.1,184.6z M465.1,209.8h5.8c2.8,0,4.4-1,5-4.3l3.2-19.9c0.5-3-0.5-4.3-3.4-4.3h-6.3
			c-3.8,0-4.7,2.6-5,4.3l-3.1,19.9C460.6,209.8,463,209.8,465.1,209.8z"/>
		<path class="st0" d="M491.1,178.6c2.7,0,7.7-3.2,9.3-5h8.3l-6.9,43.9h-8.4l5.6-35.3c-2,1.4-6.2,1.8-8.8,1.8L491.1,178.6z"/>
		<path class="st0" d="M523.2,173.4c6.1-0.5,13.6,0.2,18.9,1.2l-1,6.4h-15c-5.3,0-7,6.5-7.7,11.1c3.7-0.8,7.6-1.2,12.3-1.2
			c8.5-0.1,9.5,5.8,8.7,10.9l-1,6.8c-1.2,7.3-5.8,8.9-12.2,8.9h-8.5c-6.6,0-11.1-4.9-8.1-23.8C512.1,177.9,518,173.8,523.2,173.4z
			 M521.2,209.9h4.8c2,0,3.9-0.6,4.4-3.8l0.7-4c0.5-3.1-0.1-3.8-3-3.8h-10.7C516.3,204.9,516.4,209.9,521.2,209.9z"/>
	</g>
	<g>
		<path class="st0" d="M570,217.5v-36.7h-8.6v-11.4h22.9v48.1H570z"/>
		<path class="st0" d="M633.6,193.4c0,15.8-7.8,24.5-21.7,24.5c-14.1,0-21.8-8.7-21.8-24.5c0-15.7,7.7-24.4,21.8-24.4
			C625.8,169,633.6,177.7,633.6,193.4z M604.8,193.4c0,10.3,2,14.1,7.1,14.1c5,0,7-3.8,7-14.1s-2-14.1-7-14.1
			C606.8,179.3,604.8,183.1,604.8,193.4z"/>
		<path class="st0" d="M648.7,211.5c0,3.8-2.7,6.5-6.5,6.5c-3.8,0-6.5-2.7-6.5-6.5c0-3.8,2.7-6.4,6.5-6.4
			C646,205.2,648.7,207.8,648.7,211.5z"/>
		<path class="st0" d="M673.3,169.4c15.6,0,25.9,9.5,25.9,24c0,14.5-10.5,24.1-26.4,24.1h-20.6v-48.1L673.3,169.4L673.3,169.4z
			 M666.5,206.3h7.2c6.5,0,10.9-5.1,10.9-12.8c0-7.8-4.7-12.9-11.6-12.9h-6.5L666.5,206.3L666.5,206.3z"/>
		<path class="st0" d="M701.8,217.5v-48.1h14.3v48.1H701.8z"/>
		<path class="st0" d="M764.5,177.5l-8.2,9.8c-3-3.8-7.5-6.4-11.5-6.4c-6.5,0-11.5,5.3-11.5,12.4s4.9,12.4,11.5,12.4
			c3.7,0,8.2-2.2,11.5-5.6l8.2,8.8c-5.2,5.6-13.1,9.3-20.4,9.3c-14.6,0-25.4-10.6-25.4-24.8c0-14,11-24.4,25.9-24.4
			C751.9,169,759.7,172.3,764.5,177.5z"/>
		<path class="st0" d="M769.4,217.5v-48.1h5.5v48.1L769.4,217.5L769.4,217.5z"/>
		<path class="st0" d="M792.2,174.7v15.8h24.2v5.3h-24.2v16.5h28v5.2h-33.5v-48.1h32.6v5.3H792.2z"/>
		<path class="st0" d="M872.2,217.5l-0.1-39.6l-17.5,34.5h-3.3l-17.4-34.5v39.6h-5.2v-48.1h6.8l17.6,34.6l17.5-34.6h6.7v48.1
			L872.2,217.5L872.2,217.5z"/>
		<path class="st0" d="M909.4,169.4c9.7,0,15.5,4.5,15.5,12c0,5.6-3.2,9.7-8.9,10.9c6.9,1,11,5.6,11,12.2c0,8.2-6.5,13-17.3,13
			h-20.6v-48.1H909.4z M894.6,190.2h14.5c6.5,0,10.2-2.8,10.2-7.8c0-4.9-3.8-7.6-10.2-7.6h-14.5V190.2z M894.6,212.3h14.5
			c7.8,0,12.4-3.1,12.4-8.6c0-5.2-4.5-8.3-12.4-8.3h-14.5V212.3z"/>
		<path class="st0" d="M957,202.2c-1,0.1-2.1,0.1-3.2,0.1H941v15.2h-5.5v-48.1h18.3c12,0,19,5.9,19,16.1c0,8-3.8,13.3-10.8,15.6
			l11.3,16.3H967L957,202.2z M953.8,197c8.7,0,13.7-3.8,13.7-11.3c0-7.3-4.9-11-13.7-11H941V197H953.8z"/>
		<path class="st0" d="M988,174.7v15.8h24.2v5.3H988v16.5h28v5.2h-33.5v-48.1h32.6v5.3H988z"/>
	</g>
</g>
<g>
	<g>
		<path class="st1" d="M124.1,52.2h24.8L134,145.6h-24.8L124.1,52.2z"/>
		<path class="st1" d="M155,52.2h25l19.2,48.4l7.5-48.4h24.8l-14.8,93.5h-24.8l-19.4-47.1l-7.4,47.1h-24.9L155,52.2z"/>
		<path class="st1" d="M236.3,52.2h25l19.2,48.4l7.5-48.4h24.8L298,145.6h-24.8l-19.4-47.1l-7.4,47.1h-24.9L236.3,52.2z"/>
		<path class="st1" d="M355.3,51.5c22.1,0,38.1,7.4,31.2,51.2c-6.5,41.2-23.1,43.4-46.1,43.4s-38.1-7.3-31.3-49.8
			C316,52.5,333.9,51.5,355.3,51.5z M343.8,123.9c11,0,14.7-4.6,17.9-24.4c3.4-21.7,1.8-25.8-9.8-25.8c-11.2,0-14.4,2.9-18,25.8
			C330.8,119.1,331.3,123.9,343.8,123.9z"/>
		<path class="st1" d="M415.2,52.2l5,63.1l25.9-63.1h27.3l-42.8,93.5h-29.9l-11.6-93.5L415.2,52.2L415.2,52.2z"/>
		<path class="st1" d="M485.5,52.2h29.2l13.5,93.5h-25.4l-2.7-16.3h-24l-7.3,16.3h-27.5L485.5,52.2z M498.5,108.2l-2.9-25l-10.5,25
			H498.5z"/>
		<path class="st1" d="M546.9,52.2h39.6c12.9,0,22.2,7.9,19.5,29.9c-2.8,23.8-15.3,25.5-19.5,26.2l13.3,37.4h-16.6l-11.5-36.4
			l-18.8-1.4l-6,37.8h-14.8L546.9,52.2z M578.1,96.1c6.8,0,11.9-3.8,13-15.2c1.3-12.9-1.5-15.2-7.8-15.2h-23.6l-4.7,30.4L578.1,96.1
			L578.1,96.1z"/>
		<path class="st1" d="M619.4,52.2h14.9l-8.6,54.1c-3.2,19.9,0.8,26.1,15.1,26.1c14.7,0,20.8-7.3,23.8-26.1l8.6-54.1h14.9l-8.3,55.4
			c-4.2,26.3-15.2,38.7-40.7,38.7c-19.7,0-33.3-8.2-28.1-41.4L619.4,52.2z"/>
		<path class="st1" d="M698.1,52.2h14.7l29.9,66.3l10.5-66.3h14.8l-14.8,93.5h-14.6l-30-65.8l-10.3,65.8h-14.9L698.1,52.2z"/>
	</g>
	<g>
		<g>
			<path class="st1" d="M928.5,143.9l-0.5-6c10.8-0.9,20.6-5.9,27.6-14.2s10.4-18.8,9.5-29.6c-1.8-22.3-21.5-38.9-43.8-37.1l-0.5-6
				c25.6-2.1,48.1,17,50.2,42.6c1,12.4-2.9,24.5-10.9,33.9C952.2,137.1,940.9,142.8,928.5,143.9z"/>
		</g>
		<g>
			
				<ellipse transform="matrix(0.6469 -0.7626 0.7626 0.6469 217.0363 751.1965)" class="st1" cx="919.7" cy="141.2" rx="2.3" ry="2.3"/>
		</g>
		<g>
			
				<ellipse transform="matrix(0.6469 -0.7626 0.7626 0.6469 257.281 668.3441)" class="st1" cx="850.3" cy="56.4" rx="2.3" ry="2.3"/>
		</g>
		<g>
			
				<ellipse transform="matrix(0.6469 -0.7626 0.7626 0.6469 209.9699 632.5299)" class="st1" cx="788" cy="89.5" rx="2.5" ry="2.5"/>
		</g>
		<g>
			
				<rect x="853.3" y="85.9" transform="matrix(1.330015e-02 -0.9999 0.9999 1.330015e-02 704.0494 995.1859)" class="st1" width="6" height="110"/>
		</g>
		<g>
			
				<rect x="822.5" y="83.9" transform="matrix(1.330015e-02 -0.9999 0.9999 1.330015e-02 690.4342 947.8249)" class="st1" width="6" height="80.4"/>
		</g>
		<g>
			
				<rect x="879.7" y="117.8" transform="matrix(1.330015e-02 -0.9999 0.9999 1.330015e-02 746.1776 1005.8383)" class="st1" width="6" height="14.1"/>
		</g>
		<g>
			
				<rect x="859.7" y="90.5" transform="matrix(1.330015e-02 -0.9999 0.9999 1.330015e-02 743.1305 969.2734)" class="st1" width="6" height="35.3"/>
		</g>
		<g>
			
				<rect x="839" y="52.6" transform="matrix(1.330015e-02 -0.9999 0.9999 1.330015e-02 739.6864 931.9145)" class="st1" width="6" height="77.1"/>
		</g>
		<g>
			
				<rect x="813.5" y="52.8" transform="matrix(1.649940e-02 -0.9999 0.9999 1.649940e-02 730.0489 888.257)" class="st1" width="6" height="40.5"/>
		</g>
		<g>
			
				<rect x="864.9" y="54.4" transform="matrix(1.330015e-02 -0.9999 0.9999 1.330015e-02 782.5079 940.6274)" class="st1" width="6" height="38.8"/>
		</g>
		<g>
			
				<rect x="859.8" y="52.5" transform="matrix(0.9995 -3.189972e-02 3.189972e-02 0.9995 -1.3203 28.3187)" class="st1" width="54.1" height="6"/>
		</g>
		<g>
			
				<rect x="831.3" y="49.6" transform="matrix(1.330015e-02 -0.9999 0.9999 1.330015e-02 766.5588 890.1848)" class="st1" width="6" height="14.1"/>
		</g>
	</g>
	<g>
		<path class="st1" d="M50.7,171.6l7,36.8l19.3-36.8H82l-23.1,43.9h-4.4L46,171.6H50.7z"/>
		<path class="st1" d="M87.2,171.6h4.4l-7,43.9h-4.4L87.2,171.6z"/>
		<path class="st1" d="M97.7,171.6h4.3l16.7,35.6l5.6-35.6h4.4l-7,43.9h-4.2l-16.8-35.6l-5.6,35.6h-4.5L97.7,171.6z M111.3,161.7
			c3,0.2,4.3,2,6,2c1.4,0.1,5.6-1.8,6-2l0.9,2.5c-2.6,1.6-4.9,3.8-7.6,3.7c-3.4-0.1-4-2.1-6.1-2c-2.6,0.1-4.1,1.3-6,2.1l-0.9-2.5
			C106.3,163.6,108.8,161.7,111.3,161.7z"/>
		<path class="st1" d="M148.9,171.6h4.4l8.5,43.9h-4.5l-2.3-12.2h-17.8l-6.5,12.2h-4.9L148.9,171.6z M154.1,198.8l-3.8-21l-10.9,21
			H154.1z"/>
		<path class="st1" d="M184.7,171.7c0-0.1,12.8-0.1,16.4-0.1c13.5,0,13.4,14.8,12.1,22.1c-2.2,12.8-7.7,21.8-19.1,21.8h-16.4
			L184.7,171.7z M194.8,210.9c7.8,0,12.5-8.3,13.9-17.2c1.9-12.1-0.8-17.6-8.4-17.6h-11.9l-5.5,34.9L194.8,210.9L194.8,210.9z"/>
		<path class="st1" d="M219.8,179.4c1-5.9,4.3-8,8.8-7.8l18.8,1L247,176h-19c-2.9,0-3.4,1.7-3.7,3.4l-1.9,12L242,192l-0.6,3.5
			l-19.8,0.6l-1.9,12c-0.4,3.2,1.6,3.1,3.3,3.1h18.4l-0.6,3.4l-18.6,1c-4,0.2-7.9-1.9-7-7.6L219.8,179.4z"/>
		<path class="st1" d="M252.8,171.6h4.4l-5.8,36.4c-0.5,3.2,1.6,3.1,3.3,3.1h18.4l-0.7,4.4h-18.5c-4,0-7.9-1.9-7-7.6L252.8,171.6z"
			/>
		<path class="st1" d="M297.4,171.6h5.8l6.1,36.5l17.3-36.5h6.1l-3.6,43.9h-4.4l3.1-35.9l-17.1,35.9h-4.6l-5.9-35.9l-8.1,35.9h-4.4
			L297.4,171.6z"/>
		<path class="st1" d="M354.8,171.6h4.4l8.5,43.9h-4.5l-2.3-12.2h-17.8l-6.5,12.2h-4.9L354.8,171.6z M360.1,198.8l-3.8-21l-10.9,21
			H360.1z"/>
		<path class="st1" d="M377.7,171.6h18.7c5.1,0,9.1,3.2,8,13.2c-1.1,11.5-7.8,12.4-9.5,12.6l6.4,18.1h-4.9l-5.9-17.6l-12.4-0.8
			l-2.9,18.5h-4.4L377.7,171.6z M392.7,193.2c3.3,0,6.7-1.9,7.3-8.4c0.7-7.9-1.1-8.7-4.3-8.7h-14.2l-2.7,17.1L392.7,193.2
			L392.7,193.2z"/>
		<path class="st1" d="M416.5,208.1c6.7-4.1,25-16.6,26.2-23.5c0.7-4.1-1.2-5.8-6.4-5.8h-15.5l1-6.2c5.6-1,10.4-1.6,18.2-1.6
			c8.8,0,12.1,6.8,11.1,14.3c-1.2,9.6-15.1,19.1-19.9,22.4h16.1l-1.3,7.7h-30.7L416.5,208.1z"/>
		<path class="st1" d="M454.1,182.6c1.2-7.4,5-11,12.1-11h9.8c8,0,10.4,5.3,9.6,10.7l-3.6,22.6c-1.1,7.1-4.8,10.7-11.7,10.7h-9.8
			c-6.7,0-11.1-3.5-10-10.7L454.1,182.6z M463.1,207.8h5.8c2.8,0,4.4-1,5-4.3l3.2-19.9c0.5-3-0.5-4.3-3.4-4.3h-6.3
			c-3.8,0-4.7,2.6-5,4.3l-3.1,19.9C458.6,207.8,461,207.8,463.1,207.8z"/>
		<path class="st1" d="M489.1,176.6c2.7,0,7.7-3.2,9.3-5h8.3l-6.9,43.9h-8.4l5.6-35.3c-2,1.4-6.2,1.8-8.8,1.8L489.1,176.6z"/>
		<path class="st1" d="M521.2,171.4c6.1-0.5,13.6,0.2,18.9,1.2l-1,6.4h-15c-5.3,0-7,6.5-7.7,11.1c3.7-0.8,7.6-1.2,12.3-1.2
			c8.5-0.1,9.5,5.8,8.7,10.9l-1,6.8c-1.2,7.3-5.8,8.9-12.2,8.9h-8.5c-6.6,0-11.1-4.9-8.1-23.8C510.1,175.9,516,171.8,521.2,171.4z
			 M519.2,207.9h4.8c2,0,3.9-0.6,4.4-3.8l0.7-4c0.5-3.1-0.1-3.8-3-3.8h-10.7C514.3,202.9,514.4,207.9,519.2,207.9z"/>
	</g>
	<g>
		<path class="st1" d="M568,215.5v-36.7h-8.6v-11.4h22.9v48.1H568z"/>
		<path class="st1" d="M631.6,191.4c0,15.8-7.8,24.5-21.7,24.5c-14.1,0-21.8-8.7-21.8-24.5c0-15.7,7.7-24.4,21.8-24.4
			C623.8,167,631.6,175.7,631.6,191.4z M602.8,191.4c0,10.3,2,14.1,7.1,14.1c5,0,7-3.8,7-14.1s-2-14.1-7-14.1
			C604.8,177.3,602.8,181.1,602.8,191.4z"/>
		<path class="st1" d="M646.7,209.5c0,3.8-2.7,6.5-6.5,6.5c-3.8,0-6.5-2.7-6.5-6.5c0-3.8,2.7-6.4,6.5-6.4
			C644,203.2,646.7,205.8,646.7,209.5z"/>
		<path class="st1" d="M671.3,167.4c15.6,0,25.9,9.5,25.9,24c0,14.5-10.5,24.1-26.4,24.1h-20.6v-48.1L671.3,167.4L671.3,167.4z
			 M664.5,204.3h7.2c6.5,0,10.9-5.1,10.9-12.8c0-7.8-4.7-12.9-11.6-12.9h-6.5L664.5,204.3L664.5,204.3z"/>
		<path class="st1" d="M699.8,215.5v-48.1h14.3v48.1H699.8z"/>
		<path class="st1" d="M762.5,175.5l-8.2,9.8c-3-3.8-7.5-6.4-11.5-6.4c-6.5,0-11.5,5.3-11.5,12.4s4.9,12.4,11.5,12.4
			c3.7,0,8.2-2.2,11.5-5.6l8.2,8.8c-5.2,5.6-13.1,9.3-20.4,9.3c-14.6,0-25.4-10.6-25.4-24.8c0-14,11-24.4,25.9-24.4
			C749.9,167,757.7,170.3,762.5,175.5z"/>
		<path class="st1" d="M767.4,215.5v-48.1h5.5v48.1L767.4,215.5L767.4,215.5z"/>
		<path class="st1" d="M790.2,172.7v15.8h24.2v5.3h-24.2v16.5h28v5.2h-33.5v-48.1h32.6v5.3H790.2z"/>
		<path class="st1" d="M870.2,215.5l-0.1-39.6l-17.5,34.5h-3.3l-17.4-34.5v39.6h-5.2v-48.1h6.8l17.6,34.6l17.5-34.6h6.7v48.1
			L870.2,215.5L870.2,215.5z"/>
		<path class="st1" d="M907.4,167.4c9.7,0,15.5,4.5,15.5,12c0,5.6-3.2,9.7-8.9,10.9c6.9,1,11,5.6,11,12.2c0,8.2-6.5,13-17.3,13
			h-20.6v-48.1H907.4z M892.6,188.2h14.5c6.5,0,10.2-2.8,10.2-7.8c0-4.9-3.8-7.6-10.2-7.6h-14.5V188.2z M892.6,210.3h14.5
			c7.8,0,12.4-3.1,12.4-8.6c0-5.2-4.5-8.3-12.4-8.3h-14.5V210.3z"/>
		<path class="st1" d="M955,200.2c-1,0.1-2.1,0.1-3.2,0.1H939v15.2h-5.5v-48.1h18.3c12,0,19,5.9,19,16.1c0,8-3.8,13.3-10.8,15.6
			l11.3,16.3H965L955,200.2z M951.8,195c8.7,0,13.7-3.8,13.7-11.3c0-7.3-4.9-11-13.7-11H939V195H951.8z"/>
		<path class="st1" d="M986,172.7v15.8h24.2v5.3H986v16.5h28v5.2h-33.5v-48.1h32.6v5.3H986z"/>
	</g>
</g>
<g>
	<g>
		<path class="st2" d="M122.1,50.2h24.8L132,143.6h-24.8L122.1,50.2z"/>
		<path class="st2" d="M153,50.2h25l19.2,48.4l7.5-48.4h24.8l-14.8,93.5h-24.8l-19.4-47.1l-7.4,47.1h-24.9L153,50.2z"/>
		<path class="st2" d="M234.3,50.2h25l19.2,48.4l7.5-48.4h24.8L296,143.6h-24.8l-19.4-47.1l-7.4,47.1h-24.9L234.3,50.2z"/>
		<path class="st2" d="M353.3,49.5c22.1,0,38.1,7.4,31.2,51.2c-6.5,41.2-23.1,43.4-46.1,43.4s-38.1-7.3-31.3-49.8
			C314,50.5,331.9,49.5,353.3,49.5z M341.8,121.9c11,0,14.7-4.6,17.9-24.4c3.4-21.7,1.8-25.8-9.8-25.8c-11.2,0-14.4,2.9-18,25.8
			C328.8,117.1,329.3,121.9,341.8,121.9z"/>
		<path class="st2" d="M413.2,50.2l5,63.1l25.9-63.1h27.3l-42.8,93.5h-29.9l-11.6-93.5L413.2,50.2L413.2,50.2z"/>
		<path class="st2" d="M483.5,50.2h29.2l13.5,93.5h-25.4l-2.7-16.3h-24l-7.3,16.3h-27.5L483.5,50.2z M496.5,106.2l-2.9-25l-10.5,25
			H496.5z"/>
		<path class="st2" d="M544.9,50.2h39.6c12.9,0,22.2,7.9,19.5,29.9c-2.8,23.8-15.3,25.5-19.5,26.2l13.3,37.4h-16.6l-11.5-36.4
			l-18.8-1.4l-6,37.8h-14.8L544.9,50.2z M576.1,94.1c6.8,0,11.9-3.8,13-15.2c1.3-12.9-1.5-15.2-7.8-15.2h-23.6l-4.7,30.4L576.1,94.1
			L576.1,94.1z"/>
		<path class="st2" d="M617.4,50.2h14.9l-8.6,54.1c-3.2,19.9,0.8,26.1,15.1,26.1c14.7,0,20.8-7.3,23.8-26.1l8.6-54.1h14.9l-8.3,55.4
			c-4.2,26.3-15.2,38.7-40.7,38.7c-19.7,0-33.3-8.2-28.1-41.4L617.4,50.2z"/>
		<path class="st2" d="M696.1,50.2h14.7l29.9,66.3l10.5-66.3h14.8l-14.8,93.5h-14.6l-30-65.8l-10.3,65.8h-14.9L696.1,50.2z"/>
	</g>
	<g>
		<g>
			<path class="st2" d="M926.5,141.9l-0.5-6c10.8-0.9,20.6-5.9,27.6-14.2s10.4-18.8,9.5-29.6c-1.8-22.3-21.5-38.9-43.8-37.1l-0.5-6
				c25.6-2.1,48.1,17,50.2,42.6c1,12.4-2.9,24.5-10.9,33.9C950.2,135.1,938.9,140.8,926.5,141.9z"/>
		</g>
		<g>
			
				<ellipse transform="matrix(0.6469 -0.7626 0.7626 0.6469 217.8552 748.9651)" class="st2" cx="917.7" cy="139.2" rx="2.3" ry="2.3"/>
		</g>
		<g>
			
				<ellipse transform="matrix(0.6469 -0.7626 0.7626 0.6469 258.0999 666.1127)" class="st2" cx="848.3" cy="54.4" rx="2.3" ry="2.3"/>
		</g>
		<g>
			
				<ellipse transform="matrix(0.6469 -0.7626 0.7626 0.6469 210.7888 630.2985)" class="st2" cx="786" cy="87.5" rx="2.5" ry="2.5"/>
		</g>
		<g>
			
				<rect x="851.3" y="83.9" transform="matrix(1.330015e-02 -0.9999 0.9999 1.330015e-02 704.0759 991.2127)" class="st2" width="6" height="110"/>
		</g>
		<g>
			
				<rect x="820.5" y="81.9" transform="matrix(1.330015e-02 -0.9999 0.9999 1.330015e-02 690.4606 943.8517)" class="st2" width="6" height="80.4"/>
		</g>
		<g>
			
				<rect x="877.7" y="115.8" transform="matrix(1.330015e-02 -0.9999 0.9999 1.330015e-02 746.204 1001.8651)" class="st2" width="6" height="14.1"/>
		</g>
		<g>
			
				<rect x="857.7" y="88.5" transform="matrix(1.330015e-02 -0.9999 0.9999 1.330015e-02 743.1569 965.3002)" class="st2" width="6" height="35.3"/>
		</g>
		<g>
			
				<rect x="837" y="50.6" transform="matrix(1.330015e-02 -0.9999 0.9999 1.330015e-02 739.7128 927.9413)" class="st2" width="6" height="77.1"/>
		</g>
		<g>
			
				<rect x="811.5" y="50.8" transform="matrix(1.649940e-02 -0.9999 0.9999 1.649940e-02 730.0817 884.2903)" class="st2" width="6" height="40.5"/>
		</g>
		<g>
			
				<rect x="862.9" y="52.4" transform="matrix(1.330015e-02 -0.9999 0.9999 1.330015e-02 782.5342 936.6542)" class="st2" width="6" height="38.8"/>
		</g>
		<g>
			
				<rect x="857.8" y="50.5" transform="matrix(0.9995 -3.189972e-02 3.189972e-02 0.9995 -1.2575 28.2539)" class="st2" width="54.1" height="6"/>
		</g>
		<g>
			
				<rect x="829.3" y="47.6" transform="matrix(1.330015e-02 -0.9999 0.9999 1.330015e-02 766.5853 886.2115)" class="st2" width="6" height="14.1"/>
		</g>
	</g>
	<g>
		<path class="st2" d="M48.7,169.6l7,36.8l19.3-36.8H80l-23.1,43.9h-4.4L44,169.6H48.7z"/>
		<path class="st2" d="M85.2,169.6h4.4l-7,43.9h-4.4L85.2,169.6z"/>
		<path class="st2" d="M95.7,169.6h4.3l16.7,35.6l5.6-35.6h4.4l-7,43.9h-4.2l-16.8-35.6l-5.6,35.6h-4.5L95.7,169.6z M109.3,159.7
			c3,0.2,4.3,2,6,2c1.4,0.1,5.6-1.8,6-2l0.9,2.5c-2.6,1.6-4.9,3.8-7.6,3.7c-3.4-0.1-4-2.1-6.1-2c-2.6,0.1-4.1,1.3-6,2.1l-0.9-2.5
			C104.3,161.6,106.8,159.7,109.3,159.7z"/>
		<path class="st2" d="M146.9,169.6h4.4l8.5,43.9h-4.5l-2.3-12.2h-17.8l-6.5,12.2h-4.9L146.9,169.6z M152.1,196.8l-3.8-21l-10.9,21
			H152.1z"/>
		<path class="st2" d="M182.7,169.7c0-0.1,12.8-0.1,16.4-0.1c13.5,0,13.4,14.8,12.1,22.1c-2.2,12.8-7.7,21.8-19.1,21.8h-16.4
			L182.7,169.7z M192.8,208.9c7.8,0,12.5-8.3,13.9-17.2c1.9-12.1-0.8-17.6-8.4-17.6h-11.9l-5.5,34.9L192.8,208.9L192.8,208.9z"/>
		<path class="st2" d="M217.8,177.4c1-5.9,4.3-8,8.8-7.8l18.8,1L245,174h-19c-2.9,0-3.4,1.7-3.7,3.4l-1.9,12L240,190l-0.6,3.5
			l-19.8,0.6l-1.9,12c-0.4,3.2,1.6,3.1,3.3,3.1h18.4l-0.6,3.4l-18.6,1c-4,0.2-7.9-1.9-7-7.6L217.8,177.4z"/>
		<path class="st2" d="M250.8,169.6h4.4l-5.8,36.4c-0.5,3.2,1.6,3.1,3.3,3.1h18.4l-0.7,4.4h-18.5c-4,0-7.9-1.9-7-7.6L250.8,169.6z"
			/>
		<path class="st2" d="M295.4,169.6h5.8l6.1,36.5l17.3-36.5h6.1l-3.6,43.9h-4.4l3.1-35.9l-17.1,35.9h-4.6l-5.9-35.9l-8.1,35.9h-4.4
			L295.4,169.6z"/>
		<path class="st2" d="M352.8,169.6h4.4l8.5,43.9h-4.5l-2.3-12.2h-17.8l-6.5,12.2h-4.9L352.8,169.6z M358.1,196.8l-3.8-21l-10.9,21
			H358.1z"/>
		<path class="st2" d="M375.7,169.6h18.7c5.1,0,9.1,3.2,8,13.2c-1.1,11.5-7.8,12.4-9.5,12.6l6.4,18.1h-4.9l-5.9-17.6l-12.4-0.8
			l-2.9,18.5h-4.4L375.7,169.6z M390.7,191.2c3.3,0,6.7-1.9,7.3-8.4c0.7-7.9-1.1-8.7-4.3-8.7h-14.2l-2.7,17.1L390.7,191.2
			L390.7,191.2z"/>
		<path class="st2" d="M414.5,206.1c6.7-4.1,25-16.6,26.2-23.5c0.7-4.1-1.2-5.8-6.4-5.8h-15.5l1-6.2c5.6-1,10.4-1.6,18.2-1.6
			c8.8,0,12.1,6.8,11.1,14.3c-1.2,9.6-15.1,19.1-19.9,22.4h16.1l-1.3,7.7h-30.7L414.5,206.1z"/>
		<path class="st2" d="M452.1,180.6c1.2-7.4,5-11,12.1-11h9.8c8,0,10.4,5.3,9.6,10.7l-3.6,22.6c-1.1,7.1-4.8,10.7-11.7,10.7h-9.8
			c-6.7,0-11.1-3.5-10-10.7L452.1,180.6z M461.1,205.8h5.8c2.8,0,4.4-1,5-4.3l3.2-19.9c0.5-3-0.5-4.3-3.4-4.3h-6.3
			c-3.8,0-4.7,2.6-5,4.3l-3.1,19.9C456.6,205.8,459,205.8,461.1,205.8z"/>
		<path class="st2" d="M487.1,174.6c2.7,0,7.7-3.2,9.3-5h8.3l-6.9,43.9h-8.4l5.6-35.3c-2,1.4-6.2,1.8-8.8,1.8L487.1,174.6z"/>
		<path class="st2" d="M519.2,169.4c6.1-0.5,13.6,0.2,18.9,1.2l-1,6.4h-15c-5.3,0-7,6.5-7.7,11.1c3.7-0.8,7.6-1.2,12.3-1.2
			c8.5-0.1,9.5,5.8,8.7,10.9l-1,6.8c-1.2,7.3-5.8,8.9-12.2,8.9h-8.5c-6.6,0-11.1-4.9-8.1-23.8C508.1,173.9,514,169.8,519.2,169.4z
			 M517.2,205.9h4.8c2,0,3.9-0.6,4.4-3.8l0.7-4c0.5-3.1-0.1-3.8-3-3.8h-10.7C512.3,200.9,512.4,205.9,517.2,205.9z"/>
	</g>
	<g>
		<path class="st2" d="M566,213.5v-36.7h-8.6v-11.4h22.9v48.1H566z"/>
		<path class="st2" d="M629.6,189.4c0,15.8-7.8,24.5-21.7,24.5c-14.1,0-21.8-8.7-21.8-24.5c0-15.7,7.7-24.4,21.8-24.4
			C621.8,165,629.6,173.7,629.6,189.4z M600.8,189.4c0,10.3,2,14.1,7.1,14.1c5,0,7-3.8,7-14.1s-2-14.1-7-14.1
			C602.8,175.3,600.8,179.1,600.8,189.4z"/>
		<path class="st2" d="M644.7,207.5c0,3.8-2.7,6.5-6.5,6.5c-3.8,0-6.5-2.7-6.5-6.5c0-3.8,2.7-6.4,6.5-6.4
			C642,201.2,644.7,203.8,644.7,207.5z"/>
		<path class="st2" d="M669.3,165.4c15.6,0,25.9,9.5,25.9,24c0,14.5-10.5,24.1-26.4,24.1h-20.6v-48.1L669.3,165.4L669.3,165.4z
			 M662.5,202.3h7.2c6.5,0,10.9-5.1,10.9-12.8c0-7.8-4.7-12.9-11.6-12.9h-6.5L662.5,202.3L662.5,202.3z"/>
		<path class="st2" d="M697.8,213.5v-48.1h14.3v48.1H697.8z"/>
		<path class="st2" d="M760.5,173.5l-8.2,9.8c-3-3.8-7.5-6.4-11.5-6.4c-6.5,0-11.5,5.3-11.5,12.4s4.9,12.4,11.5,12.4
			c3.7,0,8.2-2.2,11.5-5.6l8.2,8.8c-5.2,5.6-13.1,9.3-20.4,9.3c-14.6,0-25.4-10.6-25.4-24.8c0-14,11-24.4,25.9-24.4
			C747.9,165,755.7,168.3,760.5,173.5z"/>
		<path class="st2" d="M765.4,213.5v-48.1h5.5v48.1L765.4,213.5L765.4,213.5z"/>
		<path class="st2" d="M788.2,170.7v15.8h24.2v5.3h-24.2v16.5h28v5.2h-33.5v-48.1h32.6v5.3H788.2z"/>
		<path class="st2" d="M868.2,213.5l-0.1-39.6l-17.5,34.5h-3.3l-17.4-34.5v39.6h-5.2v-48.1h6.8l17.6,34.6l17.5-34.6h6.7v48.1
			L868.2,213.5L868.2,213.5z"/>
		<path class="st2" d="M905.4,165.4c9.7,0,15.5,4.5,15.5,12c0,5.6-3.2,9.7-8.9,10.9c6.9,1,11,5.6,11,12.2c0,8.2-6.5,13-17.3,13
			h-20.6v-48.1H905.4z M890.6,186.2h14.5c6.5,0,10.2-2.8,10.2-7.8c0-4.9-3.8-7.6-10.2-7.6h-14.5V186.2z M890.6,208.3h14.5
			c7.8,0,12.4-3.1,12.4-8.6c0-5.2-4.5-8.3-12.4-8.3h-14.5V208.3z"/>
		<path class="st2" d="M953,198.2c-1,0.1-2.1,0.1-3.2,0.1H937v15.2h-5.5v-48.1h18.3c12,0,19,5.9,19,16.1c0,8-3.8,13.3-10.8,15.6
			l11.3,16.3H963L953,198.2z M949.8,193c8.7,0,13.7-3.8,13.7-11.3c0-7.3-4.9-11-13.7-11H937V193H949.8z"/>
		<path class="st2" d="M984,170.7v15.8h24.2v5.3H984v16.5h28v5.2h-33.5v-48.1h32.6v5.3H984z"/>
	</g>
</g>
</svg>
